<svg width="51" height="32" viewBox="0 0 51 32" fill="none" xmlns="http://www.w3.org/2000/svg">
<path fill-rule="evenodd" clip-rule="evenodd" d="M24.1404 16.7888C21.4932 16.7938 18.8461 16.7988 16.1989 16.8037C17.4017 15.489 18.6045 14.1743 19.8073 12.8595C22.6488 12.8595 25.4903 12.8595 28.3319 12.8595C28.8406 15.7296 28.4978 18.675 26.3846 21.7773C27.3697 21.8813 28.3562 22.0052 29.3403 22.1436V15.0326C32.665 15.0326 35.9898 15.0326 39.3145 15.0326C44.3631 14.2666 43.895 7.86288 39.3461 7.2334H33.2162C33.0488 7.01543 32.8628 6.77662 32.6649 6.57111C32.665 6.5515 32.6641 6.53151 32.6622 6.51092C32.6531 6.41403 32.6259 6.34381 32.6 6.25388C32.5716 6.15485 32.5318 6.09284 32.4891 6.01016C32.4687 5.90173 32.4596 5.75497 32.4538 5.64932C32.4468 5.523 32.4494 5.39648 32.442 5.26998C32.4357 5.16206 32.4276 5.05363 32.4325 4.94551C32.4377 4.82985 32.4191 4.70631 32.4287 4.59543C32.4527 4.31628 32.4029 3.97417 32.3497 3.69735L32.347 3.68353L32.2507 3.30722C33.9164 3.30833 35.5872 3.31187 37.2659 3.31905C39.5836 3.32895 40.8107 3.23025 42.9561 4.36063C45.2498 5.56912 46.6983 7.63301 47.0514 10.8055C46.8622 15.9381 43.9632 18.26 39.4879 18.947C37.4972 18.947 35.5066 18.947 33.5159 18.947V22.8057C34.787 23.0259 36.0451 23.2571 37.2815 23.4864C39.0889 23.8742 47.0025 25.4683 47.4291 22.8613C47.2785 21.6908 46.6609 20.9212 46.0425 20.1524C46.7457 20.7193 47.4211 21.3184 47.9617 22.0731C48.4925 22.8142 48.7824 23.5206 48.6785 24.4374C48.3863 27.0166 44.4474 27.5423 41.9141 27.386C38.2081 27.0548 34.3867 26.5057 30.5112 25.8543C26.1828 25.1268 22.2453 24.2059 17.8056 24.1829C10.8465 24.1468 4.12947 26.4688 0 32C2.13806 28.1576 4.9366 25.6028 8.15414 23.9696L8.08386 23.9777C-0.449024 16.8648 4.37347 4.21536 14.9067 3.3338C16.6897 3.33239 18.4684 3.32893 20.2461 3.32496C20.2225 3.37466 20.2016 3.42518 20.1877 3.47106C20.1717 3.50697 20.159 3.54197 20.1493 3.5801C20.133 3.62018 20.1203 3.65775 20.1114 3.70023C20.1015 3.72456 20.0931 3.74907 20.0862 3.77502C20.0789 3.80201 20.074 3.82796 20.0686 3.85487L20.06 3.87949L19.9478 4.46916L19.9473 4.50851C19.9434 4.57191 19.927 4.63263 19.923 4.70073C19.9184 4.7216 19.9138 4.74207 19.9103 4.76347C19.8978 4.84041 19.9045 4.90477 19.8962 4.9755C19.8762 5.079 19.8824 5.17828 19.8806 5.28525C19.8791 5.38076 19.8738 5.46931 19.8811 5.56566C19.9136 5.99341 19.8971 6.80237 20.2647 7.0869C20.3957 7.18825 20.5497 7.22231 20.7085 7.23338H15.3005C6.51483 8.22655 5.29327 18.6203 12.7801 22.2788C15.3757 21.6426 18.1371 21.4113 20.97 21.4423C22.5589 20.2501 23.6815 18.7434 24.1403 16.7888L24.1404 16.7888ZM22.2878 7.2334H22.2564L22.2859 7.23057L22.2878 7.2334V7.2334ZM44.2634 30.1709C44.3882 30.1241 44.5636 30.1363 44.6997 30.0921C44.8432 30.0454 45.0042 30.0647 45.153 30.0282C45.2292 30.0096 45.262 29.9849 45.3563 29.9706C45.5123 29.9471 45.8673 29.8986 45.9871 29.8499C46.0642 29.8186 46.1191 29.8171 46.2039 29.8008C46.2837 29.7854 46.3142 29.7535 46.3913 29.7398C46.4921 29.7221 46.5151 29.7443 46.6026 29.687L46.9902 29.5624C47.1679 29.5332 47.0816 29.5305 47.1759 29.4987C47.2923 29.4595 47.196 29.5214 47.3578 29.4332C47.4197 29.3994 47.5126 29.4009 47.5641 29.4318C47.5065 29.4865 47.4501 29.4604 47.3846 29.5029C47.3363 29.5344 47.3699 29.5323 47.2941 29.5507C47.064 29.6067 47.2386 29.6097 47.0027 29.6489L46.6119 29.7706C46.5419 29.8025 46.4775 29.7879 46.4117 29.8193C46.3222 29.8621 46.3353 29.8669 46.214 29.8855C46.102 29.9027 46.1151 29.925 46.0286 29.9486C45.9524 29.9693 45.8725 29.9652 45.7945 29.9806C45.7291 29.9936 45.68 30.0223 45.589 30.0381C45.5168 30.0506 45.4256 30.0554 45.358 30.0734C45.1074 30.1402 45.0227 30.1122 44.9134 30.144C44.8316 30.1677 44.8209 30.1825 44.7138 30.1942C44.6322 30.2032 44.5496 30.2111 44.4685 30.2145C44.3376 30.22 44.285 30.2282 44.2634 30.1709L44.2634 30.1709ZM49.4644 27.084C49.5628 27.0543 49.5444 27.0878 49.6022 27.0135C49.7399 26.8365 49.834 26.8727 49.8567 26.5797C49.9728 26.5099 49.8877 26.5152 49.966 26.4338C50.0602 26.336 49.9659 26.4097 50.0697 26.2788C50.0991 26.2417 50.0932 26.2364 50.1032 26.1924C50.1077 26.1726 50.1076 26.1635 50.1161 26.144C50.131 26.1104 50.24 25.9927 50.1547 25.9129C50.0963 25.9717 50.1341 26.0267 50.096 26.0798C50.0586 26.132 50.0745 26.0584 50.0399 26.1459C50.0267 26.1791 50.0302 26.2113 50.0127 26.2405C49.9875 26.2827 49.9836 26.2537 49.955 26.3041C49.9385 26.3334 49.9382 26.3635 49.9209 26.3918C49.8918 26.4393 49.9004 26.3959 49.8689 26.4611C49.8158 26.5712 49.8112 26.5507 49.7097 26.6682L49.5591 26.8831C49.522 26.9212 49.5401 26.8943 49.5005 26.947C49.4554 27.0067 49.4142 27.0065 49.4644 27.084V27.084ZM48.5163 27.9332L48.4568 27.8717L48.2364 27.9709C48.1416 28.0212 48.1153 28.0426 48.0168 27.9893C47.9606 28.0413 47.9031 28.0553 47.8334 28.1107C47.7856 28.1485 47.7086 28.229 47.65 28.2508C47.5838 28.2496 47.5344 28.2337 47.4874 28.2458C47.3732 28.275 47.2606 28.2513 47.0545 28.3722L46.9316 28.4345C46.8666 28.4649 46.885 28.4909 46.8228 28.509C46.7505 28.5299 46.7397 28.5001 46.6726 28.5477C46.6352 28.5743 46.6019 28.6086 46.5842 28.6348C46.6979 28.7206 46.9605 28.5359 46.982 28.5281C47.0419 28.5063 47.1111 28.5183 47.1637 28.5294C47.2309 28.4583 47.1822 28.4776 47.3006 28.426C47.438 28.3661 47.4034 28.4187 47.495 28.4213L47.7497 28.314C47.7923 28.2928 47.8197 28.2851 47.8616 28.3097L47.7421 28.4414C47.5421 28.5978 47.5291 28.5416 47.427 28.62C47.3796 28.6563 47.42 28.6442 47.3599 28.6754C47.3063 28.7032 47.3172 28.6682 47.2859 28.7267C47.3428 28.7661 47.4785 28.7184 47.5702 28.7098C47.84 28.6844 48.0048 28.5167 48.0194 28.5098C48.1786 28.4355 48.0664 28.4888 48.1253 28.4463C48.1279 28.4443 48.1314 28.4415 48.1343 28.4397C48.1756 28.415 48.3369 28.3831 48.4651 28.291L48.9354 28.0201C49.0115 27.977 48.9581 27.9686 49.0137 27.9314C49.0199 27.9272 49.0657 27.9128 49.0786 27.9061C49.0213 27.8705 48.9826 27.9086 48.9291 27.9244C48.6728 28.0006 48.9119 27.9408 48.711 28.0324C48.6129 28.0771 48.7237 28.0516 48.5785 28.1158L48.2435 28.3049C48.1977 28.3494 48.2748 28.3131 48.181 28.3492C48.0332 28.406 48.138 28.4173 48.0419 28.4272C47.992 28.4323 47.9957 28.4254 47.9635 28.3991C47.9947 28.349 47.9673 28.3867 48.0178 28.3593C48.1397 28.2932 48.0116 28.3029 48.1849 28.2377L48.1637 28.1412C48.4518 28.1296 48.159 28.0931 48.4579 28.0878C48.4882 28.0199 48.4681 28.046 48.5507 28.0147C48.6262 27.9861 48.6008 27.9783 48.67 27.9495C48.7816 27.9029 48.7 27.9291 48.7822 27.8761L48.8935 27.8026C48.9666 27.764 48.9423 27.7975 49.0117 27.7358C49.151 27.612 49.2635 27.5378 49.2186 27.408C49.1835 27.4206 49.0567 27.5023 49.0339 27.5186C48.946 27.5817 48.9984 27.595 48.8508 27.7177C48.791 27.7674 48.5875 27.9106 48.5163 27.9333L48.5163 27.9332ZM8.47703 27.6843C8.57323 27.7542 8.69872 27.646 8.77643 27.6297C8.86212 27.6118 8.85449 27.6266 8.92182 27.5876C8.99443 27.5457 8.99215 27.5604 9.07714 27.5404C9.15042 27.5232 9.15143 27.5048 9.20705 27.4853C9.26023 27.4668 9.3102 27.4687 9.37088 27.4463C9.54163 27.3833 9.88509 27.3114 9.9764 27.2745C10.088 27.2294 11.1003 27.0078 11.2619 26.9867C11.3999 26.9687 11.47 26.9511 11.5935 26.9256C11.6988 26.9039 11.8344 26.8982 11.9416 26.8844C12.0643 26.8687 12.1477 26.842 12.2792 26.8287C12.5124 26.8051 12.7525 26.7693 12.9792 26.7507C13.2365 26.7295 13.4733 26.724 13.7286 26.695C14.3172 26.6283 16.2104 26.6389 16.831 26.6819C17.3025 26.7147 17.8041 26.7478 18.2763 26.7997C18.5276 26.8274 18.7482 26.8259 18.9956 26.8662L20.0646 26.9904C20.1938 27.0039 20.2796 27.0312 20.3957 27.0454C20.5107 27.0594 20.6388 27.0636 20.7506 27.0835C20.8742 27.1053 20.9453 27.1271 21.0819 27.1409C21.2178 27.1546 21.2925 27.1684 21.4169 27.1972C21.5278 27.2229 21.6465 27.2239 21.7631 27.242L22.4323 27.3684C22.673 27.4069 22.8661 27.4501 23.1028 27.4788L24.0764 27.6764C24.0939 27.6822 24.6863 27.7921 24.8876 27.8473C24.9427 27.8623 25.0058 27.8658 25.0635 27.8745C25.1869 27.8932 25.256 27.931 25.3777 27.9473L26.3408 28.1566C26.5216 28.2166 26.7924 28.247 26.9839 28.2939L28.2563 28.5952C28.3802 28.6138 28.4523 28.651 28.5691 28.6708C28.7754 28.7059 29.0112 28.7838 29.2087 28.8262C29.2629 28.8378 29.3151 28.8404 29.3708 28.8512C29.4399 28.8646 29.4694 28.8847 29.5244 28.9001C29.6704 28.9407 30.3814 29.0836 30.4863 29.1215C30.5948 29.1607 30.7023 29.1571 30.8059 29.192C30.9969 29.2566 31.2331 29.2961 31.4378 29.3398C31.4979 29.3527 31.5241 29.37 31.5781 29.3846L34.3172 29.9826C34.3824 29.9941 34.4063 30.0095 34.461 30.0252C34.5138 30.0404 34.5805 30.0447 34.6365 30.0533L35.294 30.1897C35.407 30.2139 35.526 30.2137 35.632 30.244L36.2891 30.3685C36.4192 30.3831 36.4963 30.3971 36.622 30.4254C36.733 30.4504 36.8504 30.4549 36.9677 30.4698C37.085 30.4847 37.1737 30.518 37.3004 30.5281C37.5482 30.5478 37.7628 30.5997 38.0098 30.6164C38.2586 30.6333 38.4674 30.6782 38.7187 30.6911C38.9346 30.7022 39.0074 30.7767 39.4114 30.7854C39.66 30.7909 39.9169 30.8153 40.1523 30.8214C40.9303 30.8413 41.7024 30.8104 42.4793 30.772C42.6502 30.7635 42.8234 30.7646 42.9893 30.7085C43.1059 30.6691 43.3579 30.7418 43.8787 30.5965C44.0013 30.5623 44.0832 30.5843 44.2068 30.5346C44.351 30.4766 44.3629 30.4893 44.5174 30.4536C44.5776 30.4397 44.5866 30.4218 44.6636 30.4169C44.7272 30.4129 44.7958 30.419 44.8627 30.4131C44.9506 30.4054 44.9366 30.3901 45.0149 30.3763C45.1529 30.3522 45.2028 30.3545 45.3334 30.3039C45.3871 30.2831 45.4374 30.2793 45.4993 30.2678C45.6123 30.2469 45.6528 30.2019 45.7991 30.1799C46.2022 30.1195 46.9156 29.9009 47.3233 29.7431C47.4059 29.7111 47.5298 29.6605 47.6084 29.6408C47.7753 29.5989 47.9906 29.4772 48.1514 29.4085C48.2128 29.3824 48.2211 29.372 48.2726 29.3446C48.3281 29.3152 48.3695 29.3142 48.4219 29.2922L49.1775 28.8747C49.2263 28.8394 49.2414 28.8174 49.2754 28.7888C49.3296 28.7433 49.3965 28.7388 49.4619 28.6822L49.7457 28.4738C49.7835 28.4425 49.8182 28.4123 49.8517 28.3806L50.1409 28.1031C50.2268 28.0007 50.3651 27.8868 50.3177 27.7439C50.4133 27.6849 50.3414 27.728 50.3947 27.6429C50.4361 27.5768 50.436 27.631 50.4678 27.5338C50.5233 27.3639 50.5256 27.5037 50.5474 27.2472L50.4634 27.1982C50.4689 27.1623 50.4651 27.1596 50.4781 27.126C50.4999 27.0693 50.4874 27.1112 50.5085 27.0804C50.5426 27.0305 50.6099 26.8256 50.6639 26.7364C50.7221 26.6401 50.6896 26.5757 50.7422 26.4831C50.7781 26.4196 50.7999 26.2722 50.7534 26.1953C50.7007 26.249 50.7105 26.3586 50.6683 26.413C50.6043 26.4958 50.6087 26.5269 50.5851 26.6279L50.4863 26.5614C50.4556 26.6602 50.5143 26.6702 50.5101 26.7488L50.4813 26.8072C50.4592 26.7427 50.4834 26.7181 50.4353 26.6782C50.3698 26.6869 50.3803 26.7257 50.3586 26.7753C50.3234 26.8557 50.3217 26.7927 50.2809 26.895C50.2487 26.9755 50.2471 26.9467 50.2062 27.0037L49.9084 27.3769C49.7892 27.5195 49.686 27.5827 49.5651 27.7228C49.4519 27.8539 49.2527 27.9407 49.115 28.0567C48.9627 28.1849 48.816 28.27 48.631 28.3585L47.9671 28.6841C47.8957 28.7206 47.8036 28.8 47.7123 28.8162C47.6424 28.8286 47.606 28.8166 47.5435 28.8491C47.5024 28.8705 47.5395 28.8624 47.4846 28.8806C47.3157 28.9364 47.3859 28.9218 47.2623 28.9704C47.1482 29.0153 47.0975 29.0607 46.9574 29.0552C46.7911 29.0487 46.6845 29.113 46.6308 29.0393C46.6679 29.0225 46.6762 29.0314 46.7178 29.022C46.8551 28.991 46.7134 28.9725 46.849 28.937C46.9689 28.9055 46.9892 28.9223 47.0901 28.8524C47.1244 28.8286 47.1161 28.8362 47.1672 28.8207L47.2412 28.7862C46.8399 28.6371 46.441 28.9915 46.3111 28.9681C46.2329 28.9238 46.2826 28.9083 46.1537 28.9153C46.0997 28.9182 46.0071 28.9424 45.9649 28.9381C45.9039 28.9319 45.8023 28.8369 45.6732 28.9576C45.5779 29.0468 45.5504 29.0604 45.382 29.0654C45.274 29.0687 45.1013 29.1101 45.02 29.0542C45.0526 28.9863 45.2201 28.9831 45.2892 28.9665C45.3425 28.9537 45.3877 28.934 45.4333 28.9226C45.4877 28.909 45.5447 28.9136 45.5903 28.8942C45.7029 28.8466 45.6336 28.7984 45.8468 28.839C45.8942 28.8481 45.9438 28.8326 45.9913 28.8113C46.0435 28.788 46.0558 28.7492 46.0778 28.709C45.9567 28.7198 46.0968 28.7366 45.9645 28.7554C45.8532 28.7713 45.5263 28.7621 45.5033 28.7673C45.4581 28.7775 45.4433 28.7991 45.392 28.8093C45.2593 28.8356 45.0719 28.8193 44.9147 28.8514C44.8014 28.8746 44.414 28.9257 44.3461 28.954C44.082 29.0636 44.1008 28.8945 43.7795 28.9684C43.6464 28.999 43.7519 29.0702 43.5702 29.0841C43.4876 29.0904 43.3023 29.0964 43.2225 29.0906C43.0868 29.0808 43.0884 28.9843 42.969 29.0365C42.8521 29.0878 42.9448 29.1326 42.7267 29.0943C42.6277 29.0769 42.5208 29.1002 42.4203 29.0964C42.2851 29.0913 42.3149 29.0382 42.1388 29.0701C42.0391 29.0882 41.9253 29.0703 41.8208 29.0788C41.7063 29.0883 41.6808 29.135 41.5387 29.1419C41.1258 29.1617 40.717 29.0039 40.3249 29.0269C40.1823 29.0352 39.8715 28.9741 39.736 28.9408C39.636 28.9162 39.5524 28.9158 39.4505 28.8966C39.3525 28.8781 39.2747 28.8476 39.1725 28.8344C39.0484 28.8185 39.0093 28.8139 38.8979 28.7801C38.8066 28.7525 38.6986 28.7493 38.6004 28.7326L38.0501 28.613C37.9608 28.5876 37.8588 28.5889 37.764 28.5699C37.6608 28.5493 37.6153 28.522 37.4875 28.5075C37.3697 28.4942 37.3182 28.4794 37.2137 28.451C37.1128 28.4235 37.0129 28.4292 36.917 28.4046C36.7478 28.3613 36.5446 28.3351 36.3764 28.2893C36.2878 28.2652 36.1887 28.2628 36.0926 28.2458L35.5386 28.1293C35.4508 28.1071 35.3306 28.1016 35.2366 28.0863C35.1358 28.07 35.0838 28.0388 34.969 28.0272C34.8548 28.0157 34.786 28.003 34.6778 27.9744C34.5858 27.9502 34.4912 27.9446 34.394 27.931C34.2889 27.9164 34.2161 27.8839 34.1105 27.87L33.2614 27.7206C33.1593 27.6997 33.0589 27.6965 32.9575 27.6795C32.8624 27.6637 32.7931 27.6369 32.685 27.6241C32.5784 27.6114 32.4859 27.608 32.3875 27.5782C32.2705 27.5428 31.6752 27.4639 31.5225 27.443C31.4205 27.429 31.3528 27.397 31.2372 27.385C30.8481 27.3447 30.4616 27.2538 30.0648 27.2106C29.7887 27.1806 29.4843 27.1208 29.203 27.0739C29.1036 27.0573 28.9913 27.0524 28.8894 27.041C28.7869 27.0295 28.7101 27.004 28.6167 26.9914C28.5103 26.9769 28.4078 26.9726 28.2994 26.9598C28.1961 26.9475 28.1178 26.9244 28.021 26.9099C27.921 26.8949 27.8099 26.89 27.7071 26.881C27.5995 26.8716 27.5261 26.8476 27.4254 26.8323C27.3261 26.8173 27.2262 26.8138 27.1243 26.8056C26.7583 26.7761 26.3027 26.6837 25.9266 26.6547C25.8246 26.6469 25.725 26.6417 25.6202 26.6311C25.5181 26.6208 25.4313 26.5941 25.3271 26.5843C24.9066 26.5446 24.5091 26.5054 24.0852 26.4728C23.883 26.4573 23.6981 26.4243 23.4788 26.4105C23.0607 26.3844 22.659 26.336 22.2412 26.3183C22.0237 26.3091 21.8285 26.2821 21.6139 26.2657C21.1907 26.2333 20.7525 26.2358 20.3314 26.2023C19.3629 26.125 17.3873 26.1592 16.3491 26.1718C15.5749 26.1812 14.606 26.2783 13.8267 26.3382C13.7129 26.3469 13.6434 26.369 13.542 26.3831C13.4344 26.3981 13.3355 26.4031 13.2293 26.4129C13.0175 26.4322 12.8524 26.4744 12.6316 26.4952C12.5241 26.5053 12.4555 26.5322 12.3594 26.5487C12.2568 26.5664 12.1536 26.5688 12.0545 26.5885C11.8795 26.6234 11.6763 26.6666 11.5043 26.7083C11.4164 26.7296 11.3027 26.7327 11.2246 26.7562L10.6906 26.8913C10.506 26.9238 10.3345 26.9956 10.1681 27.0381L9.9066 27.1193C9.86706 27.1305 9.81771 27.1371 9.78033 27.1488C9.72935 27.1647 9.71715 27.183 9.66148 27.1999C9.61373 27.2144 9.57288 27.2153 9.52384 27.2336C9.47756 27.251 9.45766 27.2696 9.40418 27.2851C9.24292 27.3319 9.06909 27.4216 8.91696 27.4641C8.83654 27.4865 8.87022 27.4851 8.81493 27.5164C8.76709 27.5435 8.73339 27.5387 8.68625 27.5584C8.61627 27.5876 8.6584 27.5951 8.58053 27.6225C8.5202 27.6438 8.49404 27.6252 8.47705 27.6843L8.47703 27.6843Z" fill="url(#paint0_radial_9_1278)"/>
<path fill-rule="evenodd" clip-rule="evenodd" d="M29.5971 1.5881C29.546 1.59285 29.5089 1.63401 29.5141 1.68007C29.5194 1.72611 29.5651 1.75962 29.6162 1.75487C29.6673 1.75015 29.7044 1.70898 29.6992 1.66292C29.6939 1.61685 29.6482 1.58337 29.5971 1.5881ZM22.6365 1.97911C22.5674 1.98552 22.5171 2.04127 22.5242 2.10361C22.5313 2.16595 22.5931 2.21128 22.6623 2.20488C22.7314 2.19847 22.7818 2.14272 22.7746 2.08038C22.7675 2.01805 22.7057 1.97271 22.6365 1.97911ZM25.9409 1.42309C25.8718 1.42951 25.8215 1.48525 25.8286 1.54759C25.8357 1.60993 25.8975 1.65526 25.9667 1.64887C26.0359 1.64245 26.0862 1.58671 26.0791 1.52437C26.072 1.46203 26.0101 1.4167 25.9409 1.42309ZM25.3945 0.555936C25.4094 0.546763 25.3967 0.557401 25.4054 0.545171C25.3869 0.536251 25.3308 0.544616 25.309 0.558135C25.2844 0.573473 25.3116 0.567484 25.2787 0.581306C25.2706 0.584667 25.2491 0.589341 25.2379 0.593031C25.1918 0.608192 25.2093 0.615192 25.1733 0.632729L25.1094 0.673487C25.0941 0.68549 25.0592 0.699994 25.0393 0.715155L24.9189 0.801448C24.8524 0.859415 24.8329 0.863585 24.7545 0.948691L24.6501 1.04673C24.6325 1.07018 24.623 1.079 24.601 1.10392L24.5543 1.15716C24.5181 1.19678 24.4947 1.22695 24.4619 1.26395C24.4308 1.29892 24.4096 1.34334 24.3756 1.38114C24.3408 1.41988 24.2458 1.58415 24.2166 1.61958C24.1834 1.65973 24.1744 1.70115 24.1421 1.73966C24.1172 1.76927 24.1253 1.77769 24.1081 1.80773L24.0508 1.89976C24.0254 1.95384 23.9842 2.04678 23.9535 2.09605C23.9223 2.14624 23.9093 2.20569 23.8819 2.25888C23.8734 2.27536 23.8697 2.27296 23.8617 2.29062C23.8565 2.30199 23.8544 2.31746 23.8503 2.32896C23.8393 2.36029 23.8279 2.35566 23.8192 2.39342L23.7417 2.60416C23.7333 2.63721 23.7225 2.64355 23.7144 2.67175C23.7069 2.69783 23.7097 2.71926 23.699 2.74748C23.6776 2.80406 23.6793 2.87206 23.6657 2.90357C23.6497 2.94087 23.6535 2.93506 23.6505 2.98039L23.5993 3.29597C23.5978 3.36157 23.5911 3.40013 23.582 3.45928C23.573 3.51781 23.5779 3.57633 23.5764 3.63596C23.5751 3.69368 23.5592 3.73234 23.5603 3.79948C23.5621 3.91789 23.5508 4.03365 23.5542 4.14738C23.5613 4.39183 23.5724 4.64273 23.6003 4.8871C23.6107 4.97908 23.783 6.17832 23.8131 6.25415C23.8355 6.31035 23.888 6.50639 23.8432 6.53891C23.7832 6.58237 22.8319 6.63023 22.7456 6.67016C22.7278 6.67837 22.688 6.70609 22.6828 6.71776C22.6266 6.84347 23.0623 6.75978 23.1281 6.75235C23.2741 6.73588 23.4259 6.71862 23.5721 6.69942C23.7147 6.68067 23.8475 6.65464 23.9891 6.6342C24.2021 6.6034 24.4168 6.5874 24.6259 6.54088C24.697 6.52504 24.7622 6.51882 24.8338 6.50694C24.9791 6.48286 25.1141 6.47071 25.2594 6.44097C25.395 6.4132 25.5419 6.3969 25.6794 6.37656C25.8193 6.35581 25.9489 6.32513 26.0914 6.30557C26.2588 6.28255 26.3753 6.24389 26.4957 6.22691C26.6512 6.20498 26.7894 6.16751 26.9018 6.15111C27.0468 6.13001 27.1907 6.11252 27.3353 6.0919C27.4766 6.07174 27.6112 6.0471 27.7554 6.0304C28.1398 5.98592 28.5323 5.94537 28.9189 5.92844L29.4549 5.91307C29.5424 5.91381 29.6145 5.92806 29.7067 5.92788C29.8024 5.92773 29.8639 5.94552 29.9549 5.94552C30.0421 5.94554 30.1116 5.96369 30.2014 5.96649C30.258 5.96829 30.2712 5.97799 30.3153 5.98469C30.3539 5.99052 30.3986 5.98901 30.437 5.99315C30.4782 5.99755 30.4982 6.01213 30.5523 6.01546L30.7817 6.05433C30.8216 6.06638 30.8492 6.06737 30.893 6.07401L31.2632 6.17216C31.3747 6.21519 31.5023 6.25147 31.6071 6.30638L31.824 6.43114C31.9251 6.50394 31.9182 6.49454 32.0015 6.59142C32.1156 6.56456 31.9707 6.41633 31.9305 6.37767C31.9192 6.36695 31.908 6.34876 31.8958 6.33731L31.803 6.28288C31.7687 6.2704 31.781 6.26878 31.7563 6.25585L31.5485 6.17132C31.5245 6.16222 31.5259 6.15593 31.4995 6.14671L31.397 6.10987C31.3557 6.09908 31.3723 6.09428 31.2873 6.07411L31.1216 6.02122C31.1002 6.01344 31.0818 6.01395 31.062 6.00894C31.0357 6.00235 31.0336 5.99479 31.0091 5.98868C30.989 5.9837 30.9716 5.98433 30.9515 5.98084C30.8883 5.96993 30.7852 5.93127 30.7182 5.925L30.595 5.90362C30.5559 5.89526 30.515 5.89859 30.4732 5.88836L30.2229 5.85071C30.1798 5.8451 30.1321 5.84919 30.0882 5.84285C29.9469 5.82241 29.9331 5.83431 29.8276 5.82375C29.6933 5.81028 29.689 5.81306 29.5541 5.81273C29.5053 5.8126 29.4731 5.80401 29.4272 5.80171C29.3367 5.79719 29.2292 5.80775 29.1377 5.80947C29.0452 5.81121 28.9529 5.80808 28.8608 5.80879C28.6789 5.81015 28.4405 5.83535 28.2551 5.85255C27.7584 5.89857 27.3877 5.95022 26.894 6.02903C26.8002 6.04402 26.7237 6.06534 26.6359 6.08326C26.5484 6.1011 26.4626 6.10585 26.3757 6.12985L25.8778 6.24154C25.6932 6.2656 25.5276 6.30739 25.3447 6.33264C25.1596 6.35818 24.9892 6.39283 24.8082 6.41961C24.6273 6.4464 24.4355 6.46631 24.2529 6.48751C24.206 6.49297 24.1532 6.49651 24.1073 6.50424C24.0248 6.51821 23.922 6.56147 23.9043 6.45812C23.8977 6.41992 23.8899 6.37683 23.8853 6.33709C23.8658 6.16584 23.8323 5.99424 23.8092 5.82418L23.7136 5.06919C23.6849 4.81825 23.6801 4.56189 23.6619 4.31001C23.6573 4.24439 23.6628 4.19456 23.6662 4.13212C23.6693 4.07461 23.6641 4.00787 23.6626 3.94804C23.6609 3.87996 23.6666 3.8388 23.6723 3.7756C23.6775 3.71728 23.6721 3.65575 23.6745 3.59675L23.7292 3.09582C23.7436 3.04295 23.736 2.97541 23.7489 2.9295C23.7582 2.89609 23.7641 2.89685 23.7671 2.85003C23.7692 2.81697 23.7717 2.80376 23.7845 2.77543C23.7979 2.74594 23.7968 2.7276 23.8026 2.69551C23.8091 2.65917 23.8217 2.65914 23.8296 2.62809C23.8414 2.58175 23.8296 2.59175 23.8552 2.55357L23.9573 2.31998C23.9908 2.26182 23.9833 2.24243 24.0011 2.21815L24.0998 2.01709C24.1099 1.99169 24.1195 1.98755 24.134 1.95462L24.2049 1.82648C24.2243 1.78097 24.2242 1.793 24.2429 1.76101C24.2583 1.73478 24.2576 1.72427 24.2759 1.69789C24.2894 1.67836 24.307 1.65425 24.3187 1.63628C24.332 1.61571 24.3394 1.59413 24.3528 1.57384L24.4788 1.39267C24.4898 1.3747 24.4833 1.37846 24.4983 1.36037L24.5888 1.24633C24.6583 1.16398 24.723 1.07938 24.803 1.00173C24.8165 0.988666 24.8131 0.986973 24.8271 0.972747L24.9622 0.844962C24.9974 0.810799 25.0436 0.786869 25.0804 0.751138C25.1026 0.729559 25.1179 0.728397 25.1422 0.709167L25.2082 0.664315C25.2474 0.637302 25.2055 0.644882 25.2705 0.622873C25.335 0.601066 25.2976 0.596846 25.3281 0.577516C25.3472 0.565437 25.3757 0.567484 25.3945 0.55586V0.555936ZM25.8032 0.260972C25.8036 0.221982 25.7686 0.174502 25.8049 0.112466C25.8262 0.0761297 25.8925 0.0442403 25.9363 0.0284219C26.064 -0.0176938 26.2987 0.00358269 26.4367 0.0146252C26.4814 0.0181881 26.4857 0.0272347 26.5206 0.0357503C26.6064 0.0567993 26.5825 0.0442909 26.6772 0.0841147C26.7204 0.102283 26.7637 0.140439 26.7908 0.186959C26.8474 0.283663 26.8203 0.246872 26.8176 0.341832C26.8175 0.344865 26.8176 0.347695 26.8178 0.350373C26.7485 0.374303 26.6653 0.391461 26.5729 0.400052C26.5122 0.405662 26.4475 0.407582 26.3802 0.405258C26.1893 0.398713 26.0127 0.359445 25.8817 0.301326C25.8533 0.288667 25.8269 0.275198 25.8032 0.260972H25.8032ZM26.8254 0.371726C26.848 0.40172 26.9152 0.384233 26.9688 0.397803C27.0281 0.412863 27.1069 0.414834 27.1431 0.426509C27.2239 0.452637 27.3232 0.460899 27.4107 0.47361C27.4436 0.478411 27.4585 0.488847 27.4889 0.494431C27.5191 0.49994 27.5546 0.499283 27.5812 0.506409C27.6155 0.515581 27.6187 0.522025 27.6655 0.527685C27.7224 0.534584 27.9381 0.584591 28.0002 0.607333C28.0282 0.617567 28.0596 0.615747 28.0886 0.624086C28.1195 0.633031 28.1239 0.640915 28.1646 0.647409C28.2064 0.654106 28.213 0.660297 28.2464 0.671188C28.2748 0.680512 28.3034 0.68031 28.3332 0.689305C28.3663 0.699261 28.3737 0.706362 28.4148 0.713538C28.4553 0.720614 28.4575 0.729432 28.4898 0.73772L28.6556 0.783079C28.7281 0.815675 28.9436 0.87819 28.9669 0.888955C29.0108 0.909322 29.0684 0.927288 29.1171 0.944168C29.2137 0.97775 29.3205 1.02811 29.4131 1.06733C29.4744 1.09331 29.5821 1.13096 29.6356 1.16416C29.6769 1.18981 29.9098 1.29298 29.9811 1.33953C30.0435 1.38028 30.1217 1.41323 30.1874 1.45445C30.8628 1.89448 31.1994 2.22785 31.5304 2.89293C31.5644 2.96131 31.6144 3.04379 31.6348 3.11277L31.7519 3.43498L31.8414 3.78452C31.884 4.00608 31.9326 4.33811 31.9138 4.55578C31.9032 4.67851 31.9219 4.80192 31.9163 4.9247C31.9105 5.05378 31.9186 5.16648 31.9262 5.29666C31.9336 5.4248 31.9308 5.54546 31.9379 5.67464C31.9423 5.75451 31.9702 6.08811 31.9957 6.16227C32.0134 6.21382 32.0797 6.3057 32.1015 6.38161C32.1165 6.43392 32.1426 6.49977 32.1476 6.55382C32.1536 6.61798 32.103 6.69403 32.1025 6.7054C32.1082 6.74717 32.1065 6.73126 32.1328 6.7546C32.5322 7.10857 33.14 7.99417 33.4716 8.40507C33.494 8.42774 33.5108 8.45778 33.5336 8.47986L33.5951 8.55459C33.6499 8.61147 33.765 8.78072 33.8081 8.82658L33.8869 8.96081C33.911 9.03131 33.9594 9.09999 33.941 9.17281C33.9357 9.19384 33.9186 9.24968 33.9071 9.26497C33.8649 9.32084 33.7897 9.36539 33.7075 9.33886C33.5402 9.28483 33.3679 8.89175 33.3046 8.76209C33.2925 8.7251 33.2841 8.69465 33.2676 8.65998C33.2434 8.60909 33.2182 8.58061 33.1704 8.55279C33.1411 8.53579 33.1537 8.53975 33.1323 8.5235C32.5264 8.17593 32.0273 8.03667 31.2889 7.94659C30.9002 7.93459 30.591 7.94204 30.2009 7.99591C28.6701 8.28408 27.8254 8.88685 26.5924 9.25208C26.3867 9.31306 26.2304 9.37178 26.0111 9.4131C25.6741 9.47657 25.4206 9.40895 25.1126 9.32893C24.7203 9.18573 24.46 9.0235 24.1756 8.77119C23.9319 8.52189 23.4096 7.94805 23.2512 7.68478L23.0751 7.45064C23.0605 7.42885 23.0528 7.42931 23.0398 7.41109C23.0291 7.39623 23.0254 7.3788 23.0159 7.36581C23.0012 7.34562 22.9982 7.35719 22.9809 7.33316L22.8943 7.20732C22.8697 7.18034 22.8591 7.15042 22.8366 7.12798C22.8171 7.10844 22.8174 7.11097 22.8043 7.0852C22.7927 7.06246 22.7918 7.05995 22.7766 7.04429C22.7207 6.98652 22.6527 6.84992 22.5973 6.81378C22.4506 6.71822 22.346 6.73616 22.1253 6.75668C21.8709 6.7803 21.8095 6.7656 21.5892 6.77212C21.5004 6.77474 21.409 6.77848 21.3262 6.76959C21.2378 6.76006 21.152 6.77085 21.0663 6.76357C21.0203 6.75963 20.9975 6.75008 20.9425 6.75036C20.8556 6.75084 20.6528 6.7565 20.5921 6.70955C20.4378 6.59013 20.4137 5.76085 20.3963 5.5308C20.3893 5.43888 20.3956 5.37838 20.397 5.29277C20.3981 5.22561 20.393 5.12137 20.4049 5.05908C20.4196 4.98265 20.4088 4.91119 20.4208 4.83796C20.4276 4.79591 20.4371 4.77847 20.4386 4.72953C20.4409 4.6542 20.4625 4.59146 20.4636 4.51626L20.5621 3.99885C20.5769 3.95602 20.5757 3.93636 20.5868 3.89492C20.5969 3.85724 20.6052 3.86483 20.617 3.80009C20.6245 3.75875 20.6401 3.74596 20.6496 3.70189C20.6596 3.65595 20.6743 3.64981 20.6829 3.61001C20.6923 3.5665 20.7627 3.43551 20.7897 3.39149C20.8141 3.35182 20.8273 3.30277 20.853 3.26317C20.8663 3.24258 20.8688 3.24498 20.88 3.21885L20.9494 3.09498C20.9899 3.01731 21.0726 2.93081 21.1058 2.85475C21.142 2.77172 21.2158 2.69952 21.2687 2.62483C21.2896 2.59529 21.282 2.60691 21.3024 2.58569C21.3183 2.56901 21.3143 2.56199 21.3282 2.54647L21.748 2.08582C21.7908 2.05438 21.8172 2.01949 21.8573 1.98545C21.8832 1.96347 21.9024 1.94305 21.9256 1.91912C21.9421 1.90214 21.9443 1.90514 21.9654 1.89024C21.986 1.87573 21.9812 1.87336 22.0005 1.85764C22.0894 1.78524 22.1896 1.71578 22.2845 1.65256L22.5355 1.48154C22.5541 1.46708 22.5602 1.46779 22.5794 1.45548C22.6013 1.44133 22.5964 1.43699 22.6217 1.42248L22.7077 1.36914C22.7318 1.35822 22.7367 1.35979 22.7538 1.34471C22.7979 1.30569 22.9648 1.22195 23.0187 1.18379C23.0353 1.17207 23.0417 1.16916 23.0659 1.16009C23.102 1.14655 23.0968 1.13889 23.1604 1.10715C23.1827 1.09601 23.183 1.09012 23.2016 1.07936C23.2172 1.07031 23.2349 1.06495 23.2504 1.05687C23.2699 1.04663 23.2751 1.03956 23.2929 1.02983C23.3531 0.996803 23.4232 0.969588 23.4785 0.933074L23.7791 0.798821C23.8236 0.783533 23.7994 0.776306 23.8752 0.752503C24.0199 0.70712 24.2605 0.600864 24.4081 0.543756C24.4437 0.532385 24.4926 0.526523 24.5253 0.512953C24.6027 0.480811 24.6785 0.473711 24.7511 0.445713C24.8409 0.41107 24.9031 0.408643 24.9972 0.387266C25.0886 0.366495 25.1431 0.349438 25.2454 0.3341C25.3354 0.320632 25.4355 0.309943 25.5276 0.301857C25.5979 0.295691 25.736 0.295868 25.7945 0.282552C25.8178 0.296273 25.8433 0.309235 25.8707 0.32139C26.0047 0.380873 26.185 0.42105 26.3793 0.427696C26.4478 0.430046 26.5137 0.428125 26.5754 0.422389C26.6693 0.413697 26.7541 0.396186 26.8253 0.371726H26.8254Z" fill="#960000"/>
<path fill-rule="evenodd" clip-rule="evenodd" d="M26.6619 4.34065C26.758 4.31897 26.8664 4.31697 26.9685 4.30343C27.1317 4.28177 27.4504 4.27229 27.6221 4.26883C27.703 4.26722 27.7736 4.25582 27.7374 4.28983C27.5956 4.42272 27.3742 4.53706 27.1382 4.53499C27.0305 4.53406 26.9443 4.51202 26.8589 4.47394C26.8113 4.45276 26.6801 4.38133 26.6618 4.34065H26.6619ZM27.186 5.02473C27.5676 5.02473 27.9061 4.81598 28.0222 4.46429C28.0725 4.31192 28.0333 4.27224 28.0814 4.27614C28.2817 4.29241 28.2642 4.26426 28.2662 4.35677C28.2687 4.47424 28.2872 5.11211 28.3015 5.15666C28.3259 5.14539 28.3201 5.13401 28.3405 5.11241L28.3822 5.12474C28.4221 5.0386 28.4369 5.07509 28.4521 5.06147C28.4697 5.02705 28.4713 5.00348 28.499 4.98227C28.5328 4.95635 28.5465 4.96802 28.5661 4.92737C28.6155 4.82482 28.6898 4.74444 28.6924 4.68943C28.6956 4.62343 28.7085 4.40304 28.7176 4.36172C28.7366 4.35055 28.827 4.35252 28.8513 4.35252C29.0085 4.35252 29.4077 4.45092 29.5779 4.49931C29.6268 4.51323 29.7594 4.56213 29.7942 4.56481C29.7688 4.53747 29.7102 4.51323 29.6938 4.491C29.7494 4.49193 29.926 4.55392 29.9835 4.57282C30.2295 4.65363 30.3979 4.7381 30.6108 4.86541C30.6452 4.88597 30.6864 4.92165 30.72 4.93586C30.6831 4.88421 30.5309 4.80491 30.5086 4.78712C30.4812 4.76532 30.5139 4.7757 30.4427 4.73659C30.3433 4.68185 30.2312 4.63543 30.1156 4.58879C30.0814 4.57497 29.9403 4.51627 29.9245 4.49373L29.9206 4.4863C29.9118 4.47265 29.9252 4.47695 29.8798 4.46201L29.5999 4.38153C29.4487 4.3435 29.5266 4.34641 29.4713 4.33466C29.4393 4.32783 29.4366 4.33286 29.4297 4.31702C29.4663 4.30418 29.6412 4.34264 29.6785 4.35272C29.7184 4.36351 29.7576 4.37198 29.7966 4.38204C29.8254 4.38949 29.8888 4.42014 29.912 4.40162C29.9014 4.38578 29.9068 4.393 29.8831 4.38509C29.8625 4.37825 29.8621 4.38426 29.8532 4.36915C29.9242 4.38608 30.0059 4.41342 30.0728 4.4376C30.1201 4.45471 30.2465 4.50565 30.2818 4.51189C30.352 4.52433 30.6043 4.67781 30.668 4.69808C30.6485 4.66154 30.5669 4.61221 30.5225 4.59265C30.5464 4.58335 30.5277 4.60079 30.5508 4.58909C30.5283 4.57032 30.5281 4.56129 30.4999 4.54692L30.3092 4.45638C30.2584 4.43038 30.247 4.41046 30.1889 4.38957C29.9324 4.29734 29.7405 4.247 29.467 4.18125C28.811 4.02352 28.0723 3.99093 27.389 4.0683C27.1069 4.10026 27.0205 4.13117 26.7692 4.17749C26.7286 4.18499 26.6699 4.20493 26.6251 4.21562C26.5721 4.22828 26.5315 4.23881 26.4799 4.25362C26.3066 4.30335 26.1092 4.3743 25.9446 4.44142C25.8937 4.46219 25.7292 4.52857 25.6999 4.55376C25.7378 4.54977 25.8 4.52329 25.8403 4.51146C25.9384 4.48266 26.1989 4.40993 26.2789 4.40665C26.3398 4.57721 26.4417 4.72913 26.5912 4.83945C26.7462 4.9538 26.9362 5.02473 27.1859 5.02473H27.186Z" fill="#D1A639"/>
<path fill-rule="evenodd" clip-rule="evenodd" d="M28.1649 2.84495C28.0981 2.86016 27.9751 2.87047 27.9283 2.9034C27.8218 2.97817 27.8738 3.22525 27.9853 3.31394C28.0442 3.36084 28.0366 3.33734 28.1588 3.32001C28.1826 3.31665 28.2091 3.30603 28.2178 3.31632C28.2245 3.32923 28.2488 3.80752 28.2489 3.86137C28.1924 3.84843 28.0802 3.78202 28.0465 3.73548C28.0307 3.71367 28.0304 3.67877 28.0233 3.65093C27.9652 3.65234 27.9772 3.7093 27.9754 3.75764C27.9324 3.72855 27.931 3.70336 27.8555 3.69568C27.5524 3.6649 27.0366 3.74566 26.711 3.78344L26.6855 3.78743C26.6838 3.78786 26.6821 3.78849 26.6806 3.78892L26.6711 3.79254C26.681 3.80904 26.6926 3.81374 26.7202 3.8131L26.9175 3.79334C27.0093 3.78852 27.1036 3.77472 27.1975 3.78303L26.7612 3.8575C26.7779 3.90175 26.8617 3.96861 26.8982 4.00265C26.9321 4.03421 26.9434 4.01783 27.0037 4.00858C27.2308 3.97379 27.3807 3.94357 27.6306 3.92424C28.1237 3.88608 28.2718 3.90956 28.738 3.93005C28.7425 3.92252 28.7399 3.92934 28.7436 3.9161C28.7449 3.91178 28.7467 3.90142 28.7472 3.8969C28.7489 3.88302 28.7493 3.86875 28.7498 3.85475L28.7621 3.601C28.7656 3.5453 28.7653 3.48956 28.7688 3.43442C28.7707 3.40511 28.7712 3.37628 28.7718 3.34697C28.7724 3.32127 28.77 3.28956 28.7786 3.26527C28.7913 3.22964 29.6995 3.27945 29.673 3.55395C29.6652 3.63471 29.5967 3.6885 29.549 3.72393C29.4372 3.80717 29.266 3.86283 29.1223 3.89684C29.0841 3.90589 29.0405 3.9141 28.9992 3.92062C28.9703 3.9252 28.8862 3.93235 28.8678 3.94364C29.0911 3.96189 29.3721 4.01569 29.5896 4.07075C29.7558 4.11282 29.7065 4.11944 29.7857 4.04932C29.8176 4.02112 29.8727 3.94273 29.8981 3.89038C29.9959 3.68908 29.9682 3.39781 29.8656 3.21787C29.6338 2.81122 29.0543 2.75904 28.6122 2.79237C28.4817 2.8022 28.5023 2.72561 28.2375 2.77872C28.1634 2.79358 28.1791 2.82191 28.1651 2.8449L28.1649 2.84495Z" fill="#D1A639"/>
<path fill-rule="evenodd" clip-rule="evenodd" d="M26.2352 4.21716L26.515 4.12313C26.5069 3.99613 26.5132 3.94522 26.5546 3.83307C26.5841 3.75325 26.6389 3.66991 26.6855 3.61844C26.8096 3.4811 26.9291 3.39612 27.1379 3.36423C27.3981 3.32448 27.5148 3.46094 27.5767 3.41745C27.609 3.39483 27.6355 3.36211 27.6586 3.31971C27.6981 3.24729 27.7374 3.15218 27.7424 3.05959C27.7491 2.93552 27.6928 2.88958 27.5935 2.85476C27.3361 2.76445 26.9656 2.88412 26.7581 3.02161C26.6904 3.06651 26.6085 3.13044 26.5621 3.18038C26.3222 3.4388 26.1913 3.7488 26.2352 4.21713L26.2352 4.21716Z" fill="#D1A639"/>
<defs>
<radialGradient id="paint0_radial_9_1278" cx="0" cy="0" r="1" gradientUnits="userSpaceOnUse" gradientTransform="translate(24.375 17.6532) rotate(178.096) scale(21.0056 11.897)">
<stop stop-color="#EAE62C"/>
<stop offset="0.760784" stop-color="#D8B534"/>
<stop offset="1" stop-color="#C6853B"/>
</radialGradient>
</defs>
</svg>
