<svg width="75" height="47" viewBox="0 0 75 47" fill="none" xmlns="http://www.w3.org/2000/svg">
<path fill-rule="evenodd" clip-rule="evenodd" d="M35.3215 24.565C31.4482 24.5723 27.575 24.5795 23.7017 24.5868C25.4616 22.6631 27.2215 20.7394 28.9814 18.8157C33.139 18.8157 37.2967 18.8157 41.4543 18.8157C42.1986 23.0152 41.6971 27.3248 38.6052 31.864C40.0466 32.0161 41.4899 32.1974 42.9299 32.3999V21.9953C47.7945 21.9953 52.6592 21.9953 57.5238 21.9953C64.9107 20.8745 64.2259 11.5048 57.57 10.5838H48.601C48.356 10.2649 48.0838 9.91543 47.7943 9.61473C47.7944 9.58604 47.7932 9.55679 47.7904 9.52666C47.7771 9.38491 47.7372 9.28216 47.6994 9.15057C47.6578 9.00568 47.5995 8.91495 47.537 8.79397C47.5072 8.63532 47.4939 8.42058 47.4854 8.266C47.4752 8.08118 47.4789 7.89605 47.4681 7.71097C47.4589 7.55306 47.4471 7.39441 47.4542 7.2362C47.4618 7.06698 47.4347 6.88622 47.4486 6.72398C47.4839 6.31554 47.411 5.81497 47.3331 5.40993L47.3291 5.38971L47.1882 4.83911C49.6255 4.84074 52.0702 4.84591 54.5263 4.85642C57.9175 4.87091 59.713 4.72649 62.8521 6.38043C66.2081 8.14865 68.3275 11.1685 68.8441 15.8104C68.5674 23.3203 64.3257 26.7176 57.7775 27.7228C54.8648 27.7228 51.9522 27.7228 49.0395 27.7228V33.3687C50.8993 33.6908 52.7401 34.0291 54.5491 34.3647C57.1936 34.9321 68.7726 37.2645 69.3968 33.4501C69.1764 31.7374 68.2729 30.6114 67.368 29.4865C68.3969 30.316 69.3851 31.1925 70.1761 32.2967C70.9528 33.3812 71.3769 34.4147 71.2249 35.7561C70.7974 39.53 65.0341 40.2992 61.3275 40.0705C55.9049 39.5858 50.3136 38.7824 44.6431 37.8293C38.3098 36.7648 32.5486 35.4174 26.0526 35.3837C15.8703 35.3309 6.04212 38.7285 0 46.8215C3.12835 41.1995 7.22308 37.4613 11.9309 35.0717L11.8281 35.0835C-0.656999 24.6762 6.39914 6.16787 21.811 4.87801C24.4198 4.87594 27.0224 4.87087 29.6235 4.86507C29.589 4.93779 29.5584 5.0117 29.5381 5.07884C29.5145 5.13138 29.4961 5.18259 29.4818 5.23838C29.4579 5.29702 29.4395 5.352 29.4263 5.41415C29.4118 5.44975 29.3997 5.48562 29.3894 5.52359C29.3788 5.56308 29.3716 5.60105 29.3637 5.64042L29.3512 5.67643L29.1871 6.53923L29.1862 6.5968C29.1806 6.68956 29.1566 6.77841 29.1508 6.87805C29.144 6.90859 29.1373 6.93853 29.1322 6.96985C29.1138 7.08243 29.1237 7.1766 29.1115 7.28009C29.0822 7.43153 29.0913 7.57679 29.0887 7.7333C29.0865 7.87306 29.0788 8.00261 29.0895 8.14359C29.137 8.76946 29.1128 9.9531 29.6508 10.3694C29.8424 10.5177 30.0677 10.5676 30.3 10.5837H22.3872C9.5323 12.0369 7.74496 27.2448 18.6994 32.5977C22.4972 31.6668 26.5377 31.3284 30.6827 31.3738C33.0075 29.6294 34.6501 27.4249 35.3213 24.5649L35.3215 24.565ZM32.6108 10.5838H32.565L32.6081 10.5796L32.6108 10.5838V10.5838ZM64.7649 44.1453C64.9474 44.0768 65.2041 44.0947 65.4033 44.0299C65.6133 43.9616 65.8488 43.9898 66.0666 43.9365C66.178 43.9092 66.226 43.8731 66.364 43.8522C66.5922 43.8178 67.1116 43.7468 67.287 43.6755C67.3998 43.6297 67.4801 43.6276 67.6042 43.6037C67.7209 43.5811 67.7656 43.5345 67.8784 43.5145C68.0259 43.4885 68.0595 43.5211 68.1875 43.4371L68.7546 43.2548C69.0147 43.2122 68.8884 43.2082 69.0264 43.1617C69.1966 43.1043 69.0557 43.195 69.2926 43.0658C69.3831 43.0164 69.519 43.0186 69.5943 43.0638C69.5101 43.1438 69.4275 43.1057 69.3318 43.1679C69.2611 43.2139 69.3102 43.2109 69.1993 43.2378C68.8626 43.3197 69.118 43.3241 68.773 43.3814L68.2012 43.5595C68.0988 43.6062 68.0044 43.5848 67.9082 43.6308C67.7772 43.6934 67.7964 43.7004 67.6189 43.7276C67.455 43.7529 67.4742 43.7855 67.3476 43.8199C67.2362 43.8503 67.1192 43.8442 67.0051 43.8668C66.9094 43.8858 66.8376 43.9278 66.7045 43.9509C66.5988 43.9692 66.4654 43.9763 66.3665 44.0026C65.9998 44.1004 65.8758 44.0594 65.716 44.1058C65.5963 44.1406 65.5805 44.1623 65.4239 44.1794C65.3045 44.1925 65.1836 44.204 65.065 44.209C64.8734 44.2171 64.7964 44.2291 64.7649 44.1453L64.7649 44.1453ZM72.3748 39.6286C72.5188 39.5851 72.4918 39.6341 72.5765 39.5254C72.7779 39.2664 72.9156 39.3193 72.9488 38.8907C73.1186 38.7885 72.9942 38.7963 73.1087 38.6772C73.2465 38.5341 73.1086 38.642 73.2605 38.4505C73.3035 38.3962 73.2949 38.3883 73.3095 38.3241C73.3161 38.2951 73.3159 38.2818 73.3284 38.2532C73.3501 38.204 73.5097 38.0319 73.3849 37.9151C73.2994 38.0011 73.3548 38.0815 73.2989 38.1593C73.2442 38.2356 73.2675 38.1279 73.2168 38.256C73.1976 38.3045 73.2026 38.3517 73.1771 38.3944C73.1402 38.4561 73.1345 38.4137 73.0927 38.4875C73.0684 38.5303 73.0681 38.5743 73.0427 38.6158C73.0001 38.6853 73.0127 38.6217 72.9666 38.7172C72.889 38.8783 72.8822 38.8482 72.7337 39.0202L72.5133 39.3346C72.4591 39.3903 72.4856 39.3511 72.4276 39.428C72.3616 39.5154 72.3014 39.5152 72.3748 39.6286V39.6286ZM70.9876 40.8711L70.9005 40.7812L70.5781 40.9263C70.4394 40.9998 70.4009 41.0311 70.2568 40.9532C70.1746 41.0292 70.0903 41.0498 69.9883 41.1308C69.9184 41.1861 69.8058 41.3039 69.72 41.3357C69.6231 41.334 69.5509 41.3108 69.4821 41.3284C69.315 41.3711 69.1502 41.3365 68.8487 41.5135L68.6689 41.6046C68.5738 41.649 68.6008 41.6871 68.5097 41.7136C68.4038 41.7442 68.3881 41.7006 68.29 41.7702C68.2352 41.8091 68.1865 41.8593 68.1605 41.8976C68.3269 42.0232 68.7112 41.7529 68.7426 41.7415C68.8303 41.7097 68.9315 41.7272 69.0085 41.7434C69.1068 41.6394 69.0356 41.6677 69.2088 41.5921C69.4099 41.5044 69.3592 41.5815 69.4933 41.5852L69.8659 41.4283C69.9282 41.3973 69.9683 41.3859 70.0296 41.422L69.8548 41.6147C69.5621 41.8435 69.5432 41.7614 69.3938 41.876C69.3244 41.9291 69.3835 41.9114 69.2955 41.9571C69.2171 41.9977 69.2331 41.9466 69.1873 42.0321C69.2706 42.0898 69.4691 42.02 69.6033 42.0073C69.9981 41.9702 70.2392 41.7248 70.2605 41.7148C70.4935 41.6061 70.3293 41.684 70.4154 41.6218C70.4193 41.6189 70.4244 41.6148 70.4286 41.6122C70.4891 41.5761 70.7251 41.5293 70.9127 41.3947L71.6008 40.9983C71.7122 40.9352 71.634 40.9229 71.7153 40.8684C71.7244 40.8623 71.7915 40.8413 71.8104 40.8314C71.7265 40.7794 71.6698 40.835 71.5916 40.8583C71.2166 40.9698 71.5664 40.8822 71.2724 41.0162C71.129 41.0817 71.291 41.0443 71.0787 41.1383L70.5884 41.415C70.5215 41.48 70.6342 41.4269 70.497 41.4797C70.2808 41.5629 70.434 41.5794 70.2935 41.5938C70.2204 41.6013 70.2259 41.5913 70.1787 41.5528C70.2244 41.4794 70.1843 41.5346 70.2581 41.4945C70.4365 41.3979 70.2491 41.412 70.5027 41.3167L70.4716 41.1755C70.8932 41.1584 70.4648 41.105 70.9021 41.0973C70.9464 40.998 70.917 41.0361 71.038 40.9903C71.1484 40.9485 71.1112 40.9371 71.2124 40.895C71.3757 40.8268 71.2564 40.8651 71.3766 40.7875L71.5394 40.6799C71.6465 40.6236 71.6109 40.6725 71.7124 40.5823C71.9163 40.4011 72.0808 40.2926 72.0151 40.1027C71.9637 40.1211 71.7782 40.2406 71.7449 40.2645C71.6163 40.3568 71.693 40.3763 71.477 40.5558C71.3896 40.6285 71.0917 40.8381 70.9875 40.8713L70.9876 40.8711ZM12.4033 40.507C12.5441 40.6093 12.7277 40.4508 12.8414 40.427C12.9668 40.4008 12.9556 40.4224 13.0541 40.3655C13.1604 40.3042 13.157 40.3256 13.2814 40.2964C13.3886 40.2712 13.3901 40.2442 13.4715 40.2158C13.5493 40.1887 13.6224 40.1914 13.7112 40.1587C13.961 40.0665 14.4636 39.9612 14.5972 39.9073C14.7604 39.8413 16.2416 39.5171 16.4781 39.4863C16.68 39.4599 16.7826 39.4341 16.9633 39.3968C17.1173 39.365 17.3158 39.3567 17.4726 39.3365C17.6521 39.3136 17.7741 39.2744 17.9666 39.255C18.3078 39.2205 18.6591 39.1682 18.9908 39.1409C19.3672 39.1099 19.7137 39.1019 20.0873 39.0595C20.9484 38.9618 23.7186 38.9773 24.6266 39.0403C25.3166 39.0882 26.0504 39.1366 26.7413 39.2126C27.1091 39.2531 27.4318 39.2509 27.7938 39.3099L29.3579 39.4917C29.547 39.5114 29.6724 39.5514 29.8423 39.572C30.0107 39.5925 30.198 39.5988 30.3617 39.6278C30.5425 39.6598 30.6465 39.6916 30.8464 39.7118C31.0452 39.7318 31.1545 39.752 31.3365 39.7943C31.4988 39.8319 31.6726 39.8333 31.8431 39.8598L32.8222 40.0447C33.1745 40.101 33.4569 40.1642 33.8033 40.2062L35.2279 40.4954C35.2535 40.5038 36.1203 40.6646 36.4148 40.7454C36.4955 40.7674 36.5877 40.7725 36.6721 40.7852C36.8527 40.8125 36.9539 40.8678 37.1319 40.8917L38.5411 41.198C38.8056 41.2858 39.2018 41.3303 39.482 41.3988L41.3437 41.8397C41.5251 41.8669 41.6305 41.9214 41.8015 41.9504C42.1033 42.0016 42.4484 42.1157 42.7373 42.1777C42.8166 42.1947 42.8929 42.1985 42.9744 42.2142C43.0756 42.2339 43.1187 42.2633 43.1993 42.2858C43.4128 42.3452 44.4531 42.5543 44.6066 42.6097C44.7654 42.6672 44.9227 42.6619 45.0743 42.713C45.3537 42.8074 45.6994 42.8652 45.9988 42.9292C46.0868 42.9481 46.1251 42.9734 46.2041 42.9947L50.2119 43.8697C50.3072 43.8866 50.3423 43.909 50.4223 43.9321C50.4995 43.9544 50.5971 43.9606 50.679 43.9732L51.6411 44.1727C51.8064 44.2081 51.9805 44.2078 52.1357 44.2521L53.0971 44.4343C53.2875 44.4558 53.4003 44.4762 53.5842 44.5176C53.7466 44.5541 53.9183 44.5607 54.09 44.5826C54.2616 44.6043 54.3914 44.6531 54.5769 44.6679C54.9394 44.6967 55.2534 44.7727 55.6148 44.7971C55.9788 44.8217 56.2844 44.8875 56.652 44.9063C56.968 44.9226 57.0744 45.0316 57.6655 45.0444C58.0293 45.0523 58.4052 45.0881 58.7497 45.097C59.8879 45.1262 61.0177 45.0809 62.1544 45.0247C62.4045 45.0123 62.6579 45.0139 62.9006 44.9318C63.0712 44.8742 63.4399 44.9806 64.2019 44.768C64.3813 44.7179 64.5013 44.7501 64.682 44.6774C64.893 44.5925 64.9105 44.6111 65.1365 44.5589C65.2246 44.5385 65.2378 44.5124 65.3504 44.5052C65.4434 44.4993 65.5439 44.5083 65.6417 44.4997C65.7704 44.4884 65.7499 44.466 65.8645 44.4458C66.0663 44.4105 66.1394 44.4139 66.3304 44.3398C66.4091 44.3093 66.4827 44.3038 66.5732 44.287C66.7385 44.2565 66.7978 44.1906 67.0119 44.1584C67.6016 44.07 68.6454 43.7502 69.242 43.5193C69.3629 43.4725 69.5441 43.3984 69.6592 43.3696C69.9034 43.3083 70.2184 43.1302 70.4537 43.0298C70.5435 42.9915 70.5557 42.9763 70.6311 42.9362C70.7122 42.8932 70.7727 42.8918 70.8495 42.8595L71.9551 42.2487C72.0264 42.197 72.0486 42.1648 72.0983 42.1229C72.1776 42.0564 72.2754 42.0499 72.3711 41.967L72.7864 41.6621C72.8417 41.6163 72.8925 41.5721 72.9415 41.5257L73.3647 41.1197C73.4904 40.9698 73.6927 40.8031 73.6234 40.5941C73.7632 40.5078 73.658 40.5709 73.736 40.4464C73.7965 40.3496 73.7964 40.4289 73.8429 40.2867C73.9242 40.0382 73.9275 40.2427 73.9594 39.8674L73.8366 39.7957C73.8446 39.7431 73.839 39.7391 73.858 39.69C73.8899 39.6071 73.8716 39.6684 73.9025 39.6233C73.9524 39.5504 74.0509 39.2505 74.1299 39.12C74.2151 38.9791 74.1676 38.8849 74.2444 38.7493C74.297 38.6565 74.3289 38.4408 74.2609 38.3283C74.1837 38.4068 74.198 38.5672 74.1364 38.6468C74.0426 38.7679 74.0492 38.8135 74.0145 38.9612L73.87 38.8639C73.8251 39.0086 73.911 39.0231 73.9048 39.1381L73.8627 39.2236C73.8304 39.1292 73.8658 39.0933 73.7954 39.0349C73.6996 39.0475 73.715 39.1043 73.6832 39.1768C73.6316 39.2945 73.6292 39.2023 73.5695 39.352C73.5224 39.4699 73.52 39.4276 73.4603 39.5111L73.0245 40.0571C72.8501 40.2658 72.699 40.3583 72.5221 40.5633C72.3565 40.755 72.065 40.8821 71.8636 41.0517C71.6407 41.2394 71.426 41.3639 71.1555 41.4933L70.1841 41.9698C70.0796 42.0232 69.9447 42.1394 69.8112 42.1631C69.7089 42.1813 69.6556 42.1637 69.5642 42.2112C69.504 42.2425 69.5584 42.2307 69.478 42.2573C69.2309 42.339 69.3336 42.3175 69.1527 42.3887C68.9858 42.4544 68.9117 42.5208 68.7066 42.5127C68.4633 42.5033 68.3074 42.5973 68.2287 42.4895C68.2831 42.465 68.2953 42.4779 68.3561 42.4641C68.557 42.4188 68.3496 42.3917 68.548 42.3398C68.7234 42.2938 68.7531 42.3183 68.9008 42.2161C68.9511 42.1812 68.9388 42.1923 69.0136 42.1696L69.1218 42.1191C68.5348 41.901 67.9511 42.4195 67.7611 42.3853C67.6465 42.3205 67.7193 42.2978 67.5307 42.308C67.4518 42.3123 67.3162 42.3478 67.2545 42.3414C67.1652 42.3324 67.0165 42.1934 66.8277 42.3699C66.6881 42.5004 66.6479 42.5204 66.4016 42.5277C66.2436 42.5325 65.9909 42.5931 65.8719 42.5113C65.9195 42.412 66.1647 42.4072 66.2657 42.383C66.3438 42.3642 66.4098 42.3354 66.4767 42.3187C66.5562 42.2988 66.6396 42.3055 66.7064 42.2772C66.871 42.2076 66.7697 42.137 67.0816 42.1965C67.1511 42.2097 67.2236 42.187 67.2931 42.1559C67.3695 42.1218 67.3875 42.0651 67.4197 42.0062C67.2425 42.022 67.4474 42.0467 67.2539 42.0742C67.0911 42.0974 66.6127 42.0839 66.5791 42.0915C66.5129 42.1065 66.4913 42.138 66.4162 42.1529C66.2221 42.1915 65.9479 42.1677 65.7178 42.2146C65.5521 42.2485 64.9852 42.3233 64.8859 42.3646C64.4995 42.5251 64.527 42.2776 64.0568 42.3858C63.862 42.4306 64.0165 42.5347 63.7505 42.5551C63.6297 42.5643 63.3587 42.573 63.2419 42.5646C63.0433 42.5503 63.0457 42.409 62.8709 42.4854C62.6998 42.5604 62.8355 42.626 62.5165 42.57C62.3716 42.5445 62.2151 42.5786 62.068 42.573C61.8703 42.5656 61.9139 42.4879 61.6562 42.5346C61.5104 42.561 61.3438 42.5349 61.191 42.5474C61.0234 42.5612 60.9861 42.6295 60.7782 42.6396C60.174 42.6687 59.5759 42.4378 59.0022 42.4713C58.7935 42.4836 58.3387 42.3941 58.1405 42.3453C57.9943 42.3094 57.8719 42.3089 57.7228 42.2807C57.5794 42.2537 57.4656 42.209 57.316 42.1898C57.1344 42.1664 57.0772 42.1598 56.9143 42.1103C56.7806 42.0698 56.6226 42.0651 56.479 42.0407L55.6737 41.8657C55.5431 41.8285 55.3939 41.8305 55.2552 41.8027C55.1042 41.7725 55.0376 41.7326 54.8506 41.7114C54.6783 41.6919 54.6029 41.6703 54.45 41.6287C54.3023 41.5885 54.1562 41.5968 54.0158 41.5608C53.7683 41.4974 53.471 41.4591 53.2249 41.3922C53.0952 41.3569 52.9502 41.3534 52.8095 41.3285L51.999 41.158C51.8706 41.1255 51.6947 41.1174 51.5572 41.0951C51.4097 41.0712 51.3336 41.0256 51.1656 41.0086C50.9984 40.9918 50.8979 40.9733 50.7395 40.9314C50.6049 40.8959 50.4665 40.8877 50.3243 40.8679C50.1704 40.8465 50.064 40.7989 49.9094 40.7786L48.6671 40.56C48.5177 40.5294 48.3708 40.5248 48.2224 40.4999C48.0833 40.4767 47.9819 40.4376 47.8237 40.4188C47.6677 40.4002 47.5324 40.3953 47.3884 40.3517C47.2172 40.2999 46.3461 40.1845 46.1228 40.1538C45.9735 40.1333 45.8744 40.0866 45.7053 40.069C45.1359 40.01 44.5705 39.877 43.9899 39.8139C43.5859 39.77 43.1405 39.6824 42.7289 39.6138C42.5836 39.5895 42.4192 39.5824 42.2701 39.5657C42.1202 39.5488 42.0077 39.5116 41.8711 39.493C41.7154 39.4718 41.5654 39.4657 41.4068 39.4468C41.2557 39.4289 41.1412 39.395 40.9994 39.3738C40.8532 39.3518 40.6906 39.3447 40.5402 39.3316C40.3828 39.3179 40.2754 39.2826 40.128 39.2603C39.9827 39.2384 39.8366 39.2332 39.6875 39.2212C39.1519 39.178 38.4853 39.0429 37.9351 39.0005C37.7858 38.9891 37.64 38.9815 37.4866 38.9659C37.3374 38.9508 37.2103 38.9118 37.0578 38.8974C36.4426 38.8393 35.8609 38.782 35.2408 38.7343C34.9449 38.7116 34.6744 38.6633 34.3534 38.6432C33.7418 38.6049 33.154 38.5341 32.5427 38.5082C32.2243 38.4948 31.9387 38.4552 31.6247 38.4312C31.0056 38.3839 30.3644 38.3875 29.7483 38.3385C28.3312 38.2254 25.4406 38.2755 23.9215 38.2939C22.7887 38.3076 21.3711 38.4497 20.2308 38.5374C20.0644 38.5501 19.9626 38.5825 19.8142 38.603C19.6568 38.625 19.5121 38.6324 19.3567 38.6466C19.0468 38.6749 18.8053 38.7366 18.4822 38.767C18.3249 38.7819 18.2245 38.8211 18.0839 38.8453C17.9337 38.8712 17.7827 38.8748 17.6378 38.9036C17.3817 38.9546 17.0844 39.0178 16.8328 39.0788C16.7041 39.1101 16.5378 39.1146 16.4235 39.149L15.6422 39.3466C15.3721 39.3942 15.1212 39.4993 14.8776 39.5614L14.495 39.6802C14.4372 39.6966 14.365 39.7062 14.3103 39.7233C14.2357 39.7466 14.2178 39.7735 14.1364 39.7982C14.0665 39.8194 14.0067 39.8206 13.935 39.8475C13.8673 39.8729 13.8382 39.9001 13.7599 39.9229C13.524 39.9913 13.2696 40.1225 13.047 40.1847C12.9294 40.2175 12.9786 40.2154 12.8977 40.2612C12.8277 40.3009 12.7784 40.2939 12.7095 40.3227C12.6071 40.3655 12.6687 40.3764 12.5548 40.4165C12.4665 40.4476 12.4282 40.4204 12.4034 40.507L12.4033 40.507Z" fill="url(#paint0_radial_12_2386)"/>
<path fill-rule="evenodd" clip-rule="evenodd" d="M43.3057 2.32365C43.2309 2.3306 43.1765 2.39083 43.1842 2.45823C43.1919 2.5256 43.2588 2.57462 43.3335 2.56767C43.4083 2.56076 43.4627 2.50053 43.455 2.43313C43.4473 2.36573 43.3804 2.31674 43.3057 2.32365ZM33.1212 2.89577C33.02 2.90516 32.9463 2.98672 32.9568 3.07793C32.9672 3.16915 33.0576 3.23547 33.1588 3.22612C33.26 3.21673 33.3337 3.13517 33.3232 3.04396C33.3128 2.95274 33.2224 2.88641 33.1212 2.89577ZM37.9561 2.08222C37.8549 2.09161 37.7813 2.17317 37.7917 2.26439C37.8021 2.3556 37.8925 2.42193 37.9938 2.41257C38.095 2.40318 38.1686 2.32162 38.1582 2.23041C38.1478 2.1392 38.0573 2.07287 37.9561 2.08222ZM37.1566 0.813429C37.1783 0.800008 37.1597 0.815573 37.1725 0.797678C37.1454 0.784627 37.0633 0.796865 37.0314 0.816646C36.9955 0.839088 37.0352 0.830325 36.9871 0.850549C36.9753 0.855467 36.9437 0.862306 36.9274 0.867704C36.8599 0.889888 36.8856 0.90013 36.8328 0.925789L36.7394 0.985426C36.717 1.00299 36.6659 1.02421 36.6368 1.04639L36.4607 1.17266C36.3633 1.25747 36.3348 1.26357 36.2201 1.3881L36.0674 1.53155C36.0416 1.56586 36.0277 1.57876 35.9955 1.61522L35.9272 1.69312C35.8742 1.75109 35.84 1.79524 35.792 1.84937C35.7465 1.90054 35.7154 1.96553 35.6657 2.02085C35.6148 2.07753 35.4758 2.31789 35.433 2.36972C35.3845 2.42847 35.3713 2.48907 35.324 2.54542C35.2876 2.58875 35.2995 2.60106 35.2744 2.64502L35.1905 2.77967C35.1533 2.8588 35.093 2.99478 35.0481 3.06688C35.0025 3.14031 34.9834 3.2273 34.9433 3.30513C34.9309 3.32924 34.9255 3.32573 34.9138 3.35157C34.9062 3.36821 34.9031 3.39083 34.8971 3.40766C34.8809 3.4535 34.8643 3.44674 34.8515 3.50197L34.7383 3.81033C34.7259 3.85869 34.7101 3.86797 34.6982 3.90923C34.6872 3.94738 34.6913 3.97874 34.6757 4.02004C34.6445 4.10282 34.6469 4.20231 34.627 4.24842C34.6035 4.30299 34.6091 4.29448 34.6048 4.36081L34.5298 4.82257C34.5277 4.91855 34.5179 4.97497 34.5046 5.06152C34.4913 5.14715 34.4985 5.23278 34.4964 5.32003C34.4945 5.40448 34.4712 5.46105 34.4728 5.55928C34.4755 5.73254 34.459 5.90191 34.4638 6.06832C34.4743 6.426 34.4905 6.7931 34.5312 7.15066C34.5466 7.28524 34.7986 9.03993 34.8427 9.15089C34.8754 9.23311 34.9523 9.51995 34.8867 9.56753C34.7989 9.63113 33.407 9.70115 33.2807 9.75957C33.2547 9.77159 33.1965 9.81214 33.1888 9.82923C33.1066 10.0132 33.7441 9.89071 33.8405 9.87984C34.054 9.85573 34.2762 9.83048 34.49 9.80238C34.6988 9.77495 34.893 9.73687 35.1001 9.70696C35.4118 9.66189 35.7261 9.63848 36.0319 9.57042C36.136 9.54723 36.2313 9.53814 36.3362 9.52076C36.5487 9.48553 36.7462 9.46774 36.9589 9.42423C37.1572 9.38359 37.3722 9.35975 37.5734 9.32998C37.7782 9.29963 37.9677 9.25474 38.1762 9.22613C38.4212 9.19244 38.5916 9.13588 38.7678 9.11103C38.9953 9.07894 39.1976 9.02411 39.3619 9.00011C39.5742 8.96924 39.7847 8.94365 39.9962 8.91348C40.203 8.88398 40.3999 8.84793 40.6109 8.82349C41.1734 8.75842 41.7477 8.69908 42.3133 8.67431L43.0975 8.65183C43.2256 8.6529 43.331 8.67375 43.4661 8.6735C43.606 8.67327 43.6961 8.6993 43.8291 8.6993C43.9567 8.69934 44.0584 8.72589 44.1898 8.72999C44.2727 8.73261 44.292 8.74681 44.3565 8.75661C44.413 8.76515 44.4783 8.76293 44.5346 8.769C44.5949 8.77543 44.6241 8.79676 44.7033 8.80164L45.0389 8.85851C45.0973 8.87614 45.1378 8.87759 45.2018 8.88731L45.7434 9.03091C45.9065 9.09388 46.0933 9.14697 46.2466 9.22731L46.564 9.40984C46.7119 9.51636 46.7018 9.50261 46.8237 9.64436C46.9906 9.60506 46.7787 9.38818 46.7198 9.33161C46.7033 9.31593 46.6869 9.28931 46.669 9.27256L46.5333 9.19292C46.4831 9.17466 46.5011 9.1723 46.4649 9.15337L46.1609 9.02969C46.1257 9.01638 46.1279 9.00718 46.0892 8.99368L45.9393 8.93977C45.8788 8.92399 45.9031 8.91696 45.7787 8.88746L45.5363 8.81007C45.5049 8.79869 45.478 8.79943 45.449 8.7921C45.4105 8.78245 45.4075 8.7714 45.3717 8.76245C45.3422 8.75517 45.3168 8.75609 45.2873 8.75099C45.1949 8.73502 45.0441 8.67845 44.9461 8.66928L44.7657 8.638C44.7086 8.62576 44.6486 8.63064 44.5876 8.61567L44.2214 8.56058C44.1583 8.55237 44.0885 8.55836 44.0242 8.54908C43.8175 8.51917 43.7972 8.53659 43.6429 8.52113C43.4464 8.50143 43.4401 8.50549 43.2427 8.50501C43.1714 8.50483 43.1243 8.49226 43.0571 8.48889C42.9246 8.48227 42.7674 8.49773 42.6335 8.50024C42.4981 8.50279 42.3631 8.49821 42.2283 8.49924C41.9622 8.50124 41.6133 8.5381 41.342 8.56328C40.6153 8.63061 40.0729 8.70618 39.3506 8.8215C39.2134 8.84342 39.1014 8.87463 38.9729 8.90084C38.8449 8.92694 38.7194 8.93389 38.5922 8.96902L37.8637 9.13244C37.5936 9.16764 37.3513 9.22879 37.0837 9.26572C36.8128 9.3031 36.5635 9.35379 36.2987 9.39299C36.0339 9.43218 35.7533 9.46131 35.4862 9.49233C35.4175 9.50032 35.3402 9.50549 35.2732 9.51681C35.1525 9.53725 35.002 9.60055 34.9761 9.44933C34.9665 9.39343 34.955 9.33039 34.9484 9.27223C34.9198 9.02167 34.8708 8.77059 34.8369 8.52176L34.6971 7.41709C34.6552 7.04991 34.648 6.67482 34.6215 6.30628C34.6147 6.21026 34.6228 6.13735 34.6277 6.04599C34.6323 5.96184 34.6247 5.8642 34.6225 5.77665C34.62 5.67704 34.6283 5.61681 34.6366 5.52434C34.6443 5.43901 34.6364 5.34898 34.6399 5.26265L34.7199 4.5297C34.7409 4.45236 34.7298 4.35353 34.7487 4.28635C34.7624 4.23747 34.771 4.23858 34.7753 4.17007C34.7784 4.12171 34.782 4.10237 34.8009 4.06093C34.8205 4.01778 34.8188 3.99094 34.8273 3.94398C34.8369 3.89082 34.8553 3.89078 34.8668 3.84534C34.884 3.77753 34.8668 3.79217 34.9042 3.73631L35.0536 3.39453C35.1027 3.30942 35.0917 3.28106 35.1177 3.24553L35.2622 2.95134C35.277 2.91418 35.291 2.90812 35.3122 2.85994L35.4159 2.67245C35.4444 2.60587 35.4441 2.62346 35.4716 2.57666C35.4941 2.53828 35.4931 2.5229 35.5198 2.4843C35.5396 2.45572 35.5654 2.42045 35.5824 2.39416C35.602 2.36406 35.6127 2.33249 35.6324 2.3028L35.8167 2.03771C35.8328 2.01142 35.8232 2.01693 35.8452 1.99046L35.9777 1.8236C36.0793 1.7031 36.174 1.57932 36.2911 1.4657C36.3108 1.44659 36.3059 1.44411 36.3264 1.42329L36.524 1.23632C36.5756 1.18634 36.6431 1.15132 36.697 1.09904C36.7294 1.06747 36.7518 1.06577 36.7874 1.03763L36.8839 0.972005C36.9413 0.932481 36.88 0.943573 36.9751 0.911369C37.0694 0.879462 37.0148 0.873288 37.0594 0.845003C37.0873 0.82733 37.129 0.830325 37.1566 0.813318V0.813429ZM37.7546 0.381846C37.7551 0.324797 37.7039 0.255325 37.757 0.164557C37.7882 0.111391 37.8851 0.064731 37.9492 0.0415861C38.1361 -0.0258891 38.4795 0.00524208 38.6814 0.0213992C38.7469 0.0266123 38.7532 0.0398489 38.8042 0.0523087C38.9298 0.083107 38.8948 0.0648051 39.0333 0.123074C39.0966 0.149658 39.1599 0.205486 39.1996 0.273553C39.2823 0.415048 39.2427 0.361215 39.2387 0.500159C39.2386 0.504596 39.2387 0.508736 39.2391 0.512655C39.1377 0.547668 39.016 0.572773 38.8807 0.585344C38.7919 0.593552 38.6972 0.596362 38.5988 0.592961C38.3194 0.583385 38.061 0.525929 37.8694 0.440891C37.8278 0.422368 37.7893 0.402662 37.7545 0.381846H37.7546ZM39.2501 0.543898C39.2832 0.587784 39.3817 0.562199 39.46 0.582053C39.5468 0.604089 39.662 0.606973 39.7151 0.624054C39.8333 0.662284 39.9786 0.674374 40.1065 0.692971C40.1548 0.699996 40.1765 0.715266 40.221 0.723437C40.2652 0.731497 40.3171 0.730535 40.3561 0.740962C40.4062 0.754383 40.4109 0.763811 40.4794 0.772093C40.5626 0.782187 40.8783 0.855356 40.9692 0.888631C41.01 0.903605 41.0561 0.900943 41.0984 0.913144C41.1437 0.926232 41.1502 0.937768 41.2097 0.94727C41.2708 0.957067 41.2805 0.966126 41.3293 0.982062C41.3709 0.995704 41.4127 0.995408 41.4563 1.00857C41.5048 1.02314 41.5156 1.03353 41.5758 1.04403C41.635 1.05438 41.6382 1.06728 41.6855 1.07941L41.9281 1.14578C42.0341 1.19347 42.3495 1.28494 42.3835 1.30069C42.4478 1.33049 42.5321 1.35678 42.6033 1.38148C42.7447 1.43061 42.9009 1.5043 43.0364 1.56168C43.1261 1.59969 43.2838 1.65478 43.3619 1.70336C43.4224 1.74089 43.7631 1.89185 43.8674 1.95995C43.9588 2.01959 44.0733 2.0678 44.1693 2.1281C45.1575 2.77195 45.6501 3.25973 46.1344 4.23285C46.1842 4.3329 46.2573 4.45358 46.2871 4.55451L46.4585 5.02595L46.5894 5.5374C46.6518 5.86157 46.7229 6.34739 46.6954 6.66588C46.6799 6.84545 46.7072 7.02603 46.6991 7.20568C46.6906 7.39454 46.7024 7.55943 46.7135 7.74992C46.7244 7.93741 46.7202 8.11395 46.7306 8.30295C46.7371 8.41983 46.7779 8.90794 46.8152 9.01645C46.8411 9.09188 46.9381 9.22631 46.97 9.33738C46.992 9.41391 47.0301 9.51026 47.0375 9.58935C47.0463 9.68322 46.9722 9.79451 46.9715 9.81115C46.9798 9.87226 46.9773 9.84897 47.0158 9.88313C47.6002 10.401 48.4895 11.6968 48.9748 12.298C49.0074 12.3312 49.032 12.3752 49.0654 12.4075L49.1554 12.5168C49.2355 12.6 49.4039 12.8477 49.467 12.9148L49.5823 13.1112C49.6177 13.2143 49.6884 13.3148 49.6616 13.4214C49.6538 13.4521 49.6288 13.5339 49.6119 13.5562C49.5501 13.638 49.4402 13.7032 49.3199 13.6643C49.075 13.5853 48.823 13.0101 48.7303 12.8204C48.7127 12.7663 48.7004 12.7217 48.6762 12.671C48.6409 12.5966 48.604 12.5549 48.534 12.5142C48.4912 12.4893 48.5096 12.4951 48.4783 12.4713C47.5917 11.9628 46.8615 11.759 45.7811 11.6272C45.2123 11.6096 44.76 11.6206 44.1892 11.6994C41.9493 12.121 40.7134 13.003 38.9092 13.5374C38.6082 13.6266 38.3797 13.7125 38.0588 13.773C37.5656 13.8658 37.1947 13.7669 36.7441 13.6498C36.1701 13.4403 35.7892 13.2029 35.3731 12.8337C35.0165 12.469 34.2522 11.6294 34.0206 11.2441L33.7629 10.9015C33.7416 10.8697 33.7303 10.8703 33.7112 10.8437C33.6956 10.8219 33.6902 10.7964 33.6763 10.7774C33.6548 10.7479 33.6504 10.7648 33.625 10.7297L33.4983 10.5455C33.4624 10.506 33.4468 10.4623 33.4139 10.4294C33.3854 10.4009 33.3858 10.4046 33.3666 10.3668C33.3496 10.3336 33.3483 10.3299 33.3261 10.307C33.2443 10.2225 33.1448 10.0226 33.0637 9.96972C32.8491 9.82989 32.696 9.85614 32.3731 9.88616C32.001 9.92073 31.911 9.89922 31.5888 9.90875C31.4588 9.9126 31.325 9.91807 31.2039 9.90506C31.0746 9.89112 30.949 9.9069 30.8237 9.89626C30.7563 9.89049 30.723 9.87651 30.6424 9.87692C30.5154 9.87762 30.2186 9.8859 30.1298 9.81721C29.904 9.64248 29.8688 8.42911 29.8433 8.09251C29.8331 7.958 29.8423 7.86949 29.8444 7.74422C29.846 7.64595 29.8384 7.49344 29.8559 7.4023C29.8774 7.29046 29.8616 7.1859 29.8791 7.07875C29.8892 7.01723 29.903 6.99172 29.9052 6.9201C29.9086 6.80989 29.9402 6.71808 29.9418 6.60805L30.086 5.851C30.1076 5.78833 30.1058 5.75956 30.1221 5.69893C30.1369 5.6438 30.149 5.6549 30.1662 5.56017C30.1772 5.49968 30.2 5.48098 30.214 5.4165C30.2285 5.34928 30.2501 5.34029 30.2626 5.28206C30.2764 5.21839 30.3794 5.02673 30.419 4.96232C30.4546 4.90427 30.474 4.83251 30.5116 4.77458C30.531 4.74444 30.5347 4.74795 30.551 4.70972L30.6525 4.52848C30.7119 4.41483 30.8328 4.28827 30.8814 4.17699C30.9344 4.05549 31.0424 3.94986 31.1198 3.84057C31.1504 3.79735 31.1393 3.81436 31.1691 3.7833C31.1924 3.7589 31.1864 3.74862 31.2069 3.72592L31.8211 3.0519C31.8836 3.00591 31.9224 2.95485 31.981 2.90505C32.0189 2.87288 32.0469 2.84301 32.081 2.808C32.1051 2.78315 32.1082 2.78755 32.1392 2.76574C32.1693 2.74451 32.1624 2.74104 32.1906 2.71804C32.3206 2.61211 32.4672 2.51048 32.606 2.41797L32.9733 2.16774C33.0005 2.14659 33.0095 2.14763 33.0375 2.12962C33.0696 2.10892 33.0625 2.10256 33.0995 2.08133L33.2253 2.00328C33.2605 1.98731 33.2677 1.9896 33.2927 1.96753C33.3573 1.91045 33.6015 1.78792 33.6803 1.73209C33.7046 1.71493 33.714 1.71068 33.7494 1.69741C33.8023 1.67759 33.7946 1.66639 33.8877 1.61995C33.9204 1.60365 33.9207 1.59503 33.948 1.57928C33.9707 1.56605 33.9966 1.55821 34.0193 1.54638C34.0478 1.5314 34.0554 1.52105 34.0815 1.50682C34.1696 1.45849 34.2722 1.41867 34.3531 1.36525L34.7929 1.16881C34.858 1.14644 34.8226 1.13587 34.9336 1.10104C35.1452 1.03464 35.4972 0.879166 35.7133 0.795607C35.7654 0.77897 35.8369 0.770392 35.8848 0.750538C35.998 0.703509 36.1089 0.69312 36.2151 0.652154C36.3465 0.601464 36.4375 0.597915 36.5752 0.566636C36.709 0.536244 36.7887 0.511287 36.9383 0.488845C37.0701 0.469139 37.2165 0.453499 37.3513 0.441668C37.4541 0.432646 37.6562 0.432906 37.7418 0.413421C37.7759 0.433497 37.8133 0.452464 37.8533 0.470248C38.0494 0.557281 38.3131 0.616068 38.5975 0.625792C38.6977 0.629231 38.7941 0.62642 38.8844 0.618027C39.0218 0.605309 39.1458 0.579687 39.25 0.543898H39.2501Z" fill="#960000"/>
<path fill-rule="evenodd" clip-rule="evenodd" d="M39.0109 6.3511C39.1515 6.31938 39.3102 6.31645 39.4595 6.29664C39.6983 6.26495 40.1646 6.25109 40.4159 6.24602C40.5343 6.24366 40.6376 6.22698 40.5846 6.27675C40.3771 6.47119 40.0531 6.63849 39.7078 6.63546C39.5502 6.63409 39.4242 6.60185 39.2992 6.54613C39.2296 6.51515 39.0375 6.41062 39.0108 6.3511H39.0109ZM39.7778 7.35202C40.3362 7.35202 40.8314 7.04659 41.0013 6.53201C41.0749 6.30906 41.0175 6.25101 41.0879 6.25671C41.3809 6.28052 41.3553 6.23933 41.3582 6.37469C41.362 6.54657 41.389 7.47988 41.4099 7.54506C41.4457 7.52857 41.4372 7.51193 41.4671 7.48032L41.528 7.49836C41.5864 7.37232 41.6081 7.42571 41.6303 7.40578C41.656 7.35542 41.6584 7.32093 41.6989 7.28991C41.7483 7.25197 41.7684 7.26906 41.7971 7.20957C41.8693 7.05953 41.9781 6.94192 41.9819 6.86143C41.9865 6.76486 42.0055 6.44238 42.0188 6.38193C42.0466 6.36559 42.1789 6.36848 42.2144 6.36848C42.4444 6.36848 43.0285 6.51245 43.2775 6.58325C43.3491 6.60362 43.543 6.67516 43.594 6.67908C43.5569 6.63908 43.4711 6.60362 43.4471 6.57109C43.5284 6.57245 43.7868 6.66315 43.871 6.6908C44.2309 6.80904 44.4774 6.93264 44.7889 7.11891C44.8392 7.14901 44.8995 7.20121 44.9487 7.22199C44.8946 7.14642 44.6719 7.0304 44.6393 7.00437C44.5992 6.97246 44.6471 6.98766 44.543 6.93042C44.3974 6.85034 44.2334 6.78242 44.0642 6.71417C44.0142 6.69395 43.8078 6.60806 43.7846 6.57508L43.779 6.56421C43.7661 6.54424 43.7857 6.55053 43.7193 6.52868L43.3097 6.41092C43.0886 6.35528 43.2025 6.35953 43.1216 6.34233C43.0748 6.33235 43.0708 6.33971 43.0607 6.31653C43.1142 6.29775 43.3702 6.35402 43.4248 6.36877C43.4831 6.38456 43.5405 6.39694 43.5975 6.41166C43.6397 6.42257 43.7324 6.46741 43.7664 6.44031C43.7508 6.41713 43.7588 6.4277 43.724 6.41613C43.6939 6.40611 43.6933 6.41491 43.6804 6.3928C43.7843 6.41757 43.9037 6.45758 44.0017 6.49296C44.0708 6.51799 44.2558 6.59253 44.3074 6.60166C44.4101 6.61985 44.7793 6.84443 44.8726 6.87408C44.844 6.82061 44.7247 6.74844 44.6597 6.71983C44.6947 6.70622 44.6672 6.73173 44.7011 6.71461C44.6681 6.68714 44.6678 6.67394 44.6266 6.65291L44.3475 6.52043C44.2733 6.48239 44.2566 6.45325 44.1715 6.42268C43.7963 6.28773 43.5155 6.21408 43.1153 6.11787C42.1554 5.88709 41.0745 5.8394 40.0748 5.95261C39.662 5.99938 39.5356 6.04459 39.1679 6.11237C39.1085 6.12335 39.0226 6.15252 38.957 6.16816C38.8795 6.18668 38.8202 6.2021 38.7447 6.22376C38.4911 6.29653 38.2023 6.40035 37.9615 6.49854C37.887 6.52894 37.6462 6.62606 37.6033 6.66293C37.6588 6.65708 37.7499 6.61834 37.8088 6.60103C37.9524 6.55888 38.3335 6.45248 38.4505 6.44767C38.5396 6.69724 38.6888 6.91952 38.9075 7.08094C39.1343 7.24824 39.4123 7.35202 39.7776 7.35202H39.7778Z" fill="#D1A639"/>
<path fill-rule="evenodd" clip-rule="evenodd" d="M41.2101 4.16268C41.1123 4.18494 40.9324 4.20002 40.8639 4.2482C40.7081 4.3576 40.7842 4.71912 40.9472 4.8489C41.0334 4.91752 41.0224 4.88313 41.2012 4.85777C41.236 4.85285 41.2748 4.83732 41.2874 4.85237C41.2973 4.87126 41.3329 5.57108 41.333 5.64987C41.2503 5.63094 41.0862 5.53378 41.0368 5.46567C41.0137 5.43377 41.0132 5.38271 41.0029 5.34196C40.9179 5.34403 40.9354 5.42737 40.9327 5.4981C40.8699 5.45554 40.8678 5.41868 40.7573 5.40744C40.3138 5.36241 39.5592 5.48057 39.0828 5.53585L39.0454 5.54169C39.043 5.54232 39.0404 5.54324 39.0383 5.54387L39.0244 5.54916C39.0388 5.5733 39.0558 5.58018 39.0962 5.57925L39.3849 5.55034C39.5193 5.54328 39.6571 5.52309 39.7946 5.53526L39.1561 5.64422C39.1806 5.70895 39.3032 5.80678 39.3567 5.85659C39.4063 5.90277 39.4227 5.87881 39.511 5.86528C39.8433 5.81436 40.0626 5.77014 40.4283 5.74186C41.1498 5.68603 41.3665 5.72038 42.0486 5.75036C42.0552 5.73935 42.0514 5.74933 42.0568 5.72995C42.0586 5.72363 42.0613 5.70847 42.0621 5.70186C42.0646 5.68156 42.0651 5.66067 42.0659 5.64019L42.0838 5.2689C42.089 5.18742 42.0885 5.10585 42.0937 5.02518C42.0965 4.98229 42.0972 4.94011 42.0981 4.89722C42.0989 4.85962 42.0954 4.81322 42.108 4.77769C42.1266 4.72555 43.4555 4.79843 43.4166 5.20006C43.4052 5.31823 43.305 5.39694 43.2353 5.44878C43.0716 5.57057 42.8212 5.65202 42.6109 5.70178C42.555 5.71502 42.4912 5.72703 42.4307 5.73657C42.3885 5.74327 42.2655 5.75373 42.2385 5.77025C42.5652 5.79695 42.9764 5.87567 43.2946 5.95623C43.5377 6.01779 43.4657 6.02748 43.5816 5.92488C43.6282 5.88361 43.7088 5.76892 43.746 5.69232C43.8891 5.39779 43.8486 4.97161 43.6985 4.70833C43.3594 4.11332 42.5114 4.03697 41.8645 4.08574C41.6736 4.10012 41.7038 3.98806 41.3162 4.06578C41.2079 4.08752 41.2308 4.12896 41.2103 4.16261L41.2101 4.16268Z" fill="#D1A639"/>
<path fill-rule="evenodd" clip-rule="evenodd" d="M38.3866 6.17046L38.7959 6.03289C38.784 5.84706 38.7933 5.77256 38.8539 5.60848C38.8971 5.49168 38.9773 5.36974 39.0454 5.29443C39.227 5.09348 39.4018 4.96914 39.7073 4.92249C40.0881 4.86433 40.2588 5.06398 40.3494 5.00035C40.3966 4.96726 40.4354 4.91938 40.4692 4.85734C40.527 4.75138 40.5845 4.61221 40.5918 4.47674C40.6016 4.29521 40.5192 4.22799 40.374 4.17704C39.9973 4.0449 39.4552 4.22 39.1517 4.42117C39.0526 4.48687 38.9327 4.58041 38.8649 4.65347C38.5139 5.03159 38.3223 5.48517 38.3866 6.17043L38.3866 6.17046Z" fill="#D1A639"/>
<defs>
<radialGradient id="paint0_radial_12_2386" cx="0" cy="0" r="1" gradientUnits="userSpaceOnUse" gradientTransform="translate(35.6647 25.8298) rotate(178.096) scale(30.7347 17.4073)">
<stop stop-color="#EAE62C"/>
<stop offset="0.760784" stop-color="#D8B534"/>
<stop offset="1" stop-color="#C6853B"/>
</radialGradient>
</defs>
</svg>
