<svg width="113" height="161" viewBox="0 0 113 161" fill="none" xmlns="http://www.w3.org/2000/svg">
<path d="M111.486 122.51L68.8312 97.9555C68.4275 97.7502 67.981 97.6431 67.528 97.6431C67.0751 97.6431 66.6285 97.7502 66.2248 97.9555L3.09201 134.416C2.36801 134.829 2.36801 135.502 3.09201 135.918L45.7465 160.473C46.1502 160.678 46.5967 160.785 47.0497 160.785C47.5026 160.785 47.9492 160.678 48.3529 160.473L111.486 124.012C112.206 123.596 112.206 122.923 111.486 122.51Z" fill="#E0E0E0"/>
<path d="M72.2847 35.2934L97.6247 49.9326C99.4347 50.9716 100.883 53.5201 100.883 55.598V105.626L103.033 106.872V55.4025C103.033 52.4703 100.955 48.8865 98.4174 47.4059L72.1652 32.2417C69.6312 30.7937 67.5497 31.9774 67.5497 34.9097V86.3752L69.7217 87.6277V36.7631C69.7362 35.1449 70.8837 34.4825 72.2847 35.2934Z" fill="#E0E0E0"/>
<path d="M52.733 147.09C52.733 144.454 54.5865 141.247 56.8707 139.929C58.0689 139.234 59.144 139.205 59.9006 139.712L62.688 141.305L56.7585 151.387L53.9928 149.794C53.2217 149.367 52.733 148.436 52.733 147.09Z" fill="#455A64"/>
<path d="M59.7667 141.598C57.4825 142.916 55.6291 146.123 55.6291 148.759C55.6291 151.394 57.4825 152.466 59.7667 151.148C62.0509 149.83 63.908 146.623 63.908 143.984C63.908 141.345 62.0509 140.277 59.7667 141.598Z" fill="#37474F"/>
<path d="M61.1676 145.562C61.1676 144.534 60.5378 144.06 59.7667 144.505C58.9956 144.95 58.3658 146.149 58.3658 147.18C58.3658 148.212 58.992 148.686 59.7667 148.237C60.5414 147.788 61.1676 146.594 61.1676 145.562Z" fill="#263238"/>
<path d="M54.9195 137.196C54.9195 137.196 54.9195 141.902 57.1712 143.586C57.5947 143.901 58.0436 144.118 58.3078 144.339C58.8834 144.816 58.5033 145.692 57.8047 146.069C56.7911 146.612 51.2706 145.142 48.932 140.639L54.9195 137.196Z" fill="#F0F0F0"/>
<path d="M57.0626 138.438C57.0626 138.438 57.0626 143.144 59.3142 144.827C59.7377 145.142 60.1866 145.359 60.4545 145.58C61.0265 146.058 60.6464 146.938 59.9477 147.311C58.9341 147.854 53.4136 146.384 51.0751 141.881L57.0626 138.438Z" fill="#FAFAFA"/>
<path d="M59.7667 145.913C59.6508 145.988 59.5543 146.09 59.4851 146.209C59.4159 146.329 59.376 146.463 59.3685 146.601C59.3685 146.855 59.5459 146.963 59.7667 146.829C59.8817 146.753 59.9774 146.652 60.0459 146.532C60.1144 146.413 60.1539 146.279 60.1613 146.141C60.1613 145.892 59.9839 145.787 59.7667 145.913Z" fill="#263238"/>
<path d="M97.6355 121.167C97.6355 118.528 99.489 115.321 101.773 114.003C102.971 113.312 104.047 113.279 104.803 113.789L107.591 115.382L101.661 125.46L98.8953 123.871C98.1242 123.444 97.6355 122.51 97.6355 121.167Z" fill="#455A64"/>
<path d="M104.669 115.672C102.385 116.99 100.532 120.197 100.532 122.836C100.532 125.475 102.385 126.543 104.669 125.225C106.953 123.907 108.796 120.7 108.796 118.061C108.796 115.422 106.953 114.354 104.669 115.672Z" fill="#37474F"/>
<path d="M106.07 119.639C106.07 118.608 105.44 118.133 104.669 118.582C103.898 119.031 103.268 120.226 103.268 121.258C103.268 122.289 103.895 122.76 104.669 122.315C105.444 121.869 106.07 120.671 106.07 119.639Z" fill="#263238"/>
<path d="M99.822 111.288C99.822 111.288 99.822 115.994 102.074 117.677C102.497 117.992 102.946 118.209 103.21 118.43C103.786 118.908 103.406 119.788 102.707 120.161C101.694 120.704 96.1731 119.234 93.8345 114.731L99.822 111.288Z" fill="#F0F0F0"/>
<path d="M101.965 112.501C101.965 112.501 101.965 117.207 104.217 118.89C104.64 119.205 105.089 119.422 105.357 119.647C105.929 120.121 105.549 121 104.85 121.373C103.837 121.916 98.3161 120.447 95.9775 115.943L101.965 112.501Z" fill="#FAFAFA"/>
<path d="M104.669 119.976C104.553 120.051 104.457 120.153 104.388 120.272C104.318 120.392 104.278 120.526 104.271 120.664C104.271 120.914 104.448 121.026 104.669 120.892C104.784 120.816 104.88 120.714 104.948 120.595C105.017 120.475 105.056 120.342 105.064 120.204C105.064 119.976 104.886 119.864 104.669 119.976Z" fill="#263238"/>
<path d="M105.223 108.121L65.403 85.1263L0.348022 122.684L40.1644 145.682L105.223 108.121Z" fill="#455A64"/>
<path d="M105.223 108.121V110.622L40.1644 148.183V145.682L105.223 108.121Z" fill="#37474F"/>
<path d="M0.348022 122.684V125.185L40.1644 148.183V145.682L0.348022 122.684Z" fill="#263238"/>
<path opacity="0.1" d="M99.4347 108.229L65.2836 127.954L30.4519 107.871L64.6971 88.196L99.4347 108.229Z" fill="black"/>
<path d="M98.2726 84.7751L66.9958 66.686L33.9416 85.8177L65.2184 103.907L98.2726 84.7751Z" fill="#0A0B37"/>
<path opacity="0.7" d="M98.2726 84.7751L66.9958 66.686L33.9416 85.8177L65.2184 103.907L98.2726 84.7751Z" fill="white"/>
<path d="M65.2184 125.768L98.2726 106.64V84.7751L65.2184 103.907V125.768Z" fill="#0A0B37"/>
<path opacity="0.6" d="M65.2184 125.768L98.2726 106.64V84.7751L65.2184 103.907V125.768Z" fill="white"/>
<path d="M68.8674 118.528C68.767 118.529 68.6683 118.502 68.5814 118.452C68.4574 118.364 68.3587 118.246 68.2952 118.108C68.2316 117.97 68.2055 117.818 68.2194 117.666V115.35V115.179L68.3388 115.201L70.1488 114.133V116.718C70.1452 117.051 70.0621 117.378 69.9066 117.672C69.7511 117.966 69.5276 118.218 69.2547 118.409C69.1382 118.481 69.0047 118.523 68.8674 118.528ZM68.5054 115.523V117.666C68.4927 117.766 68.5049 117.867 68.5409 117.96C68.5769 118.054 68.6356 118.137 68.7117 118.202C68.776 118.228 68.8456 118.238 68.9145 118.23C68.9833 118.222 69.0492 118.198 69.1063 118.159C69.3341 117.991 69.5202 117.773 69.6502 117.522C69.7802 117.271 69.8505 116.993 69.8556 116.711V116.523H69.1823L69.052 115.614L68.5054 115.523ZM69.4357 116.247H69.8556V114.647L68.7696 115.284L69.3054 115.382L69.4357 116.247Z" fill="#455A64"/>
<path d="M69.1932 120.363C69.1548 120.363 69.118 120.348 69.0908 120.321C69.0637 120.294 69.0484 120.257 69.0484 120.219V118.271C69.0484 118.233 69.0637 118.196 69.0908 118.169C69.118 118.141 69.1548 118.126 69.1932 118.126C69.2316 118.126 69.2684 118.141 69.2956 118.169C69.3227 118.196 69.338 118.233 69.338 118.271V120.219C69.338 120.257 69.3227 120.294 69.2956 120.321C69.2684 120.348 69.2316 120.363 69.1932 120.363V120.363Z" fill="#455A64"/>
<path d="M68.3497 120.852C68.324 120.853 68.2986 120.846 68.2763 120.833C68.254 120.821 68.2355 120.802 68.223 120.78C68.2132 120.763 68.2067 120.745 68.204 120.726C68.2012 120.707 68.2022 120.688 68.2069 120.67C68.2116 120.651 68.22 120.634 68.2314 120.618C68.2429 120.603 68.2572 120.59 68.2737 120.581L69.9679 119.603C69.9845 119.593 70.0028 119.587 70.0219 119.585C70.0409 119.582 70.0603 119.584 70.0788 119.589C70.0973 119.594 70.1146 119.602 70.1298 119.614C70.1449 119.626 70.1576 119.641 70.167 119.657C70.1855 119.691 70.1902 119.731 70.1801 119.768C70.1699 119.805 70.1458 119.837 70.1127 119.857L68.4221 120.834C68.3994 120.845 68.3748 120.851 68.3497 120.852Z" fill="#455A64"/>
<path d="M74.377 117.5C74.3203 117.5 74.2645 117.486 74.2141 117.46C74.1551 117.421 74.1078 117.367 74.0772 117.303C74.0466 117.239 74.0339 117.168 74.0403 117.098V116.718C74.0458 116.683 74.0636 116.651 74.0905 116.628C74.1174 116.605 74.1516 116.593 74.187 116.593C74.2223 116.593 74.2565 116.605 74.2834 116.628C74.3103 116.651 74.3281 116.683 74.3336 116.718V117.116C74.3336 117.178 74.3336 117.207 74.3625 117.214C74.3915 117.221 74.406 117.214 74.4567 117.189C74.5461 117.104 74.6166 117.002 74.6634 116.888C74.7102 116.775 74.7323 116.653 74.7282 116.53V113.941C74.7282 113.903 74.7434 113.866 74.7706 113.839C74.7977 113.812 74.8345 113.797 74.8729 113.797C74.9114 113.797 74.9482 113.812 74.9753 113.839C75.0025 113.866 75.0177 113.903 75.0177 113.941V116.53C75.0248 116.703 74.9912 116.875 74.9195 117.033C74.8478 117.191 74.7401 117.33 74.6051 117.438C74.536 117.479 74.4572 117.5 74.377 117.5Z" fill="#455A64"/>
<path d="M72.8421 115.237V114.984C72.8772 114.338 73.064 113.709 73.3873 113.149C73.7105 112.589 74.1612 112.112 74.7028 111.759C74.8962 111.594 75.1358 111.493 75.3889 111.47C75.6419 111.446 75.8959 111.502 76.116 111.629C76.3362 111.756 76.5116 111.948 76.6183 112.178C76.725 112.409 76.7577 112.667 76.7119 112.917V113L72.8421 115.237ZM75.5752 111.784C75.3181 111.795 75.0684 111.874 74.8512 112.012C74.3892 112.316 73.9981 112.715 73.7045 113.184C73.4109 113.653 73.2217 114.179 73.1498 114.727L76.4078 112.834C76.4192 112.651 76.384 112.468 76.3055 112.302C76.2271 112.136 76.1078 111.993 75.959 111.885C75.8422 111.818 75.7098 111.783 75.5752 111.784V111.784Z" fill="#455A64"/>
<path d="M79.6043 114.517C79.5659 114.517 79.5291 114.502 79.5019 114.475C79.4748 114.447 79.4595 114.411 79.4595 114.372V109.416C79.465 109.382 79.4828 109.35 79.5097 109.327C79.5366 109.304 79.5708 109.291 79.6061 109.291C79.6415 109.291 79.6757 109.304 79.7025 109.327C79.7294 109.35 79.7472 109.382 79.7527 109.416V114.372C79.7527 114.392 79.7489 114.411 79.7414 114.428C79.7339 114.446 79.7229 114.462 79.709 114.476C79.6952 114.489 79.6788 114.5 79.6608 114.507C79.6428 114.514 79.6236 114.518 79.6043 114.517V114.517Z" fill="#455A64"/>
<path d="M79.1808 110.564C79.1616 110.568 79.142 110.568 79.1228 110.564C79.1052 110.557 79.0891 110.546 79.0757 110.532C79.0623 110.518 79.0517 110.502 79.0447 110.484C79.0376 110.466 79.0341 110.447 79.0345 110.428C79.0349 110.409 79.0391 110.39 79.0468 110.372L79.5645 109.174L80.1437 109.844C80.1687 109.873 80.181 109.911 80.1779 109.949C80.1748 109.988 80.1567 110.023 80.1274 110.048C80.0981 110.073 80.0601 110.085 80.0218 110.082C79.9834 110.079 79.9478 110.061 79.9229 110.032L79.6478 109.717L79.3147 110.488C79.3015 110.512 79.282 110.531 79.2584 110.545C79.2347 110.558 79.2079 110.565 79.1808 110.564Z" fill="#455A64"/>
<path d="M80.9546 113.75C80.9352 113.75 80.916 113.747 80.898 113.74C80.88 113.733 80.8636 113.722 80.8498 113.708C80.836 113.695 80.825 113.679 80.8175 113.661C80.81 113.643 80.8061 113.624 80.8061 113.605V108.649C80.8028 108.628 80.8041 108.606 80.8099 108.586C80.8158 108.565 80.826 108.546 80.8399 108.529C80.8539 108.513 80.8712 108.5 80.8906 108.491C80.9101 108.482 80.9313 108.477 80.9527 108.477C80.9742 108.477 80.9954 108.482 81.0149 108.491C81.0343 108.5 81.0516 108.513 81.0656 108.529C81.0795 108.546 81.0897 108.565 81.0956 108.586C81.1014 108.606 81.1027 108.628 81.0993 108.649V113.605C81.0993 113.643 81.0841 113.68 81.0569 113.707C81.0298 113.734 80.993 113.75 80.9546 113.75V113.75Z" fill="#455A64"/>
<path d="M80.5274 109.778C80.5083 109.782 80.4886 109.782 80.4695 109.778C80.4518 109.771 80.4358 109.76 80.4223 109.746C80.4089 109.733 80.3984 109.716 80.3913 109.698C80.3842 109.681 80.3808 109.661 80.3811 109.642C80.3815 109.623 80.3857 109.604 80.3935 109.587L80.922 108.392L81.5012 109.058C81.5138 109.073 81.5234 109.089 81.5295 109.108C81.5356 109.126 81.538 109.145 81.5367 109.164C81.5353 109.183 81.5302 109.202 81.5216 109.219C81.5131 109.236 81.5012 109.252 81.4867 109.264C81.4722 109.277 81.4554 109.287 81.4371 109.293C81.4189 109.299 81.3997 109.301 81.3805 109.3C81.3614 109.299 81.3427 109.293 81.3255 109.285C81.3083 109.276 81.293 109.264 81.2804 109.25L81.0052 108.931L80.6722 109.706C80.6577 109.731 80.6362 109.751 80.6105 109.764C80.5848 109.777 80.556 109.782 80.5274 109.778V109.778Z" fill="#455A64"/>
<path d="M65.2184 125.768L33.9416 107.682V85.8177L65.2184 103.907V125.768Z" fill="#0A0B37"/>
<path opacity="0.5" d="M65.2184 125.768L33.9416 107.682V85.8177L65.2184 103.907V125.768Z" fill="white"/>
<path d="M47.0714 96.7211L49.2144 97.9555V94.6324L47.0714 93.3979V96.7211Z" fill="#37474F"/>
<path d="M49.2144 94.636L82.2686 75.5043L80.1256 74.2662L47.0714 93.3979L49.2144 94.636Z" fill="#455A64"/>
<path d="M48.0415 92.8332L50.1809 94.0713L51.3756 93.3835L49.2361 92.1454L48.0415 92.8332Z" fill="#37474F"/>
<path d="M82.37 78.2917L73.6132 83.3343C73.4539 83.4285 73.4974 83.5986 73.7073 83.7217L83.5936 89.4304C83.6938 89.4897 83.8061 89.5253 83.9221 89.5347C84.0382 89.5442 84.1548 89.527 84.2633 89.4847L93.02 84.4384C93.1793 84.3479 93.1359 84.1742 92.9259 84.0511L83.0216 78.346C82.9239 78.2888 82.8147 78.2542 82.702 78.2448C82.5892 78.2354 82.4757 78.2514 82.37 78.2917V78.2917Z" fill="#FAFAFA"/>
<path d="M86.7755 86.8747C86.8071 86.8745 86.8381 86.866 86.8654 86.8502C86.8927 86.8343 86.9154 86.8115 86.9312 86.7842C86.9549 86.7428 86.9614 86.6938 86.9492 86.6477C86.937 86.6016 86.9071 86.5622 86.866 86.538L78.6559 81.7994C78.615 81.781 78.5688 81.7783 78.5261 81.792C78.4835 81.8057 78.4474 81.8347 78.4249 81.8734C78.4023 81.9122 78.395 81.9579 78.4042 82.0017C78.4135 82.0456 78.4386 82.0844 78.4749 82.1108L86.685 86.8493C86.7119 86.8669 86.7435 86.8758 86.7755 86.8747V86.8747Z" fill="#E0E0E0"/>
<path d="M85.8633 87.396C85.9028 87.3956 85.9411 87.3823 85.9723 87.3581C86.0035 87.3339 86.026 87.3002 86.0362 87.262C86.0465 87.2239 86.044 87.1834 86.0291 87.1468C86.0142 87.1102 85.9877 87.0795 85.9538 87.0594L77.7472 82.328C77.7053 82.3041 77.6557 82.2975 77.6091 82.3097C77.5624 82.3219 77.5223 82.3518 77.4975 82.3932C77.4748 82.4357 77.4692 82.4853 77.482 82.5318C77.4948 82.5783 77.525 82.618 77.5662 82.643L85.7728 87.3779C85.8006 87.3926 85.832 87.3988 85.8633 87.396V87.396Z" fill="#E0E0E0"/>
<path d="M84.951 87.9173C84.9905 87.9169 85.0288 87.9035 85.06 87.8794C85.0913 87.8552 85.1137 87.8214 85.124 87.7833C85.1342 87.7451 85.1317 87.7047 85.1168 87.6681C85.102 87.6315 85.0755 87.6008 85.0415 87.5806L76.835 82.842C76.7932 82.818 76.7436 82.8116 76.6971 82.8242C76.6506 82.8367 76.611 82.8672 76.587 82.909C76.563 82.9508 76.5566 83.0003 76.5692 83.0468C76.5817 83.0934 76.6122 83.133 76.654 83.157L84.8605 87.8955C84.8886 87.9096 84.9196 87.917 84.951 87.9173V87.9173Z" fill="#E0E0E0"/>
<path d="M84.0388 88.4422C84.0709 88.4423 84.1025 88.434 84.1305 88.4181C84.1584 88.4022 84.1817 88.3793 84.1981 88.3517C84.2208 88.3092 84.2263 88.2596 84.2135 88.2131C84.2007 88.1666 84.1706 88.1268 84.1293 88.1019L75.9228 83.367C75.9023 83.3521 75.8789 83.3416 75.8541 83.3363C75.8294 83.331 75.8038 83.331 75.779 83.3362C75.7542 83.3414 75.7308 83.3518 75.7103 83.3666C75.6897 83.3815 75.6726 83.4005 75.6598 83.4224C75.6471 83.4443 75.6391 83.4686 75.6364 83.4938C75.6336 83.5189 75.6362 83.5444 75.6439 83.5685C75.6517 83.5926 75.6644 83.6149 75.6812 83.6338C75.6981 83.6527 75.7187 83.6678 75.7418 83.6783L83.9483 88.4169C83.9755 88.4336 84.0069 88.4424 84.0388 88.4422V88.4422Z" fill="#E0E0E0"/>
<path d="M92.1765 84.2104L91.8544 84.0258L88.1185 86.1833L88.4371 86.3679L92.1765 84.2104Z" fill="#455A64"/>
<path d="M90.877 83.4611L90.3231 83.1425L86.5837 85.3037L87.1375 85.6186L90.877 83.4611Z" fill="#455A64"/>
<path d="M89.5774 82.7081L89.2588 82.5235L85.5194 84.6846L85.8379 84.8656L89.5774 82.7081Z" fill="#455A64"/>
<path d="M88.6036 82.1397L87.9593 81.7741L84.2198 83.9316L84.8642 84.2972L88.6036 82.1397Z" fill="#455A64"/>
<path d="M86.9783 81.2094L86.6597 81.0248L82.9202 83.1823L83.2388 83.3669L86.9783 81.2094Z" fill="#455A64"/>
<path d="M86.0515 80.6628L85.3601 80.2719L81.6206 82.433L82.3121 82.8239L86.0515 80.6628Z" fill="#455A64"/>
<path d="M84.3827 79.7071L84.0605 79.5225L80.3247 81.6837L80.6432 81.8647L84.3827 79.7071Z" fill="#455A64"/>
<path d="M83.6442 79.2764L83.4849 79.1859L79.7455 81.3434L79.9048 81.4375L83.6442 79.2764Z" fill="#455A64"/>
<path d="M84.9547 80.0619L84.7954 79.9678L81.0559 82.1253L81.2152 82.2194L84.9547 80.0619Z" fill="#455A64"/>
<path d="M87.5864 81.5641L87.4271 81.47L83.6877 83.6312L83.8469 83.7217L87.5864 81.5641Z" fill="#455A64"/>
<path d="M89.0163 82.3931L88.857 82.299L85.1176 84.4602L85.2768 84.5507L89.0163 82.3931Z" fill="#455A64"/>
<path d="M90.0299 82.9977L89.8706 82.9036L86.1312 85.0647L86.2904 85.1552L90.0299 82.9977Z" fill="#455A64"/>
<path d="M91.4526 83.7869L91.2933 83.6964L87.5538 85.8539L87.7131 85.9444L91.4526 83.7869Z" fill="#455A64"/>
<path d="M83.0831 78.9578L82.7609 78.7731L79.0251 80.9307L79.3437 81.1153L83.0831 78.9578Z" fill="#455A64"/>
<path d="M88.1185 104.464V109.949C88.1185 110.159 88.2669 110.245 88.4516 110.14L97.0129 105.196C97.1092 105.133 97.1893 105.049 97.2465 104.949C97.3038 104.85 97.3366 104.738 97.3423 104.624V99.1356C97.3423 98.9257 97.1939 98.8388 97.0129 98.9438L88.4516 103.892C88.3546 103.954 88.2738 104.039 88.2159 104.138C88.1579 104.237 88.1246 104.349 88.1185 104.464Z" fill="#FAFAFA"/>
<path d="M96.8102 99.7294L96.535 99.8887V104.873L96.8102 104.714V99.7294Z" fill="#455A64"/>
<path d="M95.6843 100.381L95.2065 100.66V105.644L95.6843 105.366V100.381Z" fill="#455A64"/>
<path d="M94.5585 101.029L94.2834 101.188V106.173L94.5585 106.014V101.029Z" fill="#455A64"/>
<path d="M93.7114 101.51L93.1576 101.836V106.825L93.7114 106.495V101.51Z" fill="#455A64"/>
<path d="M92.3069 102.328L92.0318 102.488V107.473L92.3069 107.313V102.328Z" fill="#455A64"/>
<path d="M91.4996 102.785L90.9059 103.136V108.12L91.4996 107.769V102.785Z" fill="#455A64"/>
<path d="M90.0589 103.624L89.7838 103.787V108.772L90.0589 108.613V103.624Z" fill="#455A64"/>
<path d="M89.4145 103.99L89.2769 104.07V109.054L89.4145 108.978V103.99Z" fill="#455A64"/>
<path d="M90.5729 103.353L90.4317 103.436V108.421L90.5729 108.341V103.353Z" fill="#455A64"/>
<path d="M92.839 102.028L92.7015 102.108V107.092L92.839 107.013V102.028Z" fill="#455A64"/>
<path d="M94.0807 101.315L93.9395 101.395V106.379L94.0807 106.3V101.315Z" fill="#455A64"/>
<path d="M94.9712 100.823L94.8336 100.902V105.887L94.9712 105.807V100.823Z" fill="#455A64"/>
<path d="M96.1803 100.088L96.0427 100.167V105.152L96.1803 105.072V100.088Z" fill="#455A64"/>
<path d="M88.9331 104.276L88.6579 104.435V109.42L88.9331 109.261V104.276Z" fill="#455A64"/>
<path opacity="0.1" d="M96.1477 84.3118L65.8012 101.851L33.7027 83.2801L64.0455 65.7411L96.1477 84.3118Z" fill="black"/>
<path d="M32.8665 59.5292L61.9785 42.6926L94.9169 61.7519L65.8085 78.5885L32.8665 59.5292Z" fill="#0A0B37"/>
<path opacity="0.3" d="M32.8665 59.5292L61.9785 42.6926L94.9169 61.7519L65.8085 78.5885L32.8665 59.5292Z" fill="white"/>
<path d="M46.818 53.5671L55.582 58.6098C55.7413 58.7003 55.6978 58.874 55.4879 58.9971L45.6016 64.7022C45.502 64.7628 45.3897 64.7996 45.2736 64.8096C45.1574 64.8197 45.0405 64.8028 44.9319 64.7602L36.1752 59.7139C36.0159 59.6198 36.0593 59.4496 36.2693 59.3265L46.17 53.6214C46.2663 53.5625 46.375 53.5268 46.4875 53.5174C46.6 53.508 46.7132 53.525 46.818 53.5671Z" fill="#FAFAFA"/>
<path d="M42.398 62.1501C42.3659 62.1499 42.3344 62.1414 42.3066 62.1256C42.2787 62.1097 42.2553 62.087 42.2387 62.0596C42.2152 62.0179 42.2093 61.9685 42.2222 61.9223C42.2351 61.8762 42.2657 61.8371 42.3075 61.8135L50.514 57.0749C50.5345 57.06 50.5579 57.0496 50.5826 57.0443C50.6074 57.039 50.633 57.039 50.6578 57.0442C50.6826 57.0494 50.706 57.0598 50.7265 57.0746C50.747 57.0894 50.7642 57.1084 50.7769 57.1303C50.7897 57.1522 50.7977 57.1765 50.8004 57.2017C50.8031 57.2269 50.8006 57.2524 50.7928 57.2765C50.7851 57.3006 50.7724 57.3228 50.7556 57.3417C50.7387 57.3606 50.7181 57.3758 50.695 57.3862L42.4885 62.1248C42.4613 62.1416 42.4299 62.1504 42.398 62.1501V62.1501Z" fill="#E0E0E0"/>
<path d="M43.3066 62.6714C43.275 62.6712 43.244 62.6628 43.2167 62.6469C43.1894 62.631 43.1667 62.6083 43.1509 62.5809C43.1272 62.5396 43.1207 62.4906 43.1329 62.4445C43.1451 62.3984 43.175 62.359 43.2161 62.3348L51.4262 57.5962C51.4467 57.5813 51.4701 57.5709 51.4949 57.5656C51.5196 57.5603 51.5452 57.5603 51.57 57.5655C51.5948 57.5707 51.6182 57.5811 51.6387 57.5959C51.6593 57.6107 51.6764 57.6297 51.6892 57.6516C51.7019 57.6735 51.7099 57.6978 51.7126 57.723C51.7154 57.7482 51.7128 57.7737 51.7051 57.7978C51.6974 57.8219 51.6847 57.8441 51.6678 57.863C51.651 57.8819 51.6303 57.8971 51.6072 57.9075L43.3971 62.6461C43.3702 62.6637 43.3386 62.6725 43.3066 62.6714Z" fill="#E0E0E0"/>
<path d="M44.2188 63.1927C44.1793 63.1923 44.141 63.179 44.1098 63.1548C44.0786 63.1306 44.0561 63.0968 44.0458 63.0587C44.0356 63.0205 44.0381 62.9801 44.053 62.9435C44.0679 62.9069 44.0943 62.8762 44.1283 62.856L52.324 58.1174C52.3443 58.1052 52.3669 58.0972 52.3904 58.0938C52.4139 58.0905 52.4379 58.0919 52.4608 58.0979C52.4838 58.104 52.5053 58.1146 52.5241 58.1292C52.5429 58.1437 52.5585 58.1619 52.5701 58.1826C52.5941 58.2245 52.6006 58.2741 52.5885 58.3208C52.5763 58.3675 52.5463 58.4075 52.505 58.4324L44.2984 63.171C44.2737 63.1838 44.2466 63.1912 44.2188 63.1927Z" fill="#E0E0E0"/>
<path d="M45.131 63.714C45.0993 63.7145 45.068 63.7064 45.0406 63.6904C45.0131 63.6745 44.9906 63.6513 44.9754 63.6235C44.9516 63.5821 44.9452 63.5331 44.9574 63.487C44.9696 63.4409 44.9994 63.4015 45.0405 63.3773L53.2471 58.6387C53.2888 58.6147 53.3384 58.6083 53.3849 58.6208C53.4314 58.6334 53.471 58.6639 53.495 58.7057C53.519 58.7474 53.5255 58.797 53.5129 58.8435C53.5004 58.89 53.4698 58.9297 53.4281 58.9537L45.2215 63.6922C45.1934 63.7063 45.1625 63.7137 45.131 63.714V63.714Z" fill="#E0E0E0"/>
<path d="M36.9969 59.4858L37.3155 59.3012L41.0549 61.4587L40.7328 61.6433L36.9969 59.4858Z" fill="#455A64"/>
<path d="M38.2965 58.7329L38.8467 58.4179L42.5862 60.5754L42.0323 60.894L38.2965 58.7329Z" fill="#455A64"/>
<path d="M39.5924 57.9835L39.9146 57.7989L43.6505 59.9564L43.3319 60.141L39.5924 57.9835Z" fill="#455A64"/>
<path d="M40.5662 57.4152L41.2106 57.0496L44.95 59.2071L44.3057 59.5727L40.5662 57.4152Z" fill="#455A64"/>
<path d="M42.1916 56.4812L42.5102 56.3002L46.2496 58.4577L45.9311 58.6424L42.1916 56.4812Z" fill="#455A64"/>
<path d="M43.1183 55.9382L43.8097 55.5472L47.5492 57.7084L46.8578 58.0957L43.1183 55.9382Z" fill="#455A64"/>
<path d="M44.7908 54.9825L45.1093 54.7979L48.8488 56.9554L48.5266 57.1401L44.7908 54.9825Z" fill="#455A64"/>
<path d="M45.5292 54.5517L45.6885 54.4612L49.4243 56.6188L49.2651 56.7093L45.5292 54.5517Z" fill="#455A64"/>
<path d="M44.2152 55.3337L44.3745 55.2432L48.1139 57.4007L47.9546 57.4948L44.2152 55.3337Z" fill="#455A64"/>
<path d="M41.5834 56.8396L41.7427 56.7455L45.4822 58.903L45.3229 58.9971L41.5834 56.8396Z" fill="#455A64"/>
<path d="M40.1535 57.6686L40.3128 57.5745L44.0523 59.7356L43.893 59.8261L40.1535 57.6686Z" fill="#455A64"/>
<path d="M39.14 58.2731L39.3029 58.179L43.0387 60.3365L42.8794 60.4307L39.14 58.2731Z" fill="#455A64"/>
<path d="M37.7173 59.0623L37.8802 58.9681L41.616 61.1293L41.4568 61.2198L37.7173 59.0623Z" fill="#455A64"/>
<path d="M46.0903 54.2332L46.4089 54.0486L50.1483 56.2061L49.8262 56.3907L46.0903 54.2332Z" fill="#455A64"/>
<path d="M65.8085 100.453L32.8665 81.394V59.5292L65.8085 78.5885V100.453Z" fill="#0A0B37"/>
<path d="M65.8085 100.453L94.9169 83.6168V61.752L65.8085 78.5886V100.453Z" fill="#0A0B37"/>
<path opacity="0.1" d="M65.8085 100.453L94.9169 83.6168V61.752L65.8085 78.5886V100.453Z" fill="black"/>
<path d="M81.7872 72.6554L79.6477 73.8898V70.5666L81.7872 69.3322V72.6554Z" fill="#37474F"/>
<path d="M79.6477 70.5702L46.7057 51.5109L48.8452 50.2729L81.7872 69.3322L79.6477 70.5702Z" fill="#455A64"/>
<path d="M53.7322 89.9952C53.5 89.8308 53.3099 89.614 53.1772 89.3625C53.0445 89.1109 52.9729 88.8316 52.9684 88.5472V86.3317L54.5213 87.244H54.6227V87.396V89.3761C54.6365 89.5048 54.6155 89.6347 54.562 89.7525C54.5085 89.8703 54.4245 89.9716 54.3186 90.0458C54.2452 90.0893 54.1614 90.1118 54.0761 90.111C53.9535 90.1022 53.8351 90.0623 53.7322 89.9952V89.9952ZM53.9059 87.6096L53.7937 88.3879H53.2181V88.5508C53.2236 88.7908 53.2842 89.0263 53.3953 89.2391C53.5064 89.4519 53.665 89.6363 53.8589 89.778C53.9066 89.8134 53.9628 89.8358 54.0219 89.8428C54.081 89.8498 54.1408 89.8412 54.1955 89.8178C54.2609 89.7627 54.3115 89.6921 54.3425 89.6124C54.3735 89.5327 54.3839 89.4465 54.3729 89.3617V87.5263L53.9059 87.6096ZM53.6851 87.396L54.1449 87.3164L53.2181 86.7697V88.1381H53.5801L53.6851 87.396Z" fill="#455A64"/>
<path d="M53.7973 91.6748C53.83 91.6748 53.8613 91.6619 53.8844 91.6388C53.9074 91.6157 53.9204 91.5844 53.9204 91.5518V89.8866C53.9204 89.8539 53.9074 89.8226 53.8844 89.7995C53.8613 89.7765 53.83 89.7635 53.7973 89.7635C53.7643 89.7635 53.7327 89.7763 53.709 89.7993C53.6853 89.8223 53.6716 89.8536 53.6706 89.8866V91.5518C53.6716 91.5847 53.6853 91.616 53.709 91.639C53.7327 91.662 53.7643 91.6749 53.7973 91.6748Z" fill="#455A64"/>
<path d="M54.5177 92.102C54.5458 92.1038 54.5737 92.0958 54.5966 92.0795C54.6196 92.0633 54.6363 92.0396 54.6439 92.0125C54.6515 91.9854 54.6496 91.9565 54.6385 91.9306C54.6274 91.9048 54.6078 91.8835 54.5829 91.8703L53.1349 91.0341C53.1061 91.0178 53.072 91.0136 53.0401 91.0224C53.0082 91.0312 52.9811 91.0524 52.9647 91.0812C52.9484 91.11 52.9442 91.1441 52.953 91.176C52.9619 91.2079 52.983 91.235 53.0118 91.2513L54.4598 92.0839C54.477 92.0953 54.4971 92.1016 54.5177 92.102V92.102Z" fill="#455A64"/>
<path d="M58.84 94.6614C58.8878 94.6617 58.935 94.6506 58.9775 94.6288C59.0264 94.596 59.0658 94.551 59.0918 94.4983C59.1178 94.4456 59.1296 94.387 59.126 94.3283V93.988C59.126 93.955 59.1131 93.9234 59.0901 93.8997C59.0672 93.876 59.0359 93.8623 59.0029 93.8613C58.9862 93.8613 58.9698 93.8646 58.9544 93.871C58.939 93.8773 58.9251 93.8867 58.9133 93.8984C58.9015 93.9102 58.8922 93.9242 58.8858 93.9395C58.8795 93.9549 58.8762 93.9714 58.8762 93.988V94.3283C58.8792 94.3578 58.8715 94.3873 58.8545 94.4116C58.8249 94.4153 58.7951 94.4075 58.7712 94.3899C58.6943 94.3187 58.6337 94.2316 58.5937 94.1348C58.5537 94.0379 58.5352 93.9335 58.5395 93.8288V91.6169C58.5395 91.584 58.5267 91.5523 58.5037 91.5286C58.4807 91.5049 58.4494 91.4912 58.4164 91.4902C58.3828 91.4902 58.3506 91.5036 58.3269 91.5273C58.3031 91.5511 58.2897 91.5833 58.2897 91.6169V93.8288C58.2849 93.9772 58.3152 94.1248 58.3781 94.2594C58.441 94.394 58.5347 94.5119 58.6517 94.6034C58.7079 94.6398 58.7731 94.6598 58.84 94.6614Z" fill="#455A64"/>
<path d="M56.8526 90.8169V90.7445C56.8155 90.5311 56.8449 90.3115 56.9367 90.1154C57.0285 89.9193 57.1783 89.7561 57.3659 89.6479C57.5535 89.5397 57.7697 89.4917 57.9855 89.5104C58.2012 89.5292 58.406 89.6137 58.5721 89.7526C59.0348 90.0556 59.4197 90.4631 59.6957 90.9423C59.9718 91.4215 60.1313 91.9588 60.1613 92.5111V92.7283L56.8526 90.8169ZM57.4897 89.8612C57.3611 89.9527 57.2581 90.0756 57.1903 90.2182C57.1225 90.3607 57.0923 90.5182 57.1024 90.6757L59.9006 92.2902C59.8403 91.8221 59.6797 91.3725 59.4298 90.9721C59.1799 90.5716 58.8466 90.2298 58.4526 89.9698C58.2664 89.8534 58.0531 89.7873 57.8336 89.7779C57.7137 89.7751 57.5951 89.8038 57.4897 89.8612V89.8612Z" fill="#455A64"/>
<path d="M63.8573 97.4524C63.89 97.4524 63.9213 97.4394 63.9443 97.4163C63.9674 97.3933 63.9804 97.362 63.9804 97.3293V93.0939C63.9804 93.0613 63.9674 93.03 63.9443 93.0069C63.9213 92.9838 63.89 92.9708 63.8573 92.9708C63.8243 92.9708 63.7926 92.9837 63.769 93.0067C63.7453 93.0296 63.7316 93.0609 63.7306 93.0939V97.3293C63.7316 97.3623 63.7453 97.3936 63.769 97.4166C63.7926 97.4396 63.8243 97.4524 63.8573 97.4524V97.4524Z" fill="#455A64"/>
<path d="M64.2193 94.0604C64.2398 94.0601 64.26 94.0548 64.2781 94.045C64.2961 94.0352 64.3115 94.0211 64.3229 94.004C64.3343 93.9869 64.3414 93.9673 64.3435 93.9468C64.3457 93.9264 64.3428 93.9057 64.3351 93.8866L63.908 92.8622L63.4157 93.4341C63.3927 93.4572 63.3798 93.4885 63.3798 93.521C63.3798 93.5536 63.3927 93.5848 63.4157 93.6079C63.4398 93.6303 63.4715 93.6427 63.5044 93.6427C63.5373 93.6427 63.5689 93.6303 63.593 93.6079L63.8283 93.3364L64.1143 93.9952C64.1245 94.0144 64.1396 94.0305 64.158 94.042C64.1765 94.0534 64.1976 94.0598 64.2193 94.0604Z" fill="#455A64"/>
<path d="M62.7025 96.808C62.7355 96.808 62.7672 96.7952 62.7909 96.7722C62.8145 96.7492 62.8283 96.7179 62.8292 96.6849V92.4495C62.8292 92.4329 62.8259 92.4164 62.8196 92.401C62.8132 92.3857 62.8039 92.3717 62.7921 92.3599C62.7803 92.3482 62.7664 92.3388 62.751 92.3325C62.7356 92.3261 62.7192 92.3228 62.7025 92.3228C62.6696 92.3238 62.6382 92.3375 62.6153 92.3612C62.5923 92.3848 62.5794 92.4165 62.5794 92.4495V96.6849C62.5794 96.7176 62.5924 96.7489 62.6155 96.772C62.6386 96.795 62.6699 96.808 62.7025 96.808Z" fill="#455A64"/>
<path d="M63.0682 93.4016C63.0849 93.4051 63.1021 93.4051 63.1188 93.4016C63.1489 93.3874 63.1724 93.3622 63.1845 93.3313C63.1966 93.3003 63.1964 93.2659 63.184 93.2351L62.7387 92.2142L62.2464 92.7826C62.2357 92.7949 62.2276 92.8093 62.2224 92.8248C62.2173 92.8403 62.2152 92.8567 62.2164 92.873C62.2176 92.8893 62.2219 92.9052 62.2293 92.9198C62.2366 92.9344 62.2467 92.9474 62.2591 92.9581C62.2714 92.9688 62.2858 92.977 62.3013 92.9821C62.3168 92.9873 62.3332 92.9893 62.3495 92.9882C62.3658 92.987 62.3817 92.9826 62.3963 92.9753C62.4109 92.968 62.424 92.9578 62.4347 92.9455L62.6699 92.674L62.9559 93.3364C62.9664 93.357 62.9825 93.374 63.0024 93.3856C63.0223 93.3971 63.0452 93.4027 63.0682 93.4016V93.4016Z" fill="#455A64"/>
<path d="M42.912 79.432V84.8982C42.912 85.1082 42.7636 85.1951 42.5789 85.0901L34.0321 80.156C33.9365 80.092 33.8571 80.0067 33.7999 79.9069C33.7428 79.807 33.7095 79.6953 33.7027 79.5804V74.0853C33.7027 73.8753 33.8511 73.7884 34.0357 73.897L42.5934 78.8419C42.6902 78.9073 42.7697 78.9951 42.8251 79.0979C42.8806 79.2006 42.9104 79.3153 42.912 79.432V79.432Z" fill="#FAFAFA"/>
<path d="M34.2348 74.6826L34.51 74.8418V79.8266L34.2348 79.6673V74.6826Z" fill="#455A64"/>
<path d="M35.3571 75.3306L35.8349 75.6093V80.594L35.3571 80.3153V75.3306Z" fill="#455A64"/>
<path d="M36.4828 75.9785L36.758 76.1378V81.1225L36.4828 80.9633V75.9785Z" fill="#455A64"/>
<path d="M37.3299 76.46L37.8838 76.7894V81.7741L37.3299 81.4447V76.46Z" fill="#455A64"/>
<path d="M38.7345 77.2781L39.0096 77.4374V82.4222L38.7345 82.2629V77.2781Z" fill="#455A64"/>
<path d="M39.5454 77.7343L40.1354 78.0854V83.0738L39.5454 82.719V77.7343Z" fill="#455A64"/>
<path d="M40.9861 78.5777L41.2613 78.737V83.7217L40.9861 83.5624V78.5777Z" fill="#455A64"/>
<path d="M41.6269 78.9433L41.7644 79.0229V84.0077L41.6269 83.928V78.9433Z" fill="#455A64"/>
<path d="M40.4721 78.3062L40.6097 78.3859V83.3706L40.4721 83.291V78.3062Z" fill="#455A64"/>
<path d="M38.206 76.9777L38.3436 77.0573V82.042L38.206 81.9624V76.9777Z" fill="#455A64"/>
<path d="M36.9643 76.2645L37.1019 76.3442V81.3289L36.9643 81.2493V76.2645Z" fill="#455A64"/>
<path d="M36.0702 75.7722L36.2114 75.8519V80.8366L36.0702 80.757V75.7722Z" fill="#455A64"/>
<path d="M34.8611 75.041L35.0023 75.1206V80.1017L34.8611 80.0221V75.041Z" fill="#455A64"/>
<path d="M42.1083 79.2256L42.3871 79.3849V84.3697L42.1083 84.2104V79.2256Z" fill="#455A64"/>
<path opacity="0.1" d="M32.3452 59.2288L63.8935 77.4844L88.6145 63.2108L57.0119 44.9623L32.3452 59.2288Z" fill="black"/>
<path d="M30.8864 49.2629L57.3558 33.9829L88.2344 51.8114L61.7649 67.0914L30.8864 49.2629Z" fill="#0A0B37"/>
<path opacity="0.1" d="M30.8864 49.2629L57.3558 33.9829L88.2344 51.8114L61.7649 67.0914L30.8864 49.2629Z" fill="black"/>
<path d="M44.8415 43.3008L53.5946 48.3435C53.7539 48.4376 53.7105 48.6077 53.5005 48.7308L43.6143 54.454C43.5141 54.5133 43.4017 54.549 43.2857 54.5584C43.1697 54.5678 43.053 54.5507 42.9446 54.5083L34.1878 49.4476C34.0285 49.3571 34.072 49.1833 34.2819 49.0602L44.1718 43.3551C44.2717 43.2951 44.3841 43.259 44.5002 43.2495C44.6164 43.2401 44.7332 43.2577 44.8415 43.3008V43.3008Z" fill="#FAFAFA"/>
<path d="M40.4178 51.8838C40.3783 51.8834 40.34 51.8701 40.3088 51.8459C40.2776 51.8217 40.2551 51.7879 40.2448 51.7498C40.2346 51.7116 40.2371 51.6712 40.252 51.6346C40.2669 51.598 40.2933 51.5673 40.3273 51.5471L48.5338 46.8085C48.5543 46.7936 48.5777 46.7832 48.6025 46.7779C48.6272 46.7726 48.6528 46.7726 48.6776 46.7778C48.7024 46.783 48.7258 46.7934 48.7463 46.8082C48.7669 46.8231 48.784 46.8421 48.7968 46.864C48.8095 46.8858 48.8175 46.9102 48.8202 46.9353C48.823 46.9605 48.8204 46.986 48.8127 47.0101C48.805 47.0342 48.7923 47.0565 48.7754 47.0754C48.7585 47.0943 48.7379 47.1094 48.7148 47.1199L40.5083 51.8584C40.4811 51.8752 40.4497 51.884 40.4178 51.8838V51.8838Z" fill="#E0E0E0"/>
<path d="M41.3301 52.4051C41.2906 52.4047 41.2523 52.3914 41.221 52.3672C41.1898 52.343 41.1674 52.3092 41.1571 52.2711C41.1469 52.2329 41.1494 52.1925 41.1643 52.1559C41.1791 52.1193 41.2056 52.0886 41.2396 52.0684L49.4461 47.3298C49.4874 47.3061 49.5365 47.2996 49.5826 47.3118C49.6287 47.324 49.6681 47.3539 49.6923 47.395C49.7162 47.4369 49.7228 47.4865 49.7106 47.5332C49.6984 47.5799 49.6684 47.6199 49.6271 47.6448L41.4206 52.3797C41.3934 52.3965 41.362 52.4053 41.3301 52.4051V52.4051Z" fill="#E0E0E0"/>
<path d="M42.2387 52.9264C42.1992 52.926 42.1609 52.9126 42.1297 52.8884C42.0984 52.8642 42.076 52.8305 42.0657 52.7924C42.0555 52.7542 42.058 52.7138 42.0729 52.6772C42.0877 52.6406 42.1142 52.6099 42.1482 52.5897L50.3547 47.8511C50.3965 47.8271 50.4461 47.8207 50.4926 47.8332C50.5391 47.8458 50.5787 47.8763 50.6027 47.9181C50.6267 47.9599 50.6331 48.0094 50.6205 48.0559C50.608 48.1025 50.5775 48.1421 50.5357 48.1661L42.3292 52.9046C42.3012 52.9191 42.2701 52.9265 42.2387 52.9264Z" fill="#E0E0E0"/>
<path d="M43.1509 53.4513C43.1193 53.4511 43.0883 53.4426 43.061 53.4268C43.0337 53.4109 43.0111 53.3881 42.9953 53.3608C42.9713 53.3189 42.9647 53.2693 42.9769 53.2226C42.9891 53.1759 43.0191 53.1359 43.0604 53.111L51.267 48.376C51.2874 48.3612 51.3108 48.3507 51.3356 48.3454C51.3604 48.3401 51.386 48.3401 51.4107 48.3453C51.4355 48.3505 51.4589 48.3609 51.4795 48.3757C51.5 48.3906 51.5172 48.4096 51.5299 48.4315C51.5426 48.4534 51.5506 48.4777 51.5534 48.5029C51.5561 48.528 51.5535 48.5535 51.5458 48.5776C51.5381 48.6017 51.5254 48.624 51.5085 48.6429C51.4917 48.6618 51.471 48.6769 51.448 48.6874L43.2414 53.4259C43.2142 53.4427 43.1829 53.4515 43.1509 53.4513V53.4513Z" fill="#E0E0E0"/>
<path d="M35.0168 49.2195L35.3353 49.0349L39.0748 51.1924L38.7526 51.377L35.0168 49.2195Z" fill="#455A64"/>
<path d="M36.3127 48.4702L36.8702 48.1516L40.606 50.3128L40.0522 50.6277L36.3127 48.4702Z" fill="#455A64"/>
<path d="M37.6123 47.7172L37.9345 47.5326L41.6703 49.6937L41.3518 49.8747L37.6123 47.7172Z" fill="#455A64"/>
<path d="M38.5861 47.1488L39.2304 46.7832L42.9699 48.9407L42.3256 49.3063L38.5861 47.1488Z" fill="#455A64"/>
<path d="M40.2115 46.2185L40.53 46.0339L44.2695 48.1914L43.9509 48.376L40.2115 46.2185Z" fill="#455A64"/>
<path d="M41.1382 45.6719L41.8296 45.2809L45.5691 47.4421L44.8776 47.833L41.1382 45.6719Z" fill="#455A64"/>
<path d="M42.8106 44.7162L43.1292 44.5316L46.8687 46.6928L46.5501 46.8738L42.8106 44.7162Z" fill="#455A64"/>
<path d="M43.5455 44.2854L43.7084 44.1949L47.4442 46.3525L47.285 46.4466L43.5455 44.2854Z" fill="#455A64"/>
<path d="M42.235 45.071L42.3943 44.9769L46.1338 47.1344L45.9745 47.2285L42.235 45.071Z" fill="#455A64"/>
<path d="M39.6033 46.5732L39.7662 46.4791L43.502 48.6403L43.3428 48.7308L39.6033 46.5732Z" fill="#455A64"/>
<path d="M38.1734 47.4022L38.3363 47.3081L42.0721 49.4692L41.9129 49.5597L38.1734 47.4022Z" fill="#455A64"/>
<path d="M37.1634 48.0068L37.3227 47.9127L41.0585 50.0738L40.8993 50.1643L37.1634 48.0068Z" fill="#455A64"/>
<path d="M35.7408 48.7959L35.9001 48.7054L39.6359 50.863L39.4766 50.9535L35.7408 48.7959Z" fill="#455A64"/>
<path d="M44.1102 43.9668L44.4288 43.7822L48.1682 45.9397L47.846 46.1244L44.1102 43.9668Z" fill="#455A64"/>
<path d="M61.7649 77.2817L30.8864 59.4532V49.2629L61.7649 67.0914V77.2817Z" fill="#0A0B37"/>
<g opacity="0.2">
<path d="M61.7649 77.2817L30.8864 59.4532V49.2629L61.7649 67.0914V77.2817Z" fill="black"/>
</g>
<path d="M61.765 77.2817L88.2344 61.9981V51.8114L61.765 67.0914V77.2817Z" fill="#0A0B37"/>
<path opacity="0.3" d="M61.765 77.2817L88.2344 61.9981V51.8114L61.765 67.0914V77.2817Z" fill="black"/>
<path d="M77.7473 61.1582L75.6042 62.3927V59.0731L77.7473 57.8351V61.1582Z" fill="#37474F"/>
<path d="M75.6042 59.0731L44.7256 41.2446L46.865 40.0066L77.7473 57.8351L75.6042 59.0731Z" fill="#455A64"/>
<path d="M49.6923 66.8199C49.4589 66.6568 49.2678 66.4403 49.1349 66.1885C49.0021 65.9366 48.9313 65.6567 48.9284 65.3719V63.1601L50.4814 64.0723L50.5828 64.0542V64.199V66.1792C50.5949 66.3081 50.5733 66.4381 50.52 66.5561C50.4667 66.6742 50.3835 66.7763 50.2787 66.8525C50.2048 66.8944 50.1211 66.9156 50.0362 66.914C49.9152 66.9138 49.7965 66.8813 49.6923 66.8199V66.8199ZM49.866 64.438L49.7502 65.2126H49.1782V65.3755C49.1837 65.6161 49.2442 65.8521 49.3553 66.0655C49.4664 66.2789 49.625 66.4639 49.819 66.6063C49.8666 66.6406 49.9224 66.6619 49.9807 66.6683C50.0391 66.6746 50.0981 66.6657 50.152 66.6425C50.2186 66.5883 50.2702 66.5179 50.3019 66.438C50.3335 66.3582 50.3443 66.2716 50.333 66.1864V64.3547L49.866 64.438ZM49.6452 64.2244L50.1049 64.1411L49.1782 63.5981V64.952H49.5402L49.6452 64.2244Z" fill="#455A64"/>
<path d="M49.7538 68.4996C49.7868 68.4996 49.8185 68.4868 49.8421 68.4638C49.8658 68.4408 49.8795 68.4095 49.8805 68.3765V66.715C49.8805 66.6814 49.8671 66.6491 49.8434 66.6254C49.8196 66.6016 49.7874 66.5883 49.7538 66.5883C49.7208 66.5892 49.6895 66.603 49.6665 66.6266C49.6435 66.6503 49.6307 66.682 49.6307 66.715V68.3765C49.6307 68.4092 49.6437 68.4405 49.6668 68.4636C49.6898 68.4866 49.7211 68.4996 49.7538 68.4996Z" fill="#455A64"/>
<path d="M50.4778 68.934C50.5002 68.9344 50.5222 68.9285 50.5414 68.917C50.5606 68.9055 50.5762 68.8888 50.5864 68.8689C50.6022 68.8399 50.6061 68.806 50.5974 68.7742C50.5886 68.7425 50.5678 68.7154 50.5393 68.6987L49.0913 67.8661C49.0771 67.8578 49.0614 67.8524 49.0451 67.8503C49.0287 67.8481 49.0122 67.8493 48.9963 67.8537C48.9804 67.8581 48.9656 67.8656 48.9527 67.8758C48.9398 67.886 48.9291 67.8987 48.9212 67.9132C48.9128 67.9269 48.9073 67.9421 48.9049 67.958C48.9026 67.9739 48.9034 67.9901 48.9075 68.0057C48.9116 68.0212 48.9187 68.0358 48.9285 68.0485C48.9383 68.0612 48.9506 68.0718 48.9646 68.0797L50.4126 68.9159C50.4322 68.9279 50.4548 68.9342 50.4778 68.934V68.934Z" fill="#455A64"/>
<path d="M54.8109 71.4897C54.8579 71.4888 54.9039 71.4764 54.9449 71.4535C54.9952 71.422 55.0359 71.3774 55.0627 71.3245C55.0895 71.2715 55.1013 71.2122 55.0969 71.1531V70.8128C55.096 70.7798 55.0822 70.7485 55.0585 70.7255C55.0349 70.7025 55.0032 70.6897 54.9702 70.6897C54.9376 70.6897 54.9063 70.7027 54.8832 70.7258C54.8601 70.7488 54.8471 70.7801 54.8471 70.8128V71.1531C54.8471 71.2037 54.8471 71.2327 54.8218 71.2363C54.7964 71.2399 54.7856 71.2363 54.7421 71.2146C54.6652 71.1434 54.6047 71.0564 54.5647 70.9595C54.5247 70.8626 54.5062 70.7582 54.5105 70.6535V68.4417C54.5105 68.409 54.4975 68.3777 54.4744 68.3547C54.4513 68.3316 54.42 68.3186 54.3874 68.3186C54.3544 68.3186 54.3227 68.3314 54.2991 68.3544C54.2754 68.3774 54.2616 68.4087 54.2607 68.4417V70.6535C54.2556 70.8026 54.2857 70.9507 54.3486 71.0859C54.4115 71.2212 54.5054 71.3397 54.6227 71.4318C54.6797 71.4663 54.7444 71.4862 54.8109 71.4897Z" fill="#455A64"/>
<path d="M52.8127 67.6453V67.5729C52.7743 67.3596 52.8026 67.1397 52.8938 66.9431C52.985 66.7465 53.1346 66.5828 53.3222 66.4743C53.5099 66.3658 53.7264 66.3179 53.9423 66.337C54.1582 66.3561 54.3629 66.4413 54.5286 66.581C54.9921 66.8833 55.3778 67.2906 55.6546 67.7699C55.9313 68.2492 56.0912 68.7869 56.1214 69.3395V69.5567L52.8127 67.6453ZM53.4462 66.6896C53.3183 66.7783 53.2148 66.8977 53.1452 67.0369C53.0756 67.176 53.0421 67.3305 53.048 67.486L55.8462 69.1005C55.787 68.6326 55.6268 68.183 55.3768 67.783C55.1268 67.383 54.7929 67.0421 54.3982 66.7837C54.2116 66.6647 53.9968 66.5973 53.7756 66.5883C53.6588 66.5926 53.5452 66.6275 53.4462 66.6896V66.6896Z" fill="#455A64"/>
<path d="M59.8138 74.2808C59.8468 74.2808 59.8785 74.2679 59.9021 74.245C59.9258 74.222 59.9395 74.1907 59.9405 74.1577V69.9187C59.9395 69.8857 59.9258 69.8544 59.9021 69.8314C59.8785 69.8084 59.8468 69.7956 59.8138 69.7956C59.7811 69.7956 59.7498 69.8086 59.7268 69.8316C59.7037 69.8547 59.6907 69.886 59.6907 69.9187V74.1577C59.6907 74.1903 59.7037 74.2216 59.7268 74.2447C59.7498 74.2678 59.7811 74.2808 59.8138 74.2808Z" fill="#455A64"/>
<path d="M60.1794 70.8852C60.1949 70.8885 60.2109 70.8885 60.2264 70.8852C60.2418 70.8793 60.2558 70.8703 60.2676 70.8588C60.2793 70.8472 60.2885 70.8333 60.2947 70.818C60.3008 70.8027 60.3037 70.7863 60.3031 70.7699C60.3026 70.7534 60.2987 70.7372 60.2916 70.7223L59.85 69.7015L59.354 70.2698C59.3308 70.2935 59.3178 70.3253 59.3178 70.3585C59.3178 70.3917 59.3308 70.4235 59.354 70.4472C59.3771 70.4702 59.4083 70.4831 59.4409 70.4831C59.4735 70.4831 59.5047 70.4702 59.5278 70.4472L59.7631 70.1757L60.0491 70.8382C60.0642 70.8575 60.0844 70.8721 60.1075 70.8804C60.1305 70.8888 60.1554 70.8904 60.1794 70.8852V70.8852Z" fill="#455A64"/>
<path d="M58.6626 73.64C58.6793 73.64 58.6957 73.6367 58.7111 73.6304C58.7265 73.624 58.7404 73.6147 58.7522 73.6029C58.764 73.5912 58.7733 73.5772 58.7797 73.5618C58.786 73.5464 58.7893 73.53 58.7893 73.5133V69.2779C58.7884 69.245 58.7746 69.2137 58.751 69.1907C58.7273 69.1677 58.6956 69.1548 58.6626 69.1548C58.63 69.1548 58.5987 69.1678 58.5756 69.1909C58.5525 69.214 58.5396 69.2453 58.5396 69.2779V73.5133C58.5395 73.5463 58.5524 73.578 58.5754 73.6017C58.5983 73.6253 58.6297 73.6391 58.6626 73.64V73.64Z" fill="#455A64"/>
<path d="M59.0282 70.23C59.0437 70.2333 59.0598 70.2333 59.0753 70.23C59.0907 70.2241 59.1047 70.2151 59.1164 70.2035C59.1282 70.1919 59.1374 70.1781 59.1435 70.1628C59.1496 70.1475 59.1525 70.1311 59.152 70.1146C59.1515 70.0981 59.1475 70.0819 59.1405 70.0671L58.6988 69.0426L58.2029 69.6146C58.1807 69.6381 58.1684 69.6691 58.1684 69.7014C58.1684 69.7337 58.1807 69.7648 58.2029 69.7883C58.214 69.8002 58.2275 69.8096 58.2424 69.816C58.2574 69.8225 58.2735 69.8258 58.2898 69.8258C58.306 69.8258 58.3221 69.8225 58.3371 69.816C58.352 69.8096 58.3655 69.8002 58.3766 69.7883L58.6119 69.5168L58.8979 70.1757C58.9121 70.1963 58.932 70.2124 58.9551 70.222C58.9782 70.2316 59.0036 70.2344 59.0282 70.23V70.23Z" fill="#455A64"/>
<path d="M40.9463 57.4731V62.9574C40.9463 63.1673 40.7979 63.2542 40.6169 63.1492L32.052 58.2043C31.955 58.1423 31.8742 58.0581 31.8163 57.9586C31.7584 57.8591 31.725 57.7473 31.719 57.6323V52.1444C31.719 51.9345 31.8674 51.8476 32.052 51.9526L40.6097 56.8975C40.7078 56.9594 40.7896 57.044 40.8482 57.1442C40.9068 57.2444 40.9405 57.3572 40.9463 57.4731Z" fill="#FAFAFA"/>
<path d="M32.2547 52.7382L32.5298 52.8974V57.8822L32.2547 57.7229V52.7382Z" fill="#455A64"/>
<path d="M33.3769 53.3897L33.8548 53.6685V58.6532L33.3769 58.3708V53.3897Z" fill="#455A64"/>
<path d="M34.5027 54.0377L34.7815 54.197V59.1817L34.5027 59.0225V54.0377Z" fill="#455A64"/>
<path d="M35.3534 54.5192L35.9037 54.845V59.8297L35.3534 59.5039V54.5192Z" fill="#455A64"/>
<path d="M36.7544 55.3373L37.0295 55.4966V60.4813L36.7544 60.322V55.3373Z" fill="#455A64"/>
<path d="M37.5652 55.7934L38.1553 56.1445V61.1293L37.5652 60.7781V55.7934Z" fill="#455A64"/>
<path d="M39.006 56.6332L39.2811 56.7961V61.7809L39.006 61.618V56.6332Z" fill="#455A64"/>
<path d="M39.6468 56.9989L39.7843 57.0785V62.0633L39.6468 61.9836V56.9989Z" fill="#455A64"/>
<path d="M38.492 56.3618L38.6295 56.445V61.4261L38.492 61.3465V56.3618Z" fill="#455A64"/>
<path d="M36.2259 55.0368L36.3634 55.1164V60.1012L36.2259 60.0215V55.0368Z" fill="#455A64"/>
<path d="M34.9842 54.3237L35.1217 54.4033V59.3881L34.9842 59.3084V54.3237Z" fill="#455A64"/>
<path d="M34.0937 53.8314L34.2312 53.911V58.8957L34.0937 58.8161V53.8314Z" fill="#455A64"/>
<path d="M32.8846 53.0965L33.0221 53.1761V58.1609L32.8846 58.0812V53.0965Z" fill="#455A64"/>
<path d="M40.1282 57.2849L40.4069 57.4441V62.4289L40.1282 62.2696V57.2849Z" fill="#455A64"/>
<path opacity="0.1" d="M45.6378 118.803L21.4526 132.751L3.349 122.286L27.5921 108.37L45.6378 118.803Z" fill="black"/>
<path d="M5.55719 77.7089L27.6139 64.9774L43.7916 74.3133L21.735 87.0485L5.55719 77.7089Z" fill="#0A0B37"/>
<path opacity="0.1" d="M5.55719 77.7089L27.6139 64.9774L43.7916 74.3133L21.735 87.0485L5.55719 77.7089Z" fill="black"/>
<path d="M27.4003 66.8054L20.6309 70.7042C20.5078 70.7766 20.5404 70.9105 20.7033 71.0046L28.3487 75.4174C28.4254 75.4634 28.5116 75.4912 28.6007 75.4987C28.6898 75.5062 28.7794 75.4933 28.8628 75.4608L35.6358 71.5585C35.7589 71.4861 35.7263 71.3558 35.5634 71.258L27.9179 66.8489C27.8406 66.8029 27.7538 66.775 27.6641 66.7675C27.5744 66.76 27.4842 66.773 27.4003 66.8054Z" fill="#FAFAFA"/>
<path d="M30.8212 73.4409C30.8455 73.4414 30.8694 73.4352 30.8904 73.4231C30.9115 73.411 30.9288 73.3934 30.9406 73.3722C30.9591 73.3399 30.9642 73.3017 30.9547 73.2658C30.9452 73.2299 30.9219 73.1992 30.89 73.1803L24.5441 69.5169C24.5113 69.4996 24.473 69.4956 24.4373 69.5057C24.4016 69.5158 24.3712 69.5392 24.3522 69.5712C24.3349 69.603 24.3304 69.6404 24.3399 69.6754C24.3493 69.7105 24.3719 69.7405 24.4029 69.7594L30.7488 73.4228C30.7705 73.436 30.7958 73.4423 30.8212 73.4409Z" fill="#E0E0E0"/>
<path d="M30.1153 73.8464C30.1394 73.8461 30.1631 73.8396 30.184 73.8276C30.2049 73.8155 30.2224 73.7983 30.2347 73.7776C30.2444 73.7618 30.2507 73.7442 30.2534 73.7258C30.2561 73.7075 30.255 73.6888 30.2503 73.6709C30.2455 73.6529 30.2372 73.6362 30.2259 73.6215C30.2145 73.6069 30.2003 73.5947 30.1841 73.5857L23.8382 69.9223C23.8226 69.9127 23.8053 69.9064 23.7872 69.9038C23.7692 69.9012 23.7508 69.9023 23.7331 69.907C23.7155 69.9118 23.699 69.9201 23.6847 69.9314C23.6704 69.9427 23.6586 69.9569 23.65 69.973C23.6403 69.9888 23.634 70.0064 23.6313 70.0248C23.6286 70.0431 23.6297 70.0618 23.6344 70.0797C23.6391 70.0976 23.6475 70.1144 23.6588 70.129C23.6702 70.1437 23.6844 70.1558 23.7006 70.1648L30.0465 73.8283C30.0676 73.8398 30.0912 73.846 30.1153 73.8464V73.8464Z" fill="#E0E0E0"/>
<path d="M29.4094 74.2482C29.4398 74.2476 29.4691 74.2372 29.4931 74.2186C29.5171 74.1999 29.5345 74.1741 29.5426 74.1448C29.5507 74.1155 29.5492 74.0844 29.5383 74.0561C29.5273 74.0277 29.5075 74.0037 29.4818 73.9875L23.1359 70.3241C23.1035 70.3065 23.0656 70.302 23.0299 70.3114C22.9943 70.3208 22.9636 70.3435 22.9441 70.3748C22.9256 70.407 22.9205 70.4452 22.93 70.4811C22.9395 70.517 22.9627 70.5477 22.9947 70.5666L29.3406 74.2301C29.3612 74.2427 29.3852 74.249 29.4094 74.2482Z" fill="#E0E0E0"/>
<path d="M28.7071 74.6536C28.7312 74.6533 28.7549 74.6468 28.7758 74.6348C28.7967 74.6228 28.8142 74.6056 28.8266 74.5848C28.8362 74.569 28.8426 74.5514 28.8452 74.5331C28.8479 74.5147 28.8468 74.496 28.8421 74.4781C28.8374 74.4602 28.8291 74.4434 28.8177 74.4288C28.8063 74.4142 28.7921 74.402 28.7759 74.393L22.43 70.744C22.4145 70.7344 22.3971 70.7281 22.3791 70.7255C22.361 70.7229 22.3426 70.724 22.325 70.7287C22.3073 70.7335 22.2909 70.7418 22.2766 70.7531C22.2623 70.7645 22.2504 70.7786 22.2418 70.7947C22.2321 70.8105 22.2258 70.8281 22.2231 70.8465C22.2204 70.8648 22.2215 70.8835 22.2262 70.9014C22.231 70.9193 22.2393 70.9361 22.2507 70.9508C22.262 70.9654 22.2763 70.9776 22.2925 70.9866L28.6347 74.65C28.6583 74.6562 28.683 74.6574 28.7071 74.6536Z" fill="#E0E0E0"/>
<path d="M34.995 71.3811L34.7489 71.2399L31.8601 72.9087L32.1063 73.0499L34.995 71.3811Z" fill="#455A64"/>
<path d="M33.9923 70.8019L33.5615 70.5594L30.6728 72.2282L31.0999 72.4707L33.9923 70.8019Z" fill="#455A64"/>
<path d="M32.9859 70.2227L32.7398 70.0779L29.851 71.7468L30.0972 71.8916L32.9859 70.2227Z" fill="#455A64"/>
<path d="M32.233 69.7811L31.737 69.4987L28.8447 71.1675L29.3442 71.4499L32.233 69.7811Z" fill="#455A64"/>
<path d="M30.9768 69.0607L30.7307 68.9196L27.8419 70.5884L28.0881 70.7296L30.9768 69.0607Z" fill="#455A64"/>
<path d="M30.2601 68.6408L29.7279 68.3403L26.8355 70.0092L27.3713 70.3096L30.2601 68.6408Z" fill="#455A64"/>
<path d="M28.9677 67.9023L28.7216 67.7575L25.8328 69.4263L26.079 69.5711L28.9677 67.9023Z" fill="#455A64"/>
<path d="M28.3994 67.5693L28.2763 67.4969L25.3875 69.1657L25.5106 69.2381L28.3994 67.5693Z" fill="#455A64"/>
<path d="M29.413 68.1738L29.2899 68.1014L26.3975 69.7703L26.5242 69.8427L29.413 68.1738Z" fill="#455A64"/>
<path d="M31.4474 69.3358L31.3244 69.2634L28.432 70.9322L28.5587 71.0046L31.4474 69.3358Z" fill="#455A64"/>
<path d="M32.5515 69.9766L32.4285 69.9078L29.5397 71.573L29.6628 71.6454L32.5515 69.9766Z" fill="#455A64"/>
<path d="M33.3371 70.4436L33.214 70.3712L30.3216 72.0436L30.4447 72.1124L33.3371 70.4436Z" fill="#455A64"/>
<path d="M34.4375 71.0553L34.3145 70.9829L31.4221 72.6517L31.5452 72.7241L34.4375 71.0553Z" fill="#455A64"/>
<path d="M27.965 67.3195L27.7188 67.1783L24.8264 68.8471L25.0726 68.9919L27.965 67.3195Z" fill="#455A64"/>
<path d="M21.735 131.202L5.55719 121.862V77.7089L21.735 87.0485V131.202Z" fill="#0A0B37"/>
<g opacity="0.2">
<path d="M21.735 131.202L5.55719 121.862V77.7089L21.735 87.0485V131.202Z" fill="black"/>
</g>
<path d="M21.735 131.202L43.7916 118.466V74.3134L21.735 87.0485V131.202Z" fill="#0A0B37"/>
<path opacity="0.3" d="M21.735 131.202L43.7916 118.466V74.3134L21.735 87.0485V131.202Z" fill="black"/>
<path d="M33.4964 83.5805L31.3569 84.815V81.4918L33.4964 80.2574V83.5805Z" fill="#37474F"/>
<path d="M31.3569 81.4918L15.1828 72.1558L17.3222 70.9178L33.4964 80.2574L31.3569 81.4918Z" fill="#455A64"/>
<path d="M9.65866 120.743C9.42652 120.579 9.23639 120.362 9.10368 120.111C8.97097 119.859 8.89942 119.58 8.89484 119.295V117.08L10.4478 117.992H10.5492V118.141V120.121C10.5629 120.249 10.542 120.379 10.4885 120.497C10.435 120.615 10.351 120.716 10.2451 120.791C10.1717 120.834 10.0878 120.857 10.0026 120.856C9.88027 120.848 9.76195 120.809 9.65866 120.743ZM9.83242 118.358L9.7202 119.136H9.14462V119.299C9.15006 119.539 9.21068 119.775 9.32179 119.987C9.43291 120.2 9.59153 120.385 9.78536 120.526C9.8331 120.562 9.8893 120.584 9.94837 120.591C10.0074 120.598 10.0673 120.589 10.122 120.566C10.1872 120.511 10.2375 120.44 10.2685 120.36C10.2994 120.281 10.3101 120.195 10.2994 120.11V118.275L9.83242 118.358ZM9.61159 118.144L10.0713 118.065L9.14462 117.518V118.89H9.50662L9.61159 118.144Z" fill="#455A64"/>
<path d="M9.72381 122.423C9.75645 122.423 9.78775 122.41 9.81083 122.387C9.83392 122.364 9.84689 122.333 9.84689 122.3V120.635C9.84689 120.602 9.83392 120.571 9.81083 120.548C9.78775 120.525 9.75645 120.512 9.72381 120.512C9.69082 120.512 9.65913 120.525 9.63547 120.548C9.61181 120.571 9.59805 120.602 9.59711 120.635V122.3C9.59805 122.333 9.61181 122.364 9.63547 122.387C9.65913 122.41 9.69082 122.423 9.72381 122.423V122.423Z" fill="#455A64"/>
<path d="M10.4442 122.839C10.4719 122.84 10.4992 122.832 10.5214 122.815C10.5437 122.798 10.5597 122.775 10.5668 122.748C10.574 122.721 10.5718 122.693 10.5607 122.667C10.5496 122.642 10.5302 122.621 10.5057 122.608L9.0577 121.772C9.04344 121.763 9.02773 121.758 9.01146 121.756C8.99519 121.754 8.97869 121.755 8.96289 121.76C8.94709 121.764 8.9323 121.772 8.91938 121.782C8.90645 121.792 8.89564 121.804 8.88756 121.819C8.87948 121.833 8.87429 121.849 8.87228 121.865C8.87027 121.881 8.87149 121.898 8.87586 121.913C8.88023 121.929 8.88766 121.944 8.89775 121.957C8.90783 121.97 8.92036 121.981 8.93462 121.989L10.3826 122.821C10.4004 122.834 10.4222 122.841 10.4442 122.839V122.839Z" fill="#455A64"/>
<path d="M14.7773 125.406C14.8251 125.406 14.8723 125.395 14.9149 125.373C14.9637 125.341 15.0031 125.296 15.0291 125.243C15.0552 125.19 15.067 125.132 15.0633 125.073V124.733C15.0664 124.715 15.0655 124.696 15.0607 124.678C15.0558 124.66 15.0472 124.644 15.0353 124.63C15.0234 124.616 15.0085 124.604 14.9918 124.596C14.9751 124.589 14.9569 124.585 14.9384 124.585C14.92 124.585 14.9018 124.589 14.885 124.596C14.8683 124.604 14.8535 124.616 14.8416 124.63C14.8297 124.644 14.821 124.66 14.8162 124.678C14.8113 124.696 14.8104 124.715 14.8135 124.733V125.073C14.8165 125.102 14.8088 125.132 14.7918 125.156C14.7623 125.16 14.7325 125.152 14.7086 125.135C14.6316 125.063 14.5711 124.976 14.5311 124.879C14.4911 124.783 14.4726 124.678 14.4769 124.573V122.365C14.4769 122.332 14.464 122.301 14.4411 122.277C14.4181 122.253 14.3868 122.239 14.3538 122.239C14.3372 122.239 14.3207 122.242 14.3053 122.248C14.2899 122.255 14.276 122.264 14.2642 122.276C14.2524 122.287 14.2431 122.301 14.2367 122.317C14.2304 122.332 14.2271 122.349 14.2271 122.365V124.577C14.2223 124.726 14.2525 124.873 14.3154 125.008C14.3783 125.142 14.4721 125.26 14.5891 125.352C14.6457 125.387 14.7108 125.406 14.7773 125.406Z" fill="#455A64"/>
<path d="M12.7791 121.565V121.493C12.742 121.279 12.7714 121.06 12.8632 120.864C12.955 120.668 13.1048 120.504 13.2924 120.396C13.4799 120.288 13.6962 120.24 13.912 120.259C14.1277 120.277 14.3325 120.362 14.4986 120.501C14.9613 120.804 15.3462 121.211 15.6222 121.691C15.8983 122.17 16.0578 122.707 16.0878 123.259V123.477L12.7791 121.565ZM13.4162 120.609C13.2876 120.701 13.1846 120.824 13.1168 120.966C13.049 121.109 13.0187 121.266 13.0289 121.424L15.8271 123.039C15.7668 122.57 15.6061 122.121 15.3563 121.72C15.1064 121.32 14.7731 120.978 14.3791 120.718C14.1926 120.602 13.9795 120.536 13.7601 120.526C13.6402 120.523 13.5216 120.552 13.4162 120.609V120.609Z" fill="#455A64"/>
<path d="M19.7802 128.201C19.8132 128.201 19.8449 128.188 19.8685 128.165C19.8922 128.142 19.9059 128.111 19.9069 128.078V123.842C19.9059 123.809 19.8922 123.778 19.8685 123.755C19.8449 123.732 19.8132 123.719 19.7802 123.719C19.7475 123.719 19.7162 123.732 19.6932 123.755C19.6701 123.778 19.6571 123.81 19.6571 123.842V128.078C19.6571 128.11 19.6701 128.142 19.6932 128.165C19.7162 128.188 19.7475 128.201 19.7802 128.201Z" fill="#455A64"/>
<path d="M20.1458 124.809C20.1625 124.812 20.1797 124.812 20.1965 124.809C20.2112 124.802 20.2245 124.793 20.2356 124.781C20.2466 124.769 20.2553 124.755 20.261 124.74C20.2667 124.725 20.2694 124.709 20.2689 124.693C20.2684 124.676 20.2647 124.661 20.258 124.646L19.8164 123.596L19.324 124.168C19.3011 124.191 19.2881 124.222 19.2881 124.255C19.2881 124.287 19.3011 124.319 19.324 124.342C19.3482 124.364 19.3798 124.377 19.4127 124.377C19.4456 124.377 19.4773 124.364 19.5014 124.342L19.7331 124.07L20.0191 124.729C20.0295 124.754 20.0472 124.775 20.0699 124.789C20.0925 124.803 20.119 124.81 20.1458 124.809V124.809Z" fill="#455A64"/>
<path d="M18.629 127.545C18.662 127.545 18.6937 127.533 18.7173 127.51C18.741 127.487 18.7548 127.455 18.7557 127.422V123.187C18.7557 123.153 18.7423 123.121 18.7186 123.097C18.6948 123.074 18.6626 123.06 18.629 123.06C18.596 123.061 18.5647 123.075 18.5417 123.099C18.5188 123.122 18.5059 123.154 18.5059 123.187V127.422C18.5059 127.455 18.5189 127.486 18.542 127.509C18.565 127.532 18.5964 127.545 18.629 127.545V127.545Z" fill="#455A64"/>
<path d="M18.9946 124.15C19.0114 124.153 19.0286 124.153 19.0453 124.15C19.0754 124.136 19.0989 124.11 19.111 124.08C19.1231 124.049 19.1229 124.014 19.1105 123.983L18.658 122.955L18.1657 123.524C18.155 123.536 18.1468 123.55 18.1417 123.566C18.1365 123.581 18.1345 123.598 18.1356 123.614C18.1368 123.63 18.1412 123.646 18.1485 123.661C18.1558 123.675 18.166 123.688 18.1783 123.699C18.1907 123.71 18.205 123.718 18.2206 123.723C18.2361 123.728 18.2524 123.73 18.2687 123.729C18.285 123.728 18.301 123.724 18.3156 123.716C18.3302 123.709 18.3432 123.699 18.3539 123.686L18.5856 123.415L18.8716 124.077C18.8824 124.1 18.9 124.12 18.9219 124.133C18.9439 124.146 18.9692 124.152 18.9946 124.15Z" fill="#455A64"/>
<path d="M20.2616 114.684V120.164C20.2616 120.378 20.1132 120.461 19.9322 120.356L11.3709 115.415C11.2734 115.352 11.1923 115.268 11.1344 115.168C11.0765 115.067 11.0434 114.955 11.0379 114.839V109.355C11.0379 109.141 11.1827 109.058 11.3673 109.163L19.9286 114.108C20.0261 114.17 20.1072 114.255 20.1651 114.355C20.2231 114.455 20.2561 114.568 20.2616 114.684V114.684Z" fill="#FAFAFA"/>
<path d="M11.57 109.949L11.8451 110.108V115.093L11.57 114.933V109.949Z" fill="#455A64"/>
<path d="M12.6958 110.597L13.1701 110.879V115.864L12.6958 115.581V110.597Z" fill="#455A64"/>
<path d="M13.8217 111.248L14.0968 111.407V116.392L13.8217 116.233V111.248Z" fill="#455A64"/>
<path d="M14.6687 111.726L15.2226 112.055V117.04L14.6687 116.714V111.726Z" fill="#455A64"/>
<path d="M16.0697 112.544L16.3484 112.707V117.692L16.0697 117.532V112.544Z" fill="#455A64"/>
<path d="M16.8806 113.004L17.4706 113.355V118.34L16.8806 117.989V113.004Z" fill="#455A64"/>
<path d="M18.3213 113.844L18.5964 114.003V118.988L18.3213 118.828V113.844Z" fill="#455A64"/>
<path d="M18.962 114.209L19.0996 114.289V119.274L18.962 119.194V114.209Z" fill="#455A64"/>
<path d="M17.8073 113.572L17.9448 113.652V118.637L17.8073 118.557V113.572Z" fill="#455A64"/>
<path d="M15.5411 112.244L15.6787 112.327V117.308L15.5411 117.232V112.244Z" fill="#455A64"/>
<path d="M14.2995 111.534L14.4371 111.614V116.599L14.2995 116.519V111.534Z" fill="#455A64"/>
<path d="M13.409 111.042L13.5465 111.122V116.106L13.409 116.027V111.042Z" fill="#455A64"/>
<path d="M12.1999 110.307L12.3374 110.387V115.371L12.1999 115.292V110.307Z" fill="#455A64"/>
<path d="M19.4471 114.495L19.7223 114.655V119.639L19.4471 119.48V114.495Z" fill="#455A64"/>
<path opacity="0.1" d="M65.4175 130.21L41.2323 144.158L22.6617 133.464L46.9012 119.549L65.4175 130.21Z" fill="black"/>
<path d="M25.4672 111.874L47.5275 99.1393L63.7016 108.479L41.645 121.214L25.4672 111.874Z" fill="#0A0B37"/>
<g opacity="0.3">
<path d="M25.4672 111.874L47.5275 99.1393L63.7016 108.479L41.645 121.214L25.4672 111.874Z" fill="white"/>
</g>
<path d="M47.3103 100.971L40.5409 104.87C40.4178 104.942 40.4504 105.076 40.6133 105.17L48.2587 109.583C48.336 109.629 48.423 109.657 48.5128 109.664C48.6027 109.671 48.693 109.657 48.7764 109.623L55.5458 105.724C55.6689 105.652 55.6363 105.518 55.4734 105.424L47.8279 101.014C47.7513 100.967 47.6644 100.938 47.5744 100.93C47.4843 100.923 47.3938 100.937 47.3103 100.971V100.971Z" fill="#FAFAFA"/>
<path d="M50.7312 107.606C50.7553 107.606 50.779 107.6 50.7999 107.588C50.8208 107.576 50.8383 107.558 50.8506 107.538C50.8603 107.522 50.8666 107.504 50.8693 107.486C50.872 107.468 50.8709 107.449 50.8662 107.431C50.8615 107.413 50.8531 107.396 50.8418 107.382C50.8304 107.367 50.8162 107.355 50.8 107.346L44.4541 103.686C44.4226 103.674 44.388 103.674 44.3565 103.686C44.3249 103.697 44.2984 103.719 44.2819 103.749C44.2653 103.778 44.2597 103.812 44.266 103.845C44.2724 103.878 44.2903 103.908 44.3165 103.929L50.6588 107.592C50.6816 107.602 50.7063 107.607 50.7312 107.606Z" fill="#E0E0E0"/>
<path d="M50.0253 108.03C50.0504 108.03 50.075 108.023 50.0967 108.011C50.1183 107.998 50.1361 107.98 50.1484 107.958C50.1656 107.925 50.1696 107.887 50.1595 107.851C50.1494 107.815 50.126 107.785 50.0941 107.766L43.7518 104.084C43.7192 104.066 43.6806 104.062 43.6447 104.072C43.6087 104.082 43.5782 104.106 43.56 104.138C43.5509 104.154 43.545 104.171 43.5426 104.189C43.5403 104.207 43.5415 104.226 43.5462 104.243C43.5509 104.261 43.559 104.277 43.5701 104.291C43.5811 104.306 43.5949 104.318 43.6106 104.327L49.9565 107.99C49.9746 108.01 49.9987 108.024 50.0253 108.03Z" fill="#E0E0E0"/>
<path d="M49.323 108.414C49.3531 108.412 49.3819 108.401 49.4054 108.383C49.4288 108.364 49.4456 108.338 49.4533 108.309C49.4609 108.28 49.4591 108.249 49.448 108.221C49.437 108.193 49.4173 108.169 49.3918 108.153L43.0459 104.49C43.0137 104.471 42.9755 104.466 42.9396 104.476C42.9037 104.485 42.8729 104.508 42.854 104.54C42.8365 104.573 42.8319 104.611 42.8413 104.646C42.8508 104.682 42.8734 104.713 42.9047 104.732L49.2506 108.392C49.2727 108.405 49.2975 108.412 49.323 108.414Z" fill="#E0E0E0"/>
<path d="M48.6171 108.819C48.6417 108.819 48.6657 108.812 48.6867 108.799C48.7077 108.787 48.7249 108.768 48.7366 108.747C48.7462 108.731 48.7526 108.713 48.7552 108.695C48.7579 108.677 48.7568 108.658 48.7521 108.64C48.7474 108.622 48.7391 108.605 48.7277 108.591C48.7163 108.576 48.7021 108.564 48.6859 108.555L42.34 104.895C42.3243 104.886 42.307 104.88 42.2891 104.878C42.2711 104.876 42.2529 104.877 42.2354 104.881C42.2179 104.886 42.2015 104.894 42.1872 104.905C42.1728 104.916 42.1608 104.93 42.1518 104.946C42.1427 104.961 42.1369 104.979 42.1346 104.997C42.1322 105.015 42.1334 105.033 42.1381 105.05C42.1428 105.068 42.1509 105.084 42.162 105.099C42.173 105.113 42.1868 105.125 42.2025 105.134L48.5483 108.797C48.5685 108.812 48.5925 108.819 48.6171 108.819V108.819Z" fill="#E0E0E0"/>
<path d="M54.905 105.547L54.6589 105.402L51.7701 107.074L52.0163 107.215L54.905 105.547Z" fill="#455A64"/>
<path d="M53.9023 104.967L53.4751 104.721L50.5828 106.39L51.0135 106.636L53.9023 104.967Z" fill="#455A64"/>
<path d="M52.8959 104.385L52.6498 104.243L49.761 105.912L50.0072 106.053L52.8959 104.385Z" fill="#455A64"/>
<path d="M52.1466 103.947L51.647 103.664L48.7547 105.333L49.2542 105.615L52.1466 103.947Z" fill="#455A64"/>
<path d="M50.8905 103.226L50.6407 103.081L47.7519 104.75L47.9981 104.895L50.8905 103.226Z" fill="#455A64"/>
<path d="M50.1701 102.803L49.6379 102.502L46.7492 104.171L47.2813 104.475L50.1701 102.803Z" fill="#455A64"/>
<path d="M48.8814 102.064L48.6352 101.923L45.7428 103.592L45.989 103.733L48.8814 102.064Z" fill="#455A64"/>
<path d="M48.3094 101.735L48.1863 101.662L45.2975 103.331L45.4206 103.4L48.3094 101.735Z" fill="#455A64"/>
<path d="M49.323 102.339L49.1999 102.267L46.3112 103.936L46.4342 104.008L49.323 102.339Z" fill="#455A64"/>
<path d="M51.3574 103.501L51.2344 103.429L48.3456 105.098L48.4687 105.17L51.3574 103.501Z" fill="#455A64"/>
<path d="M52.4652 104.142L52.3421 104.07L49.4497 105.739L49.5728 105.811L52.4652 104.142Z" fill="#455A64"/>
<path d="M53.2471 104.609L53.124 104.537L50.2352 106.205L50.3547 106.278L53.2471 104.609Z" fill="#455A64"/>
<path d="M54.3475 105.221L54.2245 105.148L51.3321 106.817L51.4552 106.89L54.3475 105.221Z" fill="#455A64"/>
<path d="M47.875 101.485L47.6288 101.344L44.7401 103.013L44.9863 103.154L47.875 101.485Z" fill="#455A64"/>
<path d="M41.645 142.699L25.4672 133.359V111.874L41.645 121.214V142.699Z" fill="#0A0B37"/>
<path d="M41.645 142.699L25.4672 133.359V111.874L41.645 121.214V142.699Z" fill="#0A0B37"/>
<path d="M41.645 142.699L63.7016 129.964V108.479L41.645 121.214V142.699Z" fill="#0A0B37"/>
<path opacity="0.1" d="M41.645 142.699L63.7016 129.964V108.479L41.645 121.214V142.699Z" fill="black"/>
<path d="M53.4064 117.742L51.2669 118.98V115.657L53.4064 114.423V117.742Z" fill="#37474F"/>
<path d="M51.2669 115.657L35.0928 106.318L37.2322 105.083L53.4064 114.423L51.2669 115.657Z" fill="#455A64"/>
<path d="M61.66 127.897C61.6045 127.896 61.55 127.882 61.5007 127.857C61.4317 127.806 61.377 127.739 61.3421 127.66C61.3072 127.582 61.2932 127.497 61.3016 127.411V126.108V126.014H61.3667L62.3912 125.413V126.861C62.3889 127.048 62.342 127.232 62.2545 127.398C62.167 127.564 62.0414 127.706 61.888 127.813C61.8204 127.86 61.7419 127.889 61.66 127.897ZM61.4645 126.206V127.411C61.4572 127.468 61.4644 127.525 61.4853 127.577C61.5062 127.63 61.5401 127.676 61.5839 127.712C61.6197 127.728 61.659 127.734 61.6978 127.729C61.7366 127.725 61.7735 127.71 61.8048 127.687C61.932 127.593 62.0361 127.472 62.1089 127.332C62.1817 127.192 62.2213 127.037 62.2247 126.879V126.771H61.8627L61.7867 126.26L61.4645 126.206ZM61.9894 126.608H62.2247V125.706L61.6165 126.068L61.917 126.123L61.9894 126.608Z" fill="#455A64"/>
<path d="M61.8446 128.935C61.8341 128.935 61.8238 128.933 61.8141 128.929C61.8044 128.925 61.7957 128.92 61.7883 128.912C61.7809 128.905 61.775 128.896 61.771 128.886C61.767 128.877 61.7649 128.866 61.7649 128.856V127.77C61.7624 127.758 61.7625 127.745 61.7654 127.733C61.7683 127.721 61.7739 127.71 61.7817 127.7C61.7895 127.691 61.7994 127.683 61.8106 127.677C61.8217 127.672 61.834 127.669 61.8464 127.669C61.8588 127.669 61.871 127.672 61.8822 127.677C61.8934 127.683 61.9033 127.691 61.9111 127.7C61.9189 127.71 61.9244 127.721 61.9273 127.733C61.9302 127.745 61.9304 127.758 61.9278 127.77V128.856C61.9278 128.867 61.9257 128.877 61.9214 128.887C61.9172 128.897 61.911 128.906 61.9032 128.913C61.8955 128.921 61.8862 128.927 61.8762 128.93C61.8661 128.934 61.8553 128.936 61.8446 128.935V128.935Z" fill="#455A64"/>
<path d="M61.374 129.211C61.3595 129.211 61.3452 129.207 61.3325 129.2C61.3198 129.193 61.3091 129.183 61.3016 129.171C61.2909 129.152 61.2879 129.13 61.2933 129.109C61.2987 129.088 61.3121 129.07 61.3305 129.059L62.2826 128.508C62.3014 128.498 62.3236 128.495 62.3446 128.5C62.3655 128.505 62.3835 128.519 62.3948 128.537C62.4006 128.546 62.4044 128.557 62.4061 128.567C62.4078 128.578 62.4073 128.589 62.4045 128.6C62.4018 128.61 62.397 128.62 62.3903 128.629C62.3837 128.637 62.3754 128.644 62.3658 128.65L61.4138 129.2C61.4016 129.207 61.3879 129.21 61.374 129.211V129.211Z" fill="#455A64"/>
<path d="M58.5142 130.905C58.4827 130.905 58.4516 130.897 58.4237 130.883C58.3913 130.861 58.3651 130.832 58.348 130.797C58.3308 130.762 58.3232 130.723 58.3259 130.684V130.474C58.3259 130.452 58.3347 130.431 58.3503 130.415C58.3659 130.4 58.3871 130.391 58.4092 130.391C58.431 130.392 58.4516 130.401 58.4671 130.416C58.4825 130.432 58.4916 130.452 58.4924 130.474V130.698C58.4924 130.735 58.4924 130.749 58.4924 130.753C58.4924 130.756 58.5178 130.753 58.5467 130.753C58.5959 130.706 58.6348 130.65 58.661 130.588C58.6872 130.525 58.7001 130.458 58.6988 130.391V128.943C58.6962 128.931 58.6964 128.918 58.6993 128.906C58.7022 128.894 58.7077 128.883 58.7155 128.873C58.7234 128.863 58.7332 128.856 58.7444 128.85C58.7556 128.845 58.7678 128.842 58.7802 128.842C58.7926 128.842 58.8049 128.845 58.8161 128.85C58.8273 128.856 58.8371 128.863 58.8449 128.873C58.8527 128.883 58.8583 128.894 58.8612 128.906C58.8641 128.918 58.8643 128.931 58.8617 128.943V130.391C58.8654 130.488 58.8463 130.585 58.8061 130.673C58.7659 130.762 58.7056 130.84 58.63 130.901C58.5923 130.912 58.5524 130.914 58.5142 130.905V130.905Z" fill="#455A64"/>
<path d="M57.6526 129.631V129.489C57.6727 129.127 57.7778 128.774 57.9596 128.459C58.1413 128.145 58.3946 127.878 58.6988 127.679C58.8079 127.587 58.9428 127.531 59.085 127.518C59.2273 127.505 59.37 127.537 59.4939 127.608C59.6177 127.679 59.7166 127.787 59.777 127.916C59.8375 128.045 59.8567 128.19 59.8319 128.331V128.378L57.6526 129.631ZM59.202 127.687C59.057 127.693 58.9161 127.737 58.7929 127.813C58.5329 127.984 58.3127 128.209 58.1472 128.473C57.9817 128.736 57.8747 129.032 57.8336 129.341L59.6762 128.277C59.6836 128.174 59.6641 128.07 59.6197 127.977C59.5753 127.884 59.5074 127.804 59.4228 127.744C59.3562 127.705 59.2796 127.685 59.202 127.687V127.687Z" fill="#455A64"/>
<path d="M55.22 132.744C55.2095 132.744 55.1992 132.742 55.1895 132.738C55.1798 132.734 55.171 132.728 55.1637 132.72C55.1563 132.713 55.1504 132.704 55.1464 132.695C55.1424 132.685 55.1403 132.675 55.1403 132.664V129.873C55.1378 129.861 55.1379 129.848 55.1408 129.836C55.1437 129.824 55.1493 129.813 55.1571 129.803C55.1649 129.794 55.1748 129.786 55.1859 129.781C55.1971 129.775 55.2094 129.773 55.2218 129.773C55.2342 129.773 55.2464 129.775 55.2576 129.781C55.2688 129.786 55.2787 129.794 55.2865 129.803C55.2943 129.813 55.2998 129.824 55.3027 129.836C55.3056 129.848 55.3058 129.861 55.3032 129.873V132.664C55.3032 132.675 55.3011 132.686 55.2968 132.695C55.2926 132.705 55.2864 132.714 55.2786 132.722C55.2709 132.729 55.2616 132.735 55.2516 132.739C55.2415 132.743 55.2307 132.744 55.22 132.744Z" fill="#455A64"/>
<path d="M54.9774 130.507H54.9448C54.9259 130.497 54.9112 130.48 54.9032 130.46C54.8953 130.44 54.8946 130.418 54.9014 130.398L55.1946 129.725L55.5204 130.087C55.5308 130.103 55.5349 130.123 55.532 130.143C55.5291 130.162 55.5194 130.18 55.5047 130.193C55.49 130.206 55.4711 130.213 55.4515 130.214C55.4318 130.214 55.4126 130.208 55.3973 130.195L55.2417 130.018L55.0535 130.452C55.0477 130.468 55.0373 130.481 55.0238 130.491C55.0102 130.501 54.9941 130.506 54.9774 130.507V130.507Z" fill="#455A64"/>
<path d="M55.9765 132.313C55.9656 132.313 55.9548 132.311 55.9447 132.307C55.9346 132.302 55.9254 132.296 55.9177 132.289C55.9099 132.281 55.9038 132.272 55.8996 132.262C55.8954 132.251 55.8933 132.241 55.8933 132.23V129.439C55.8942 129.417 55.9032 129.396 55.9187 129.381C55.9341 129.365 55.9547 129.356 55.9765 129.355C55.9986 129.355 56.0198 129.364 56.0354 129.38C56.051 129.395 56.0598 129.417 56.0598 129.439V132.23C56.0598 132.252 56.051 132.273 56.0354 132.289C56.0198 132.304 55.9986 132.313 55.9765 132.313Z" fill="#455A64"/>
<path d="M55.7376 130.076H55.705C55.6948 130.072 55.6854 130.066 55.6776 130.058C55.6698 130.05 55.6636 130.041 55.6596 130.031C55.6555 130.021 55.6536 130.01 55.6539 129.999C55.6543 129.988 55.6569 129.977 55.6616 129.967L55.9548 129.294L56.277 129.656C56.2849 129.663 56.2912 129.672 56.2955 129.682C56.2998 129.692 56.302 129.703 56.302 129.714C56.302 129.725 56.2998 129.735 56.2955 129.745C56.2912 129.755 56.2849 129.764 56.277 129.772C56.2615 129.787 56.2407 129.795 56.2191 129.795C56.1975 129.795 56.1767 129.787 56.1612 129.772L56.0091 129.591L55.8173 130.025C55.8116 130.041 55.8007 130.055 55.7863 130.064C55.7718 130.074 55.7547 130.078 55.7376 130.076V130.076Z" fill="#455A64"/>
<path d="M43.3826 133.819V139.303C43.3826 139.513 43.531 139.6 43.712 139.495L52.2733 134.554C52.3708 134.491 52.4519 134.407 52.5098 134.306C52.5677 134.206 52.6009 134.094 52.6063 133.978V128.49C52.6063 128.28 52.4579 128.193 52.2733 128.302L43.712 133.247C43.6157 133.309 43.5356 133.394 43.4783 133.493C43.421 133.593 43.3882 133.704 43.3826 133.819Z" fill="#FAFAFA"/>
<path d="M52.0742 129.088L51.7991 129.247V134.232L52.0742 134.072V129.088Z" fill="#455A64"/>
<path d="M50.9484 129.736L50.4742 130.014V134.999L50.9484 134.72V129.736Z" fill="#455A64"/>
<path d="M49.8262 130.383L49.5474 130.543V135.528L49.8262 135.368V130.383Z" fill="#455A64"/>
<path d="M48.9755 130.865L48.4216 131.194V136.179L48.9755 135.85V130.865Z" fill="#455A64"/>
<path d="M47.5745 131.683L47.2994 131.842V136.827L47.5745 136.668V131.683Z" fill="#455A64"/>
<path d="M46.7636 132.139L46.1736 132.49V137.479L46.7636 137.124V132.139Z" fill="#455A64"/>
<path d="M45.3229 132.983L45.0478 133.142V138.127L45.3229 137.967V132.983Z" fill="#455A64"/>
<path d="M44.6821 133.348L44.5446 133.428V138.413L44.6821 138.333V133.348Z" fill="#455A64"/>
<path d="M45.8369 132.711L45.6994 132.791V137.776L45.8369 137.696V132.711Z" fill="#455A64"/>
<path d="M48.103 131.383L47.9655 131.462V136.447L48.103 136.367V131.383Z" fill="#455A64"/>
<path d="M49.3447 130.669L49.2072 130.749V135.734L49.3447 135.654V130.669Z" fill="#455A64"/>
<path d="M50.2352 130.177L50.0977 130.257V135.242L50.2352 135.162V130.177Z" fill="#455A64"/>
<path d="M51.4443 129.442L51.3068 129.526V134.51L51.4443 134.431V129.442Z" fill="#455A64"/>
<path d="M44.1971 133.631L43.922 133.79V138.775L44.1971 138.615V133.631Z" fill="#455A64"/>
<path d="M47.256 26.2469L42.7781 28.8425L44.5555 32.8245C44.591 32.9035 44.6506 32.9694 44.7256 33.0127L46.2641 33.9032C46.318 33.9342 46.3783 33.9527 46.4403 33.9571C46.5023 33.9616 46.5645 33.952 46.6223 33.929C46.6801 33.906 46.732 33.8703 46.774 33.8244C46.816 33.7786 46.8472 33.7239 46.8651 33.6643L48.7945 27.123L47.256 26.2469Z" fill="#0A0B37"/>
<path opacity="0.15" d="M47.256 26.2469L42.7781 28.8425L44.5555 32.8245C44.591 32.9035 44.6506 32.9694 44.7256 33.0127L46.2641 33.9032C46.318 33.9342 46.3783 33.9527 46.4403 33.9571C46.5023 33.9616 46.5645 33.952 46.6223 33.929C46.6801 33.906 46.732 33.8703 46.774 33.8244C46.816 33.7786 46.8472 33.7239 46.8651 33.6643L48.7945 27.123L47.256 26.2469Z" fill="black"/>
<path d="M44.3311 29.7294L46.1085 33.7114C46.1423 33.7883 46.1989 33.853 46.2708 33.8966C46.3426 33.9402 46.4261 33.9606 46.51 33.9551C46.5938 33.9495 46.6739 33.9183 46.7394 33.8657C46.8049 33.813 46.8525 33.7414 46.8759 33.6607L48.8054 27.1194L44.3311 29.7294Z" fill="#0A0B37"/>
<path d="M52.9032 1.06626L36.034 10.8149C35.9213 10.8882 35.8275 10.987 35.7602 11.1034C35.6929 11.2198 35.654 11.3504 35.6467 11.4846V32.4372C35.6554 32.5696 35.6949 32.6981 35.7622 32.8125C35.8294 32.9269 35.9225 33.024 36.034 33.096L37.4241 33.8743C37.5448 33.9351 37.6781 33.9668 37.8132 33.9668C37.9484 33.9668 38.0817 33.9351 38.2024 33.8743L55.0824 24.1257C55.1956 24.0528 55.2897 23.9541 55.357 23.8376C55.4244 23.7211 55.463 23.5903 55.4698 23.456V2.50702C55.4622 2.37334 55.4232 2.24335 55.3559 2.12761C55.2886 2.01187 55.1949 1.91365 55.0824 1.84094L53.6924 1.06264C53.5699 1.0009 53.4345 0.969045 53.2974 0.969675C53.1602 0.970304 53.0251 1.0034 52.9032 1.06626V1.06626Z" fill="#0A0B37"/>
<path opacity="0.5" d="M55.4517 2.43821C55.4227 2.24273 55.2634 2.17395 55.068 2.28617L38.206 12.0312C38.0909 12.1024 37.9961 12.2022 37.9309 12.3208L35.7589 11.09C35.8239 10.9775 35.916 10.8829 36.0268 10.8149L52.9032 1.06623C53.0233 1.00547 53.156 0.973816 53.2905 0.973816C53.4251 0.973816 53.5578 1.00547 53.6779 1.06623L55.068 1.84453C55.1709 1.91002 55.2585 1.99697 55.3247 2.09943C55.3909 2.2019 55.4343 2.31746 55.4517 2.43821V2.43821Z" fill="white"/>
<path d="M37.8006 33.6535V12.7045C37.8087 12.5679 37.8499 12.4353 37.9205 12.318C37.9911 12.2007 38.0891 12.1023 38.206 12.0312L55.0861 2.28617C55.3033 2.16309 55.4734 2.26083 55.4734 2.50699V23.4595C55.4667 23.5939 55.428 23.7247 55.3607 23.8412C55.2933 23.9577 55.1992 24.0564 55.0861 24.1293L38.206 33.8779C37.9707 34.001 37.8006 33.8996 37.8006 33.6535Z" fill="#0A0B37"/>
<path opacity="0.15" d="M38.206 33.8779C38.0847 33.9368 37.9517 33.9675 37.8169 33.9675C37.682 33.9675 37.549 33.9368 37.4277 33.8779L36.034 33.096C35.9212 33.0237 35.8272 32.9256 35.7598 32.8098C35.6925 32.694 35.6537 32.5637 35.6467 32.4299V11.4846C35.6512 11.3444 35.6937 11.208 35.7697 11.09L37.9417 12.3208C37.8697 12.4361 37.8297 12.5686 37.8259 12.7045V33.6535C37.8006 33.8779 37.9599 34.0082 38.206 33.8779Z" fill="black"/>
<path d="M39.6069 18.5364C39.5814 18.5368 39.5561 18.5322 39.5324 18.5228C39.5087 18.5134 39.4871 18.4993 39.4689 18.4815C39.4507 18.4636 39.4363 18.4423 39.4264 18.4188C39.4165 18.3953 39.4114 18.37 39.4114 18.3445V14.6955C39.4112 14.6615 39.4201 14.6281 39.4373 14.5988C39.4545 14.5695 39.4794 14.5454 39.5092 14.529L42.6694 12.719C42.6984 12.7014 42.7315 12.6921 42.7654 12.6921C42.7992 12.6921 42.8324 12.7014 42.8613 12.719C42.8911 12.7354 42.9159 12.7595 42.9332 12.7888C42.9504 12.8181 42.9593 12.8515 42.9591 12.8855V16.52C42.9593 16.5536 42.9507 16.5866 42.9342 16.6158C42.9177 16.6451 42.8938 16.6694 42.8649 16.6865L39.7047 18.4965C39.6764 18.5185 39.6425 18.5323 39.6069 18.5364V18.5364ZM39.8024 14.8078V18.0078L42.5717 16.4078V13.2077L39.8024 14.8078Z" fill="#FAFAFA"/>
<path d="M43.1364 11.9588C43.0428 11.919 42.9372 11.918 42.8429 11.956C42.7485 11.994 42.6731 12.068 42.6333 12.1615L41.1853 15.6078L40.8233 15.2711C40.7871 15.2359 40.7444 15.2082 40.6976 15.1896C40.6507 15.1709 40.6007 15.1616 40.5503 15.1623C40.4998 15.163 40.45 15.1736 40.4037 15.1935C40.3574 15.2134 40.3154 15.2422 40.2803 15.2784C40.2451 15.3145 40.2174 15.3572 40.1987 15.404C40.18 15.4509 40.1707 15.5009 40.1714 15.5514C40.1721 15.6018 40.1827 15.6516 40.2026 15.6979C40.2225 15.7442 40.2514 15.7862 40.2875 15.8214L41.0368 16.5454C41.1088 16.6148 41.2048 16.6537 41.3047 16.654H41.3807C41.4417 16.6411 41.4985 16.6136 41.5465 16.5739C41.5944 16.5342 41.6319 16.4834 41.6559 16.4259L43.3392 12.462C43.3621 12.4161 43.3751 12.3659 43.3771 12.3147C43.3792 12.2634 43.3704 12.2123 43.3512 12.1647C43.332 12.1171 43.303 12.0742 43.266 12.0387C43.2289 12.0032 43.1848 11.976 43.1364 11.9588Z" fill="#455A64"/>
<path d="M45.446 12.596L53.5041 7.94426C53.7829 7.78136 54.0109 7.8972 54.0109 8.20128C53.9988 8.37184 53.9466 8.53713 53.8585 8.6837C53.7705 8.83027 53.649 8.95397 53.5041 9.04474L45.446 13.6964C45.1673 13.8557 44.9428 13.7399 44.9428 13.4358C44.9551 13.2662 45.007 13.1018 45.0944 12.956C45.1818 12.8101 45.3022 12.6868 45.446 12.596V12.596Z" fill="#455A64"/>
<path d="M39.6069 24.0098C39.5726 24.0108 39.5387 24.002 39.5092 23.9845C39.4796 23.967 39.455 23.9421 39.4379 23.9123C39.4208 23.8825 39.4117 23.8487 39.4115 23.8144V20.169C39.4109 20.1345 39.4197 20.1005 39.4369 20.0705C39.4541 20.0406 39.4791 20.0158 39.5092 19.9989L42.6695 18.1889C42.6989 18.1727 42.7319 18.1642 42.7654 18.1642C42.7989 18.1642 42.8319 18.1727 42.8613 18.1889C42.8909 18.2064 42.9155 18.2313 42.9326 18.2611C42.9497 18.2909 42.9589 18.3246 42.9591 18.359V21.9899C42.9596 22.0244 42.9508 22.0584 42.9336 22.0884C42.9164 22.1183 42.8914 22.1431 42.8613 22.16L39.7047 23.97C39.6764 23.992 39.6426 24.0058 39.6069 24.0098V24.0098ZM39.7988 20.2812V23.4777L42.5717 21.874V18.6812L39.7988 20.2812Z" fill="#FAFAFA"/>
<path d="M43.1364 17.4287C43.0423 17.3901 42.9367 17.3901 42.8426 17.4287C42.7484 17.4673 42.6732 17.5414 42.6333 17.635L41.1853 21.0812L40.8233 20.7446C40.7876 20.7089 40.7453 20.6806 40.6987 20.6613C40.6521 20.642 40.6022 20.632 40.5518 20.632C40.5013 20.632 40.4514 20.642 40.4048 20.6613C40.3582 20.6806 40.3159 20.7089 40.2803 20.7446C40.2099 20.8175 40.1706 20.9148 40.1706 21.0161C40.1706 21.1174 40.2099 21.2147 40.2803 21.2876L41.0296 22.0116C41.0644 22.0471 41.1061 22.0751 41.1522 22.0938C41.1983 22.1125 41.2478 22.1215 41.2975 22.1202C41.3227 22.1238 41.3483 22.1238 41.3735 22.1202C41.4348 22.1096 41.4923 22.0833 41.5405 22.044C41.5887 22.0047 41.6259 21.9536 41.6486 21.8957L43.3138 17.9137C43.3499 17.8253 43.3518 17.7266 43.319 17.6369C43.2862 17.5472 43.2211 17.4729 43.1364 17.4287V17.4287Z" fill="#455A64"/>
<path d="M45.446 18.0513L53.5041 13.3996C53.7829 13.2367 54.0109 13.3525 54.0109 13.6566C53.9983 13.8265 53.9458 13.9911 53.8577 14.137C53.7697 14.2829 53.6486 14.406 53.5041 14.4964L45.446 19.1518C45.1673 19.311 44.9428 19.1952 44.9428 18.8911C44.9551 18.7215 45.007 18.5572 45.0944 18.4113C45.1818 18.2654 45.3022 18.1421 45.446 18.0513V18.0513Z" fill="#455A64"/>
<path d="M39.6069 29.476C39.5722 29.4759 39.5383 29.4659 39.5092 29.4471C39.4794 29.4307 39.4545 29.4066 39.4373 29.3773C39.4201 29.348 39.4112 29.3146 39.4114 29.2806V25.6388C39.4112 25.6048 39.4201 25.5714 39.4373 25.5421C39.4545 25.5128 39.4794 25.4887 39.5092 25.4723L42.6694 23.6623C42.6984 23.6447 42.7315 23.6354 42.7654 23.6354C42.7992 23.6354 42.8324 23.6447 42.8613 23.6623C42.8911 23.6787 42.9159 23.7028 42.9332 23.7321C42.9504 23.7614 42.9593 23.7948 42.9591 23.8288V27.4633C42.9593 27.4973 42.9504 27.5307 42.9332 27.5601C42.9159 27.5894 42.8911 27.6135 42.8613 27.6298L39.7047 29.4398C39.6758 29.4602 39.6421 29.4727 39.6069 29.476V29.476ZM39.7988 25.7438V28.9439L42.5717 27.3439V24.151L39.7988 25.7438Z" fill="#FAFAFA"/>
<path d="M43.1364 22.9021C43.0428 22.8623 42.9372 22.8613 42.8429 22.8993C42.7485 22.9373 42.6731 23.0113 42.6333 23.1048L41.1853 26.5511L40.8233 26.2144C40.7503 26.1434 40.6521 26.1042 40.5503 26.1056C40.4484 26.1069 40.3513 26.1487 40.2803 26.2217C40.2092 26.2946 40.1701 26.3928 40.1714 26.4947C40.1728 26.5965 40.2145 26.6936 40.2875 26.7647L41.0368 27.4887C41.1088 27.5581 41.2048 27.597 41.3047 27.5973H41.3807C41.4417 27.5844 41.4985 27.5569 41.5465 27.5172C41.5944 27.4775 41.6319 27.4267 41.6559 27.3692L43.3211 23.3872C43.3415 23.3433 43.3529 23.2958 43.3546 23.2475C43.3564 23.1991 43.3484 23.1509 43.3312 23.1057C43.314 23.0604 43.2879 23.0191 43.2544 22.9842C43.221 22.9492 43.1809 22.9213 43.1364 22.9021V22.9021Z" fill="#455A64"/>
<path d="M45.446 23.5067L53.5041 18.8513C53.7829 18.6921 54.0109 18.8079 54.0109 19.112C53.9983 19.2819 53.9458 19.4465 53.8577 19.5924C53.7697 19.7383 53.6486 19.8614 53.5041 19.9518L45.446 24.6035C45.1673 24.7664 44.9428 24.6506 44.9428 24.3465C44.9551 24.1769 45.007 24.0125 45.0944 23.8667C45.1818 23.7208 45.3022 23.5975 45.446 23.5067V23.5067Z" fill="#455A64"/>
</svg>
